{
.appVersion = "1057";
classes = (
{
code = "sterling fi Ebreve ae ebreve less asciitilde hyphen caron uni040D uni0162 uni0163 ij comma asciicircum E quotesingle periodcentered Odieresis six three uni018F slash A ordmasculine C B AE greater degree H K J M O uni0306 P S IJ T Y X fl uni0326 a c b e i h OE j l o n p s r u t oe y x k uni0439";
name = default;
},
{
code = "sterling.calt0 fi.calt0 Ebreve.calt0 ae.calt0 ebreve.calt0 less.calt0 asciitilde.calt0 hyphen.calt0 caron.calt0 uni040D.calt0 uni0162.calt0 uni0163.calt0 ij.calt0 comma.calt0 asciicircum.calt0 E.calt0 quotesingle.calt0 periodcentered.calt0 Odieresis.calt0 six.calt0 three.calt0 uni018F.calt0 slash.calt0 A.calt0 ordmasculine.calt0 C.calt0 B.calt0 AE.calt0 greater.calt0 degree.calt0 H.calt0 K.calt0 J.calt0 M.calt0 O.calt0 uni0306.calt0 P.calt0 S.calt0 IJ.calt0 T.calt0 Y.calt0 X.calt0 fl.calt0 uni0326.calt0 a.calt0 c.calt0 b.calt0 e.calt0 i.calt0 h.calt0 OE.calt0 j.calt0 l.calt0 o.calt0 n.calt0 p.calt0 s.calt0 r.calt0 u.calt0 t.calt0 oe.calt0 y.calt0 x.calt0 k.calt0 uni0439.calt0";
name = calt0;
},
{
code = "sterling.calt1 fi.calt1 Ebreve.calt1 ae.calt1 ebreve.calt1 less.calt1 asciitilde.calt1 hyphen.calt1 caron.calt1 uni040D.calt1 uni0162.calt1 uni0163.calt1 ij.calt1 comma.calt1 asciicircum.calt1 E.calt1 quotesingle.calt1 periodcentered.calt1 Odieresis.calt1 six.calt1 three.calt1 uni018F.calt1 slash.calt1 A.calt1 ordmasculine.calt1 C.calt1 B.calt1 AE.calt1 greater.calt1 degree.calt1 H.calt1 K.calt1 J.calt1 M.calt1 O.calt1 uni0306.calt1 P.calt1 S.calt1 IJ.calt1 T.calt1 Y.calt1 X.calt1 fl.calt1 uni0326.calt1 a.calt1 c.calt1 b.calt1 e.calt1 i.calt1 h.calt1 OE.calt1 j.calt1 l.calt1 o.calt1 n.calt1 p.calt1 s.calt1 r.calt1 u.calt1 t.calt1 oe.calt1 y.calt1 x.calt1 k.calt1 uni0439.calt1";
name = calt1;
},
{

glyphs = (
{
glyphname = .notdef;
lastChange = "2019-02-03 18:41:26 +0000";
layers = (
{
layerId = "A1F39B41-468B-47E4-A64F-494FF9F69BAB";
paths = (
{
closed = 1;
nodes = (
"392 780 LINE",
"32 780 LINE",
"32 0 LINE",
"392 0 LINE"
);
},
{
closed = 1;
nodes = (
"348 736 LINE",
"348 44 LINE",
"76 44 LINE",
"76 736 LINE"
);
}
);
width = 424;
}
);
note = .notdef;
},
{
glyphname = a;
lastChange = "2019-02-03 18:41:26 +0000";
layers = (
{
layerId = "A1F39B41-468B-47E4-A64F-494FF9F69BAB";
paths = (
{
closed = 1;
nodes = (
"177 -12 OFFCURVE",
"211 9 OFFCURVE",
"243 45 CURVE SMOOTH",
"274 80 OFFCURVE",
"300 131 OFFCURVE",
"328 191 CURVE",
"336 188 LINE",
"312 94 LINE SMOOTH",
"309 82 OFFCURVE",
"305 59 OFFCURVE",
"305 44 CURVE SMOOTH",
"305 13 OFFCURVE",
"322 -12 OFFCURVE",
"362 -12 CURVE SMOOTH",
"376 -12 OFFCURVE",
"390 -7 OFFCURVE",
"405 2 CURVE SMOOTH",
"420 11 OFFCURVE",
"439 30 OFFCURVE",
"463 58 CURVE SMOOTH",
"534 141 LINE",
"510 160 LINE",
"395 45 LINE",
"377 53 LINE",
"495 516 LINE",
"453 516 LINE",
"413 445 LINE",
"405 445 LINE",
"388 501 OFFCURVE",
"357 528 OFFCURVE",
"297 528 CURVE SMOOTH",
"244 528 OFFCURVE",
"197 502 OFFCURVE",
"159 462 CURVE SMOOTH",
"121 422 OFFCURVE",
"90 367 OFFCURVE",
"70 308 CURVE SMOOTH",
"50 249 OFFCURVE",
"39 188 OFFCURVE",
"39 133 CURVE SMOOTH",
"39 40 OFFCURVE",
"68 -12 OFFCURVE",
"136 -12 CURVE SMOOTH"
);
},
{
closed = 1;
nodes = (
"131 52 OFFCURVE",
"123 81 OFFCURVE",
"123 133 CURVE SMOOTH",
"123 152 OFFCURVE",
"127 180 OFFCURVE",
"132 209 CURVE SMOOTH",
"137 238 OFFCURVE",
"144 268 OFFCURVE",
"149 289 CURVE SMOOTH",
"182 412 OFFCURVE",
"246 477 OFFCURVE",
"318 477 CURVE SMOOTH",
"377 477 OFFCURVE",
"398 430 OFFCURVE",
"379 366 CURVE SMOOTH",
"375 352 LINE SMOOTH",
"366 320 OFFCURVE",
"349 276 OFFCURVE",
"327 232 CURVE SMOOTH",
"305 187 OFFCURVE",
"278 143 OFFCURVE",
"250 109 CURVE SMOOTH",
"221 75 OFFCURVE",
"191 52 OFFCURVE",
"163 52 CURVE SMOOTH"
);
}
);
width = 544;
}
);
leftKerningGroup = a;
note = a;
rightKerningGroup = a;
unicode = 0061;
},
{
glyphname = a.alt01;
lastChange = "2019-02-03 18:41:26 +0000";
layers = (
{
layerId = "A1F39B41-468B-47E4-A64F-494FF9F69BAB";
paths = (
{
closed = 1;
nodes = (
"176 -12 OFFCURVE",
"231 27 OFFCURVE",
"274 127 CURVE",
"282 124 LINE",
"275 101 OFFCURVE",
"271 84 OFFCURVE",
"270 73 CURVE",
"268 61 OFFCURVE",
"267 51 OFFCURVE",
"267 44 CURVE SMOOTH",
"267 11 OFFCURVE",
"287 -12 OFFCURVE",
"323 -12 CURVE SMOOTH",
"338 -12 OFFCURVE",
"352 -7 OFFCURVE",
"367 2 CURVE SMOOTH",
"382 11 OFFCURVE",
"401 30 OFFCURVE",
"425 58 CURVE SMOOTH",
"496 141 LINE",
"472 160 LINE",
"357 45 LINE",
"339 53 LINE",
"411 341 LINE SMOOTH",
"416 361 OFFCURVE",
"419 387 OFFCURVE",
"419 406 CURVE SMOOTH",
"419 486 OFFCURVE",
"362 528 OFFCURVE",
"282 528 CURVE SMOOTH",
"233 528 OFFCURVE",
"188 513 OFFCURVE",
"156 491 CURVE SMOOTH",
"123 469 OFFCURVE",
"102 439 OFFCURVE",
"102 410 CURVE SMOOTH",
"102 375 OFFCURVE",
"123 359 OFFCURVE",
"150 359 CURVE SMOOTH",
"185 359 OFFCURVE",
"209 384 OFFCURVE",
"209 423 CURVE SMOOTH",
"209 442 OFFCURVE",
"200 458 OFFCURVE",
"189 465 CURVE",
"191 472 LINE",
"214 484 OFFCURVE",
"237 490 OFFCURVE",
"261 490 CURVE SMOOTH",
"308 490 OFFCURVE",
"339 464 OFFCURVE",
"339 404 CURVE SMOOTH",
"339 397 OFFCURVE",
"338 388 OFFCURVE",
"337 378 CURVE",
"333 358 OFFCURVE",
"329 335 OFFCURVE",
"324 314 CURVE SMOOTH",
"321 303 OFFCURVE",
"319 294 OFFCURVE",
"317 286 CURVE",
"202 279 OFFCURVE",
"127 255 OFFCURVE",
"81 220 CURVE SMOOTH",
"35 185 OFFCURVE",
"17 139 OFFCURVE",
"17 90 CURVE SMOOTH",
"17 33 OFFCURVE",
"56 -12 OFFCURVE",
"116 -12 CURVE SMOOTH"
);
},
{
closed = 1;
nodes = (
"108 42 OFFCURVE",
"96 65 OFFCURVE",
"96 101 CURVE SMOOTH",
"96 114 OFFCURVE",
"97 124 OFFCURVE",
"101 137 CURVE SMOOTH",
"120 200 OFFCURVE",
"179 241 OFFCURVE",
"310 256 CURVE",
"300 216 LINE SMOOTH",
"289 175 OFFCURVE",
"266 131 OFFCURVE",
"237 98 CURVE SMOOTH",
"208 65 OFFCURVE",
"175 42 OFFCURVE",
"147 42 CURVE SMOOTH"
);
}
);
width = 506;
}
);
leftKerningGroup = a.alt01;
note = a.alt01;
rightKerningGroup = a.alt01;
},
{
glyphname = b;
lastChange = "2019-02-03 18:41:26 +0000";
layers = (
{
layerId = "A1F39B41-468B-47E4-A64F-494FF9F69BAB";
paths = (
{
closed = 1;
nodes = (
"272 -12 OFFCURVE",
"320 14 OFFCURVE",
"358 54 CURVE SMOOTH",
"396 94 OFFCURVE",
"426 149 OFFCURVE",
"446 208 CURVE SMOOTH",
"466 267 OFFCURVE",
"477 328 OFFCURVE",
"477 383 CURVE SMOOTH",
"477 476 OFFCURVE",
"447 528 OFFCURVE",
"379 528 CURVE SMOOTH",
"336 528 OFFCURVE",
"303 506 OFFCURVE",
"272 470 CURVE SMOOTH",
"241 434 OFFCURVE",
"215 382 OFFCURVE",
"188 325 CURVE",
"180 328 LINE",
"291 760 LINE",
"111 722 LINE",
"103 687 LINE",
"193 687 LINE",
"21 0 LINE",
"63 0 LINE",
"103 71 LINE",
"111 71 LINE",
"128 15 OFFCURVE",
"159 -12 OFFCURVE",
"219 -12 CURVE SMOOTH"
);
},
{
closed = 1;
nodes = (
"139 39 OFFCURVE",
"118 86 OFFCURVE",
"137 150 CURVE SMOOTH",
"141 164 LINE SMOOTH",
"148 187 OFFCURVE",
"164 228 OFFCURVE",
"185 272 CURVE SMOOTH",
"206 316 OFFCURVE",
"234 365 OFFCURVE",
"263 402 CURVE SMOOTH",
"292 438 OFFCURVE",
"324 464 OFFCURVE",
"353 464 CURVE SMOOTH",
"385 464 OFFCURVE",
"393 435 OFFCURVE",
"393 383 CURVE SMOOTH",
"393 364 OFFCURVE",
"389 336 OFFCURVE",
"384 307 CURVE SMOOTH",
"379 278 OFFCURVE",
"372 248 OFFCURVE",
"367 227 CURVE SMOOTH",
"334 104 OFFCURVE",
"270 39 OFFCURVE",
"198 39 CURVE SMOOTH"
);
}
);
width = 516;
}
);
leftKerningGroup = b;
note = b;
rightKerningGroup = b;
unicode = 0062;
},
{
glyphname = c;
lastChange = "2019-02-03 18:41:26 +0000";
layers = (
{
layerId = "A1F39B41-468B-47E4-A64F-494FF9F69BAB";
paths = (
{
closed = 1;
nodes = (
"217 -12 OFFCURVE",
"255 3 OFFCURVE",
"291 33 CURVE SMOOTH",
"326 63 OFFCURVE",
"357 110 OFFCURVE",
"390 174 CURVE",
"359 189 LINE",
"308 98 OFFCURVE",
"253 45 OFFCURVE",
"193 45 CURVE SMOOTH",
"146 45 OFFCURVE",
"125 78 OFFCURVE",
"125 133 CURVE SMOOTH",
"125 156 OFFCURVE",
"129 184 OFFCURVE",
"134 212 CURVE SMOOTH",
"138 240 OFFCURVE",
"145 268 OFFCURVE",
"150 289 CURVE SMOOTH",
"169 368 OFFCURVE",
"192 418 OFFCURVE",
"218 448 CURVE SMOOTH",
"244 478 OFFCURVE",
"272 488 OFFCURVE",
"304 488 CURVE SMOOTH",
"334 488 OFFCURVE",
"357 482 OFFCURVE",
"372 471 CURVE",
"372 464 LINE",
"323 461 OFFCURVE",
"303 428 OFFCURVE",
"303 399 CURVE SMOOTH",
"303 372 OFFCURVE",
"317 353 OFFCURVE",
"352 353 CURVE SMOOTH",
"395 353 OFFCURVE",
"421 386 OFFCURVE",
"421 430 CURVE SMOOTH",
"421 487 OFFCURVE",
"373 528 OFFCURVE",
"300 528 CURVE SMOOTH",
"240 528 OFFCURVE",
"191 501 OFFCURVE",
"153 461 CURVE SMOOTH",
"115 420 OFFCURVE",
"87 365 OFFCURVE",
"69 308 CURVE SMOOTH",
"51 251 OFFCURVE",
"42 191 OFFCURVE",
"42 140 CURVE SMOOTH",
"42 40 OFFCURVE",
"81 -12 OFFCURVE",
"169 -12 CURVE SMOOTH"
);
}
);
width = 428;
}
);
leftKerningGroup = c;
note = c;
rightKerningGroup = c;
unicode = 0063;
},
{
glyphname = d;
lastChange = "2019-02-03 18:41:26 +0000";
layers = (
{
layerId = "A1F39B41-468B-47E4-A64F-494FF9F69BAB";
paths = (
{
closed = 1;
nodes = (
"177 -12 OFFCURVE",
"211 9 OFFCURVE",
"243 45 CURVE SMOOTH",
"274 80 OFFCURVE",
"300 131 OFFCURVE",
"328 191 CURVE",
"336 188 LINE",
"312 94 LINE SMOOTH",
"309 82 OFFCURVE",
"305 59 OFFCURVE",
"305 44 CURVE SMOOTH",
"305 13 OFFCURVE",
"322 -12 OFFCURVE",
"362 -12 CURVE SMOOTH",
"376 -12 OFFCURVE",
"390 -7 OFFCURVE",
"405 2 CURVE SMOOTH",
"420 11 OFFCURVE",
"439 30 OFFCURVE",
"463 58 CURVE SMOOTH",
"534 141 LINE",
"510 160 LINE",
"395 45 LINE",
"377 53 LINE",
"555 760 LINE",
"375 722 LINE",
"367 687 LINE",
"456 687 LINE",
"403 459 LINE",
"395 459 LINE",
"388 479 OFFCURVE",
"379 496 OFFCURVE",
"364 508 CURVE SMOOTH",
"348 520 OFFCURVE",
"326 528 OFFCURVE",
"297 528 CURVE SMOOTH",
"244 528 OFFCURVE",
"197 502 OFFCURVE",
"159 462 CURVE SMOOTH",
"121 422 OFFCURVE",
"90 367 OFFCURVE",
"70 308 CURVE SMOOTH",
"50 249 OFFCURVE",
"39 188 OFFCURVE",
"39 133 CURVE SMOOTH",
"39 40 OFFCURVE",
"68 -12 OFFCURVE",
"136 -12 CURVE SMOOTH"
);
},
{
closed = 1;
nodes = (
"131 52 OFFCURVE",
"123 81 OFFCURVE",
"123 133 CURVE SMOOTH",
"123 152 OFFCURVE",
"127 180 OFFCURVE",
"132 209 CURVE SMOOTH",
"137 238 OFFCURVE",
"144 268 OFFCURVE",
"149 289 CURVE SMOOTH",
"182 412 OFFCURVE",
"246 477 OFFCURVE",
"318 477 CURVE SMOOTH",
"377 477 OFFCURVE",
"398 430 OFFCURVE",
"379 366 CURVE SMOOTH",
"375 352 LINE SMOOTH",
"367 324 OFFCURVE",
"351 281 OFFCURVE",
"329 237 CURVE SMOOTH",
"307 192 OFFCURVE",
"279 146 OFFCURVE",
"251 111 CURVE SMOOTH",
"222 76 OFFCURVE",
"191 52 OFFCURVE",
"163 52 CURVE SMOOTH"
);
}
);
width = 543;
}
);
leftKerningGroup = a;
note = d;
rightKerningGroup = d;
unicode = 0064;
},
{
glyphname = e;
lastChange = "2019-02-03 18:41:26 +0000";
layers = (
{
layerId = "A1F39B41-468B-47E4-A64F-494FF9F69BAB";
paths = (
{
closed = 1;
nodes = (
"218 -12 OFFCURVE",
"256 3 OFFCURVE",
"292 33 CURVE SMOOTH",
"327 63 OFFCURVE",
"358 110 OFFCURVE",
"391 174 CURVE",
"360 189 LINE",
"309 98 OFFCURVE",
"254 45 OFFCURVE",
"194 45 CURVE SMOOTH",
"146 45 OFFCURVE",
"125 78 OFFCURVE",
"125 134 CURVE SMOOTH",
"125 171 OFFCURVE",
"134 219 OFFCURVE",
"143 260 CURVE",
"254 268 OFFCURVE",
"326 290 OFFCURVE",
"370 321 CURVE SMOOTH",
"414 352 OFFCURVE",
"430 390 OFFCURVE",
"430 429 CURVE SMOOTH",
"430 468 OFFCURVE",
"413 492 OFFCURVE",
"389 508 CURVE SMOOTH",
"365 523 OFFCURVE",
"335 528 OFFCURVE",
"307 528 CURVE SMOOTH",
"244 528 OFFCURVE",
"195 502 OFFCURVE",
"156 462 CURVE SMOOTH",
"116 422 OFFCURVE",
"88 367 OFFCURVE",
"69 311 CURVE SMOOTH",
"50 254 OFFCURVE",
"42 194 OFFCURVE",
"42 145 CURVE SMOOTH",
"42 40 OFFCURVE",
"79 -12 OFFCURVE",
"170 -12 CURVE SMOOTH"
);
},
{
closed = 1;
nodes = (
"169 366 OFFCURVE",
"190 414 OFFCURVE",
"214 445 CURVE SMOOTH",
"238 476 OFFCURVE",
"265 487 OFFCURVE",
"294 487 CURVE SMOOTH",
"339 487 OFFCURVE",
"353 459 OFFCURVE",
"353 422 CURVE SMOOTH",
"353 346 OFFCURVE",
"291 307 OFFCURVE",
"150 291 CURVE"
);
}
);
width = 445;
}
);
leftKerningGroup = c;
note = e;
rightKerningGroup = e;
unicode = 0065;
},
{
glyphname = f;
lastChange = "2019-02-03 18:41:26 +0000";
layers = (
{
layerId = "A1F39B41-468B-47E4-A64F-494FF9F69BAB";
paths = (
{
closed = 1;
nodes = (
"-32 -212 OFFCURVE",
"9 -194 OFFCURVE",
"41 -165 CURVE SMOOTH",
"73 -136 OFFCURVE",
"97 -93 OFFCURVE",
"109 -44 CURVE SMOOTH",
"237 471 LINE",
"346 471 LINE",
"357 516 LINE",
"248 516 LINE",
"271 608 LINE SMOOTH",
"290 687 OFFCURVE",
"326 734 OFFCURVE",
"390 734 CURVE",
"394 727 LINE",
"375 715 OFFCURVE",
"371 697 OFFCURVE",
"371 685 CURVE SMOOTH",
"371 658 OFFCURVE",
"388 638 OFFCURVE",
"419 638 CURVE SMOOTH",
"452 638 OFFCURVE",
"474 664 OFFCURVE",
"474 697 CURVE SMOOTH",
"474 732 OFFCURVE",
"450 760 OFFCURVE",
"385 760 CURVE SMOOTH",
"334 760 OFFCURVE",
"290 742 OFFCURVE",
"256 713 CURVE SMOOTH",
"222 684 OFFCURVE",
"198 641 OFFCURVE",
"186 592 CURVE SMOOTH",
"168 516 LINE",
"76 516 LINE",
"65 471 LINE",
"156 471 LINE",
"24 -60 LINE SMOOTH",
"5 -137 OFFCURVE",
"-22 -186 OFFCURVE",
"-85 -186 CURVE",
"-89 -179 LINE",
"-70 -167 OFFCURVE",
"-66 -149 OFFCURVE",
"-66 -137 CURVE SMOOTH",
"-66 -110 OFFCURVE",
"-83 -90 OFFCURVE",
"-114 -90 CURVE SMOOTH",
"-147 -90 OFFCURVE",
"-169 -116 OFFCURVE",
"-169 -149 CURVE SMOOTH",
"-169 -184 OFFCURVE",
"-145 -212 OFFCURVE",
"-80 -212 CURVE SMOOTH"
);
}
);
width = 301;
}
);
leftKerningGroup = f;
note = f;
rightKerningGroup = f;
unicode = 0066;
},
{
glyphname = g;
lastChange = "2019-02-03 18:41:26 +0000";
layers = (
{
layerId = "A1F39B41-468B-47E4-A64F-494FF9F69BAB";
paths = (
{
closed = 1;
nodes = (
"196 -212 OFFCURVE",
"257 -201 OFFCURVE",
"304 -177 CURVE SMOOTH",
"351 -153 OFFCURVE",
"381 -116 OFFCURVE",
"381 -64 CURVE SMOOTH",
"381 1 OFFCURVE",
"335 31 OFFCURVE",
"260 59 CURVE SMOOTH",
"160 95 LINE SMOOTH",
"121 110 OFFCURVE",
"100 115 OFFCURVE",
"100 138 CURVE SMOOTH",
"100 155 OFFCURVE",
"110 168 OFFCURVE",
"126 177 CURVE SMOOTH",
"141 186 OFFCURVE",
"160 191 OFFCURVE",
"177 194 CURVE",
"188 191 OFFCURVE",
"200 190 OFFCURVE",
"214 190 CURVE SMOOTH",
"271 190 OFFCURVE",
"325 212 OFFCURVE",
"364 249 CURVE SMOOTH",
"403 286 OFFCURVE",
"427 337 OFFCURVE",
"427 396 CURVE SMOOTH",
"427 436 OFFCURVE",
"415 468 OFFCURVE",
"392 491 CURVE",
"408 542 LINE",
"412 542 LINE",
"417 525 OFFCURVE",
"427 515 OFFCURVE",
"450 515 CURVE SMOOTH",
"477 515 OFFCURVE",
"498 536 OFFCURVE",
"498 563 CURVE SMOOTH",
"498 587 OFFCURVE",
"481 603 OFFCURVE",
"452 603 CURVE SMOOTH",
"408 603 OFFCURVE",
"387 568 OFFCURVE",
"372 507 CURVE",
"351 520 OFFCURVE",
"327 528 OFFCURVE",
"296 528 CURVE SMOOTH",
"237 528 OFFCURVE",
"184 505 OFFCURVE",
"145 469 CURVE SMOOTH",
"106 432 OFFCURVE",
"82 380 OFFCURVE",
"82 321 CURVE SMOOTH",
"82 270 OFFCURVE",
"102 232 OFFCURVE",
"138 209 CURVE",
"137 204 LINE",
"113 199 OFFCURVE",
"88 189 OFFCURVE",
"68 174 CURVE SMOOTH",
"48 158 OFFCURVE",
"34 136 OFFCURVE",
"34 108 CURVE SMOOTH",
"34 71 OFFCURVE",
"59 49 OFFCURVE",
"99 32 CURVE",
"97 26 LINE",
"58 15 OFFCURVE",
"18 2 OFFCURVE",
"-14 -20 CURVE SMOOTH",
"-46 -42 OFFCURVE",
"-68 -70 OFFCURVE",
"-68 -106 CURVE SMOOTH",
"-68 -135 OFFCURVE",
"-52 -160 OFFCURVE",
"-19 -181 CURVE SMOOTH",
"13 -202 OFFCURVE",
"64 -212 OFFCURVE",
"133 -212 CURVE SMOOTH"
);
},
{
closed = 1;
nodes = (
"176 226 OFFCURVE",
"160 253 OFFCURVE",
"160 298 CURVE SMOOTH",
"160 303 OFFCURVE",
"161 311 OFFCURVE",
"163 323 CURVE SMOOTH",
"165 335 OFFCURVE",
"168 353 OFFCURVE",
"175 380 CURVE SMOOTH",
"194 452 OFFCURVE",
"230 492 OFFCURVE",
"286 492 CURVE SMOOTH",
"333 492 OFFCURVE",
"349 464 OFFCURVE",
"349 420 CURVE SMOOTH",
"349 414 OFFCURVE",
"348 406 OFFCURVE",
"347 395 CURVE",
"345 384 OFFCURVE",
"341 365 OFFCURVE",
"334 338 CURVE SMOOTH",
"315 266 OFFCURVE",
"279 226 OFFCURVE",
"223 226 CURVE SMOOTH"
);
},
{
closed = 1;
nodes = (
"53 -181 OFFCURVE",
"10 -145 OFFCURVE",
"10 -96 CURVE SMOOTH",
"10 -67 OFFCURVE",
"25 -43 OFFCURVE",
"49 -23 CURVE SMOOTH",
"73 -4 OFFCURVE",
"105 9 OFFCURVE",
"138 20 CURVE",
"231 -13 LINE SMOOTH",
"276 -29 OFFCURVE",
"302 -44 OFFCURVE",
"302 -84 CURVE SMOOTH",
"302 -120 OFFCURVE",
"281 -145 OFFCURVE",
"251 -160 CURVE SMOOTH",
"221 -175 OFFCURVE",
"181 -181 OFFCURVE",
"146 -181 CURVE SMOOTH"
);
}
);
width = 472;
}
);
leftKerningGroup = g;
note = g;
rightKerningGroup = g;
unicode = 0067;
},
{
glyphname = g.alt01;
lastChange = "2019-02-03 18:41:26 +0000";
layers = (
{
layerId = "A1F39B41-468B-47E4-A64F-494FF9F69BAB";
paths = (
{
closed = 1;
nodes = (
"242 -212 OFFCURVE",
"330 -146 OFFCURVE",
"363 -13 CURVE SMOOTH",
"495 516 LINE",
"453 516 LINE",
"413 445 LINE",
"405 445 LINE",
"388 501 OFFCURVE",
"357 528 OFFCURVE",
"297 528 CURVE SMOOTH",
"244 528 OFFCURVE",
"197 502 OFFCURVE",
"159 462 CURVE SMOOTH",
"121 422 OFFCURVE",
"90 367 OFFCURVE",
"70 308 CURVE SMOOTH",
"50 249 OFFCURVE",
"39 188 OFFCURVE",
"39 133 CURVE SMOOTH",
"39 40 OFFCURVE",
"68 -12 OFFCURVE",
"136 -12 CURVE SMOOTH",
"177 -12 OFFCURVE",
"211 9 OFFCURVE",
"243 45 CURVE SMOOTH",
"274 80 OFFCURVE",
"300 131 OFFCURVE",
"328 191 CURVE",
"336 188 LINE",
"283 -16 LINE SMOOTH",
"267 -75 OFFCURVE",
"242 -114 OFFCURVE",
"214 -139 CURVE SMOOTH",
"185 -164 OFFCURVE",
"151 -175 OFFCURVE",
"118 -175 CURVE SMOOTH",
"87 -175 OFFCURVE",
"57 -171 OFFCURVE",
"42 -162 CURVE",
"42 -154 LINE",
"89 -151 OFFCURVE",
"108 -122 OFFCURVE",
"108 -95 CURVE SMOOTH",
"108 -70 OFFCURVE",
"92 -51 OFFCURVE",
"60 -51 CURVE SMOOTH",
"21 -51 OFFCURVE",
"-3 -81 OFFCURVE",
"-3 -120 CURVE SMOOTH",
"-3 -148 OFFCURVE",
"13 -171 OFFCURVE",
"37 -187 CURVE SMOOTH",
"61 -203 OFFCURVE",
"94 -212 OFFCURVE",
"129 -212 CURVE SMOOTH"
);
},
{
closed = 1;
nodes = (
"131 52 OFFCURVE",
"123 81 OFFCURVE",
"123 133 CURVE SMOOTH",
"123 152 OFFCURVE",
"127 180 OFFCURVE",
"132 209 CURVE SMOOTH",
"137 238 OFFCURVE",
"144 268 OFFCURVE",
"149 289 CURVE SMOOTH",
"182 412 OFFCURVE",
"246 477 OFFCURVE",
"318 477 CURVE SMOOTH",
"377 477 OFFCURVE",
"398 430 OFFCURVE",
"379 366 CURVE SMOOTH",
"375 352 LINE SMOOTH",
"367 325 OFFCURVE",
"351 284 OFFCURVE",
"330 240 CURVE SMOOTH",
"309 195 OFFCURVE",
"281 148 OFFCURVE",
"253 113 CURVE SMOOTH",
"224 77 OFFCURVE",
"192 52 OFFCURVE",
"163 52 CURVE SMOOTH"
);
}
);
width = 520;
}
);
leftKerningGroup = a;
note = g.alt01;
rightKerningGroup = g.alt01;
},
{
glyphname = g.alt02;
lastChange = "2019-02-03 18:41:26 +0000";
layers = (
{
layerId = "A1F39B41-468B-47E4-A64F-494FF9F69BAB";
paths = (
{
closed = 1;
nodes = (
"194 -212 OFFCURVE",
"256 -201 OFFCURVE",
"303 -177 CURVE SMOOTH",
"350 -153 OFFCURVE",
"381 -116 OFFCURVE",
"381 -64 CURVE SMOOTH",
"381 1 OFFCURVE",
"335 31 OFFCURVE",
"260 59 CURVE SMOOTH",
"160 95 LINE SMOOTH",
"121 110 OFFCURVE",
"100 115 OFFCURVE",
"100 138 CURVE SMOOTH",
"100 155 OFFCURVE",
"110 168 OFFCURVE",
"126 177 CURVE SMOOTH",
"141 186 OFFCURVE",
"160 191 OFFCURVE",
"177 194 CURVE",
"188 191 OFFCURVE",
"200 190 OFFCURVE",
"214 190 CURVE SMOOTH",
"273 190 OFFCURVE",
"325 212 OFFCURVE",
"364 249 CURVE SMOOTH",
"403 286 OFFCURVE",
"427 337 OFFCURVE",
"427 396 CURVE SMOOTH",
"427 425 OFFCURVE",
"419 449 OFFCURVE",
"406 470 CURVE",
"409 475 LINE",
"451 474 LINE",
"496 474 LINE",
"507 516 LINE",
"357 516 LINE",
"339 524 OFFCURVE",
"319 528 OFFCURVE",
"296 528 CURVE SMOOTH",
"237 528 OFFCURVE",
"184 505 OFFCURVE",
"145 469 CURVE SMOOTH",
"106 432 OFFCURVE",
"82 380 OFFCURVE",
"82 321 CURVE SMOOTH",
"82 270 OFFCURVE",
"102 232 OFFCURVE",
"138 209 CURVE",
"137 204 LINE",
"113 199 OFFCURVE",
"88 189 OFFCURVE",
"68 174 CURVE SMOOTH",
"48 158 OFFCURVE",
"34 136 OFFCURVE",
"34 108 CURVE SMOOTH",
"34 71 OFFCURVE",
"59 49 OFFCURVE",
"99 32 CURVE",
"97 26 LINE",
"58 15 OFFCURVE",
"18 2 OFFCURVE",
"-14 -20 CURVE SMOOTH",
"-46 -42 OFFCURVE",
"-68 -70 OFFCURVE",
"-68 -106 CURVE SMOOTH",
"-68 -135 OFFCURVE",
"-52 -160 OFFCURVE",
"-19 -181 CURVE SMOOTH",
"13 -202 OFFCURVE",
"64 -212 OFFCURVE",
"133 -212 CURVE SMOOTH"
);
},
{
closed = 1;
nodes = (
"176 226 OFFCURVE",
"160 253 OFFCURVE",
"160 298 CURVE SMOOTH",
"160 303 OFFCURVE",
"161 311 OFFCURVE",
"163 323 CURVE SMOOTH",
"165 335 OFFCURVE",
"168 352 OFFCURVE",
"175 379 CURVE SMOOTH",
"194 451 OFFCURVE",
"230 492 OFFCURVE",
"286 492 CURVE SMOOTH",
"333 492 OFFCURVE",
"349 464 OFFCURVE",
"349 420 CURVE SMOOTH",
"349 414 OFFCURVE",
"348 406 OFFCURVE",
"347 395 CURVE",
"345 384 OFFCURVE",
"341 365 OFFCURVE",
"334 338 CURVE SMOOTH",
"315 266 OFFCURVE",
"279 226 OFFCURVE",
"223 226 CURVE SMOOTH"
);
},
{
closed = 1;
nodes = (
"53 -181 OFFCURVE",
"10 -145 OFFCURVE",
"10 -96 CURVE SMOOTH",
"10 -67 OFFCURVE",
"25 -43 OFFCURVE",
"49 -23 CURVE SMOOTH",
"73 -4 OFFCURVE",
"105 9 OFFCURVE",
"138 20 CURVE",
"230 -13 LINE SMOOTH",
"277 -29 OFFCURVE",
"302 -44 OFFCURVE",
"302 -84 CURVE SMOOTH",
"302 -120 OFFCURVE",
"281 -145 OFFCURVE",
"251 -160 CURVE SMOOTH",
"221 -175 OFFCURVE",
"181 -181 OFFCURVE",
"146 -181 CURVE SMOOTH"
);
}
);
width = 472;
}
);
leftKerningGroup = g;
note = g.alt02;
rightKerningGroup = g;
},
{
glyphname = h;
lastChange = "2019-02-03 18:41:26 +0000";
layers = (
{
layerId = "A1F39B41-468B-47E4-A64F-494FF9F69BAB";
paths = (
{
closed = 1;
nodes = (
"392 -12 OFFCURVE",
"421 2 OFFCURVE",
"468 58 CURVE SMOOTH",
"539 141 LINE",
"515 160 LINE",
"400 45 LINE",
"382 53 LINE",
"474 394 LINE SMOOTH",
"479 413 OFFCURVE",
"482 430 OFFCURVE",
"482 445 CURVE SMOOTH",
"482 493 OFFCURVE",
"457 528 OFFCURVE",
"400 528 CURVE SMOOTH",
"352 528 OFFCURVE",
"313 502 OFFCURVE",
"278 463 CURVE SMOOTH",
"243 423 OFFCURVE",
"214 371 OFFCURVE",
"186 319 CURVE",
"178 322 LINE",
"291 760 LINE",
"111 722 LINE",
"103 687 LINE",
"193 687 LINE",
"21 0 LINE",
"101 0 LINE",
"139 151 LINE SMOOTH",
"159 231 OFFCURVE",
"200 308 OFFCURVE",
"245 367 CURVE SMOOTH",
"290 426 OFFCURVE",
"338 464 OFFCURVE",
"374 464 CURVE SMOOTH",
"393 464 OFFCURVE",
"402 454 OFFCURVE",
"402 435 CURVE SMOOTH",
"402 428 OFFCURVE",
"401 421 OFFCURVE",
"399 412 CURVE",
"311 91 LINE SMOOTH",
"307 78 OFFCURVE",
"304 61 OFFCURVE",
"304 46 CURVE SMOOTH",
"304 15 OFFCURVE",
"324 -12 OFFCURVE",
"364 -12 CURVE SMOOTH"
);
}
);
width = 551;
}
);
leftKerningGroup = b;
note = h;
rightKerningGroup = a.alt01;
unicode = 0068;
},
{
glyphname = i;
lastChange = "2019-02-03 18:41:26 +0000";
layers = (
{
layerId = "A1F39B41-468B-47E4-A64F-494FF9F69BAB";
paths = (
{
closed = 1;
nodes = (
"142 -12 OFFCURVE",
"170 2 OFFCURVE",
"217 58 CURVE SMOOTH",
"288 141 LINE",
"264 160 LINE",
"149 45 LINE",
"131 53 LINE",
"250 528 LINE",
"69 490 LINE",
"61 455 LINE",
"151 455 LINE",
"61 91 LINE",
"60 84 OFFCURVE",
"58 77 OFFCURVE",
"57 69 CURVE",
"55 61 OFFCURVE",
"54 53 OFFCURVE",
"54 46 CURVE SMOOTH",
"54 15 OFFCURVE",
"74 -12 OFFCURVE",
"113 -12 CURVE SMOOTH"
);
},
{
closed = 1;
nodes = (
"267 638 OFFCURVE",
"287 656 OFFCURVE",
"294 683 CURVE",
"295 686 OFFCURVE",
"296 690 OFFCURVE",
"296 693 CURVE SMOOTH",
"296 696 OFFCURVE",
"296 699 OFFCURVE",
"296 702 CURVE SMOOTH",
"296 722 OFFCURVE",
"281 743 OFFCURVE",
"250 743 CURVE SMOOTH",
"219 743 OFFCURVE",
"199 725 OFFCURVE",
"192 698 CURVE",
"191 695 OFFCURVE",
"190 691 OFFCURVE",
"190 688 CURVE SMOOTH",
"190 685 OFFCURVE",
"190 682 OFFCURVE",
"190 679 CURVE SMOOTH",
"190 659 OFFCURVE",
"205 638 OFFCURVE",
"236 638 CURVE SMOOTH"
);
}
);
width = 300;
}
);
leftKerningGroup = i;
note = i;
rightKerningGroup = i;
unicode = 0069;
},
{
glyphname = j;
lastChange = "2019-02-03 18:41:26 +0000";
layers = (
{
layerId = "A1F39B41-468B-47E4-A64F-494FF9F69BAB";
paths = (
{
closed = 1;
nodes = (
"21 -212 OFFCURVE",
"82 -146 OFFCURVE",
"106 -47 CURVE SMOOTH",
"249 528 LINE",
"68 490 LINE",
"60 455 LINE",
"150 455 LINE",
"23 -60 LINE SMOOTH",
"3 -141 OFFCURVE",
"-18 -188 OFFCURVE",
"-70 -189 CURVE",
"-73 -182 LINE",
"-54 -170 OFFCURVE",
"-51 -150 OFFCURVE",
"-51 -138 CURVE SMOOTH",
"-51 -111 OFFCURVE",
"-68 -90 OFFCURVE",
"-99 -90 CURVE SMOOTH",
"-132 -90 OFFCURVE",
"-154 -115 OFFCURVE",
"-154 -150 CURVE SMOOTH",
"-154 -183 OFFCURVE",
"-130 -212 OFFCURVE",
"-67 -212 CURVE SMOOTH"
);
},
{
closed = 1;
nodes = (
"266 638 OFFCURVE",
"286 656 OFFCURVE",
"293 683 CURVE",
"294 686 OFFCURVE",
"295 690 OFFCURVE",
"295 693 CURVE SMOOTH",
"295 696 OFFCURVE",
"295 699 OFFCURVE",
"295 702 CURVE SMOOTH",
"295 722 OFFCURVE",
"280 743 OFFCURVE",
"249 743 CURVE SMOOTH",
"218 743 OFFCURVE",
"198 725 OFFCURVE",
"191 698 CURVE",
"190 695 OFFCURVE",
"189 691 OFFCURVE",
"189 688 CURVE SMOOTH",
"189 685 OFFCURVE",
"189 682 OFFCURVE",
"189 679 CURVE SMOOTH",
"189 659 OFFCURVE",
"204 638 OFFCURVE",
"235 638 CURVE SMOOTH"
);
}
);
width = 270;
}
);
leftKerningGroup = j;
note = j;
rightKerningGroup = g.alt01;
unicode = 006A;
},
{
glyphname = k;
lastChange = "2019-02-03 18:41:26 +0000";
layers = (
{
layerId = "A1F39B41-468B-47E4-A64F-494FF9F69BAB";
paths = (
{
closed = 1;
nodes = (
"394 -12 OFFCURVE",
"412 4 OFFCURVE",
"456 56 CURVE SMOOTH",
"529 141 LINE",
"505 160 LINE",
"397 52 LINE",
"387 52 LINE",
"293 226 LINE",
"325 239 OFFCURVE",
"372 267 OFFCURVE",
"412 304 CURVE SMOOTH",
"451 340 OFFCURVE",
"482 387 OFFCURVE",
"482 442 CURVE SMOOTH",
"482 493 OFFCURVE",
"456 528 OFFCURVE",
"400 528 CURVE SMOOTH",
"353 528 OFFCURVE",
"315 504 OFFCURVE",
"281 465 CURVE SMOOTH",
"247 426 OFFCURVE",
"215 374 OFFCURVE",
"186 319 CURVE",
"178 322 LINE",
"291 760 LINE",
"111 722 LINE",
"103 687 LINE",
"193 687 LINE",
"21 0 LINE",
"101 0 LINE",
"139 151 LINE SMOOTH",
"159 228 OFFCURVE",
"199 306 OFFCURVE",
"243 365 CURVE SMOOTH",
"287 424 OFFCURVE",
"336 464 OFFCURVE",
"372 464 CURVE SMOOTH",
"393 464 OFFCURVE",
"404 451 OFFCURVE",
"404 426 CURVE SMOOTH",
"404 365 OFFCURVE",
"340 280 OFFCURVE",
"213 215 CURVE",
"306 29 LINE SMOOTH",
"325 -6 OFFCURVE",
"343 -12 OFFCURVE",
"362 -12 CURVE SMOOTH"
);
}
);
width = 530;
}
);
leftKerningGroup = b;
note = k;
rightKerningGroup = k;
unicode = 006B;
},
{
glyphname = l;
lastChange = "2019-02-03 18:41:26 +0000";
layers = (
{
layerId = "A1F39B41-468B-47E4-A64F-494FF9F69BAB";
paths = (
{
closed = 1;
nodes = (
"126 -12 OFFCURVE",
"154 2 OFFCURVE",
"201 58 CURVE SMOOTH",
"272 141 LINE",
"248 160 LINE",
"133 45 LINE",
"115 53 LINE",
"292 760 LINE",
"112 722 LINE",
"104 687 LINE",
"194 687 LINE",
"45 91 LINE",
"44 84 OFFCURVE",
"42 77 OFFCURVE",
"41 69 CURVE",
"39 61 OFFCURVE",
"38 53 OFFCURVE",
"38 46 CURVE SMOOTH",
"38 15 OFFCURVE",
"58 -12 OFFCURVE",
"97 -12 CURVE SMOOTH"
);
}
);
width = 281;
}
);
leftKerningGroup = b;
note = l;
rightKerningGroup = d;
unicode = 006C;
},
{
glyphname = m;
lastChange = "2019-02-03 18:41:26 +0000";
layers = (
{
layerId = "A1F39B41-468B-47E4-A64F-494FF9F69BAB";
paths = (
{
closed = 1;
nodes = (
"684 -12 OFFCURVE",
"713 2 OFFCURVE",
"760 58 CURVE SMOOTH",
"831 141 LINE",
"807 160 LINE",
"692 45 LINE",
"674 53 LINE",
"766 394 LINE SMOOTH",
"771 413 OFFCURVE",
"774 430 OFFCURVE",
"774 445 CURVE SMOOTH",
"774 493 OFFCURVE",
"749 528 OFFCURVE",
"692 528 CURVE SMOOTH",
"644 528 OFFCURVE",
"605 502 OFFCURVE",
"570 463 CURVE SMOOTH",
"535 423 OFFCURVE",
"506 372 OFFCURVE",
"478 320 CURVE",
"470 323 LINE",
"488 393 LINE SMOOTH",
"493 412 OFFCURVE",
"495 429 OFFCURVE",
"495 444 CURVE SMOOTH",
"495 493 OFFCURVE",
"472 528 OFFCURVE",
"417 528 CURVE SMOOTH",
"369 528 OFFCURVE",
"330 501 OFFCURVE",
"295 462 CURVE SMOOTH",
"260 422 OFFCURVE",
"231 370 OFFCURVE",
"203 319 CURVE",
"195 322 LINE",
"247 528 LINE",
"69 490 LINE",
"61 455 LINE",
"151 455 LINE",
"38 0 LINE",
"118 0 LINE",
"156 151 LINE SMOOTH",
"176 231 OFFCURVE",
"218 310 OFFCURVE",
"263 368 CURVE SMOOTH",
"308 426 OFFCURVE",
"356 464 OFFCURVE",
"391 464 CURVE SMOOTH",
"410 464 OFFCURVE",
"419 454 OFFCURVE",
"419 435 CURVE SMOOTH",
"419 429 OFFCURVE",
"418 421 OFFCURVE",
"415 410 CURVE SMOOTH",
"313 0 LINE",
"393 0 LINE",
"431 151 LINE SMOOTH",
"451 231 OFFCURVE",
"492 308 OFFCURVE",
"537 367 CURVE SMOOTH",
"581 426 OFFCURVE",
"630 464 OFFCURVE",
"666 464 CURVE SMOOTH",
"685 464 OFFCURVE",
"694 454 OFFCURVE",
"694 435 CURVE SMOOTH",
"694 428 OFFCURVE",
"693 421 OFFCURVE",
"691 412 CURVE",
"603 91 LINE SMOOTH",
"599 78 OFFCURVE",
"596 61 OFFCURVE",
"596 46 CURVE SMOOTH",
"596 15 OFFCURVE",
"616 -12 OFFCURVE",
"656 -12 CURVE SMOOTH"
);
}
);
width = 843;
}
);
leftKerningGroup = m;
note = m;
rightKerningGroup = a.alt01;
unicode = 006D;
},
{
glyphname = n;
lastChange = "2019-02-03 18:41:26 +0000";
layers = (
{
layerId = "A1F39B41-468B-47E4-A64F-494FF9F69BAB";
paths = (
{
closed = 1;
nodes = (
"409 -12 OFFCURVE",
"438 2 OFFCURVE",
"485 58 CURVE SMOOTH",
"556 141 LINE",
"532 160 LINE",
"417 45 LINE",
"399 53 LINE",
"491 394 LINE SMOOTH",
"496 413 OFFCURVE",
"499 430 OFFCURVE",
"499 445 CURVE SMOOTH",
"499 493 OFFCURVE",
"474 528 OFFCURVE",
"417 528 CURVE SMOOTH",
"369 528 OFFCURVE",
"330 502 OFFCURVE",
"295 463 CURVE SMOOTH",
"260 423 OFFCURVE",
"231 371 OFFCURVE",
"203 319 CURVE",
"195 322 LINE",
"247 528 LINE",
"69 490 LINE",
"61 455 LINE",
"151 455 LINE",
"38 0 LINE",
"118 0 LINE",
"156 151 LINE SMOOTH",
"176 231 OFFCURVE",
"217 308 OFFCURVE",
"262 367 CURVE SMOOTH",
"307 426 OFFCURVE",
"356 464 OFFCURVE",
"391 464 CURVE SMOOTH",
"410 464 OFFCURVE",
"419 454 OFFCURVE",
"419 435 CURVE SMOOTH",
"419 428 OFFCURVE",
"418 421 OFFCURVE",
"416 412 CURVE",
"328 91 LINE SMOOTH",
"324 78 OFFCURVE",
"321 61 OFFCURVE",
"321 46 CURVE SMOOTH",
"321 15 OFFCURVE",
"341 -12 OFFCURVE",
"381 -12 CURVE SMOOTH"
);
}
);
width = 568;
}
);
leftKerningGroup = m;
note = n;
rightKerningGroup = a.alt01;
unicode = 006E;
},
{
glyphname = o;
lastChange = "2019-02-03 18:41:26 +0000";
layers = (
{
layerId = "A1F39B41-468B-47E4-A64F-494FF9F69BAB";
paths = (
{
closed = 1;
nodes = (
"135 29 OFFCURVE",
"116 69 OFFCURVE",
"116 129 CURVE SMOOTH",
"116 145 OFFCURVE",
"118 160 OFFCURVE",
"123 187 CURVE SMOOTH",
"128 214 OFFCURVE",
"137 251 OFFCURVE",
"152 310 CURVE SMOOTH",
"164 358 OFFCURVE",
"182 403 OFFCURVE",
"207 435 CURVE SMOOTH",
"232 467 OFFCURVE",
"265 487 OFFCURVE",
"305 487 CURVE SMOOTH",
"361 487 OFFCURVE",
"380 447 OFFCURVE",
"380 387 CURVE SMOOTH",
"380 371 OFFCURVE",
"378 356 OFFCURVE",
"373 329 CURVE SMOOTH",
"368 302 OFFCURVE",
"359 265 OFFCURVE",
"344 206 CURVE SMOOTH",
"332 158 OFFCURVE",
"314 113 OFFCURVE",
"289 81 CURVE SMOOTH",
"264 49 OFFCURVE",
"231 29 OFFCURVE",
"191 29 CURVE SMOOTH"
);
},
{
closed = 1;
nodes = (
"275 -12 OFFCURVE",
"343 39 OFFCURVE",
"389 111 CURVE SMOOTH",
"435 182 OFFCURVE",
"459 272 OFFCURVE",
"459 348 CURVE SMOOTH",
"459 459 OFFCURVE",
"409 528 OFFCURVE",
"308 528 CURVE SMOOTH",
"221 528 OFFCURVE",
"154 477 OFFCURVE",
"108 406 CURVE SMOOTH",
"62 334 OFFCURVE",
"37 244 OFFCURVE",
"37 168 CURVE SMOOTH",
"37 57 OFFCURVE",
"87 -12 OFFCURVE",
"188 -12 CURVE SMOOTH"
);
}
);
width = 496;
}
);
leftKerningGroup = c;
note = o;
rightKerningGroup = o;
unicode = 006F;
},
{
glyphname = p;
lastChange = "2019-02-03 18:41:26 +0000";
layers = (
{
layerId = "A1F39B41-468B-47E4-A64F-494FF9F69BAB";
paths = (
{
closed = 1;
nodes = (
"161 -200 LINE",
"171 -159 LINE",
"79 -159 LINE",
"129 57 LINE",
"138 57 LINE",
"153 8 OFFCURVE",
"183 -12 OFFCURVE",
"236 -12 CURVE SMOOTH",
"289 -12 OFFCURVE",
"337 14 OFFCURVE",
"375 54 CURVE SMOOTH",
"413 94 OFFCURVE",
"443 149 OFFCURVE",
"463 208 CURVE SMOOTH",
"483 267 OFFCURVE",
"494 328 OFFCURVE",
"494 383 CURVE SMOOTH",
"494 476 OFFCURVE",
"464 528 OFFCURVE",
"396 528 CURVE SMOOTH",
"353 528 OFFCURVE",
"320 506 OFFCURVE",
"289 470 CURVE SMOOTH",
"258 434 OFFCURVE",
"232 382 OFFCURVE",
"205 325 CURVE",
"197 328 LINE",
"248 528 LINE",
"69 490 LINE",
"61 455 LINE",
"151 455 LINE",
"-2 -159 LINE",
"-74 -159 LINE",
"-84 -200 LINE"
);
},
{
closed = 1;
nodes = (
"156 39 OFFCURVE",
"135 86 OFFCURVE",
"154 150 CURVE SMOOTH",
"158 164 LINE SMOOTH",
"165 187 OFFCURVE",
"181 228 OFFCURVE",
"202 272 CURVE SMOOTH",
"223 316 OFFCURVE",
"251 365 OFFCURVE",
"280 402 CURVE SMOOTH",
"308 438 OFFCURVE",
"339 464 OFFCURVE",
"370 464 CURVE SMOOTH",
"402 464 OFFCURVE",
"410 435 OFFCURVE",
"410 383 CURVE SMOOTH",
"410 364 OFFCURVE",
"406 336 OFFCURVE",
"401 307 CURVE SMOOTH",
"396 278 OFFCURVE",
"389 248 OFFCURVE",
"384 227 CURVE SMOOTH",
"351 104 OFFCURVE",
"287 39 OFFCURVE",
"215 39 CURVE SMOOTH"
);
}
);
width = 533;
}
);
leftKerningGroup = p;
note = p;
rightKerningGroup = b;
unicode = 0070;
},
{
glyphname = q;
lastChange = "2019-02-03 18:41:26 +0000";
layers = (
{
layerId = "A1F39B41-468B-47E4-A64F-494FF9F69BAB";
paths = (
{
closed = 1;
nodes = (
"388 -200 LINE",
"398 -159 LINE",
"326 -159 LINE",
"495 516 LINE",
"453 516 LINE",
"413 445 LINE",
"405 445 LINE",
"388 501 OFFCURVE",
"357 528 OFFCURVE",
"297 528 CURVE SMOOTH",
"244 528 OFFCURVE",
"197 502 OFFCURVE",
"159 462 CURVE SMOOTH",
"121 422 OFFCURVE",
"90 367 OFFCURVE",
"70 308 CURVE SMOOTH",
"50 249 OFFCURVE",
"39 188 OFFCURVE",
"39 133 CURVE SMOOTH",
"39 40 OFFCURVE",
"68 -12 OFFCURVE",
"136 -12 CURVE SMOOTH",
"177 -12 OFFCURVE",
"211 9 OFFCURVE",
"243 45 CURVE SMOOTH",
"274 80 OFFCURVE",
"300 131 OFFCURVE",
"328 191 CURVE",
"336 188 LINE",
"246 -159 LINE",
"154 -159 LINE",
"144 -200 LINE"
);
},
{
closed = 1;
nodes = (
"131 52 OFFCURVE",
"123 81 OFFCURVE",
"123 133 CURVE SMOOTH",
"123 152 OFFCURVE",
"127 180 OFFCURVE",
"132 209 CURVE SMOOTH",
"137 238 OFFCURVE",
"144 268 OFFCURVE",
"149 289 CURVE SMOOTH",
"182 412 OFFCURVE",
"246 477 OFFCURVE",
"318 477 CURVE SMOOTH",
"377 477 OFFCURVE",
"398 430 OFFCURVE",
"379 366 CURVE SMOOTH",
"375 352 LINE SMOOTH",
"367 325 OFFCURVE",
"350 283 OFFCURVE",
"329 239 CURVE SMOOTH",
"308 195 OFFCURVE",
"280 148 OFFCURVE",
"252 112 CURVE SMOOTH",
"223 76 OFFCURVE",
"192 52 OFFCURVE",
"163 52 CURVE SMOOTH"
);
}
);
width = 518;
}
);
leftKerningGroup = a;
note = q;
rightKerningGroup = g.alt01;
unicode = 0071;
},
{
glyphname = r;
lastChange = "2019-02-03 18:41:26 +0000";
layers = (
{
layerId = "A1F39B41-468B-47E4-A64F-494FF9F69BAB";
paths = (
{
closed = 1;
nodes = (
"118 0 LINE",
"147 116 LINE SMOOTH",
"156 156 OFFCURVE",
"175 204 OFFCURVE",
"192 245 CURVE SMOOTH",
"209 286 OFFCURVE",
"226 322 OFFCURVE",
"235 341 CURVE SMOOTH",
"278 426 OFFCURVE",
"323 487 OFFCURVE",
"364 494 CURVE",
"370 488 LINE",
"359 479 OFFCURVE",
"350 461 OFFCURVE",
"350 444 CURVE SMOOTH",
"350 417 OFFCURVE",
"368 397 OFFCURVE",
"399 397 CURVE SMOOTH",
"436 397 OFFCURVE",
"461 428 OFFCURVE",
"461 463 CURVE SMOOTH",
"461 500 OFFCURVE",
"434 528 OFFCURVE",
"383 528 CURVE SMOOTH",
"343 528 OFFCURVE",
"311 510 OFFCURVE",
"283 476 CURVE SMOOTH",
"255 442 OFFCURVE",
"231 391 OFFCURVE",
"206 330 CURVE",
"198 333 LINE",
"247 528 LINE",
"69 490 LINE",
"61 455 LINE",
"151 455 LINE",
"38 0 LINE"
);
}
);
width = 437;
}
);
leftKerningGroup = m;
note = r;
rightKerningGroup = r;
unicode = 0072;
},
{
glyphname = s;
lastChange = "2019-02-03 18:41:26 +0000";
layers = (
{
layerId = "A1F39B41-468B-47E4-A64F-494FF9F69BAB";
paths = (
{
closed = 1;
nodes = (
"158 -12 OFFCURVE",
"206 4 OFFCURVE",
"239 32 CURVE SMOOTH",
"272 59 OFFCURVE",
"292 98 OFFCURVE",
"292 145 CURVE SMOOTH",
"292 198 OFFCURVE",
"268 229 OFFCURVE",
"241 260 CURVE SMOOTH",
"218 285 OFFCURVE",
"199 307 OFFCURVE",
"184 329 CURVE SMOOTH",
"169 351 OFFCURVE",
"161 374 OFFCURVE",
"161 403 CURVE SMOOTH",
"161 443 OFFCURVE",
"178 467 OFFCURVE",
"202 482 CURVE SMOOTH",
"225 497 OFFCURVE",
"255 501 OFFCURVE",
"279 501 CURVE",
"282 494 LINE",
"271 483 OFFCURVE",
"265 466 OFFCURVE",
"265 451 CURVE SMOOTH",
"265 420 OFFCURVE",
"284 405 OFFCURVE",
"311 405 CURVE SMOOTH",
"346 405 OFFCURVE",
"365 431 OFFCURVE",
"365 460 CURVE SMOOTH",
"365 497 OFFCURVE",
"335 528 OFFCURVE",
"263 528 CURVE SMOOTH",
"211 528 OFFCURVE",
"167 512 OFFCURVE",
"135 484 CURVE SMOOTH",
"103 456 OFFCURVE",
"85 417 OFFCURVE",
"85 370 CURVE SMOOTH",
"85 343 OFFCURVE",
"90 321 OFFCURVE",
"101 304 CURVE",
"121 269 OFFCURVE",
"148 240 OFFCURVE",
"168 219 CURVE",
"177 208 OFFCURVE",
"186 198 OFFCURVE",
"193 187 CURVE SMOOTH",
"208 165 OFFCURVE",
"216 141 OFFCURVE",
"216 112 CURVE SMOOTH",
"216 72 OFFCURVE",
"197 48 OFFCURVE",
"171 34 CURVE SMOOTH",
"145 20 OFFCURVE",
"112 15 OFFCURVE",
"87 15 CURVE",
"84 22 LINE",
"95 33 OFFCURVE",
"101 50 OFFCURVE",
"101 65 CURVE SMOOTH",
"101 96 OFFCURVE",
"82 111 OFFCURVE",
"55 111 CURVE SMOOTH",
"20 111 OFFCURVE",
"1 85 OFFCURVE",
"1 56 CURVE SMOOTH",
"1 17 OFFCURVE",
"32 -12 OFFCURVE",
"105 -12 CURVE SMOOTH"
);
}
);
width = 370;
}
);
leftKerningGroup = s;
note = s;
rightKerningGroup = s;
unicode = 0073;
},
{
glyphname = t;
lastChange = "2019-02-03 18:41:26 +0000";
layers = (
{
layerId = "A1F39B41-468B-47E4-A64F-494FF9F69BAB";
paths = (
{
closed = 1;
nodes = (
"130 -12 OFFCURVE",
"141 -10 OFFCURVE",
"156 -2 CURVE",
"171 5 OFFCURVE",
"188 18 OFFCURVE",
"216 42 CURVE SMOOTH",
"317 127 LINE",
"295 151 LINE",
"151 45 LINE",
"135 54 LINE",
"239 471 LINE",
"369 471 LINE",
"380 516 LINE",
"250 516 LINE",
"284 650 LINE",
"238 650 LINE",
"192 560 LINE SMOOTH",
"176 529 OFFCURVE",
"164 516 OFFCURVE",
"125 516 CURVE SMOOTH",
"80 516 LINE",
"69 471 LINE",
"159 471 LINE",
"64 91 LINE",
"63 85 OFFCURVE",
"61 78 OFFCURVE",
"59 70 CURVE SMOOTH",
"57 61 OFFCURVE",
"56 53 OFFCURVE",
"56 46 CURVE SMOOTH",
"56 15 OFFCURVE",
"75 -12 OFFCURVE",
"115 -12 CURVE SMOOTH"
);
}
);
width = 355;
}
);
leftKerningGroup = t;
note = t;
rightKerningGroup = t;
unicode = 0074;
},
{
glyphname = u;
lastChange = "2019-02-03 18:41:26 +0000";
layers = (
{
layerId = "A1F39B41-468B-47E4-A64F-494FF9F69BAB";
paths = (
{
closed = 1;
nodes = (
"187 -12 OFFCURVE",
"226 14 OFFCURVE",
"261 54 CURVE SMOOTH",
"296 93 OFFCURVE",
"325 144 OFFCURVE",
"353 196 CURVE",
"361 193 LINE",
"336 94 LINE SMOOTH",
"333 82 OFFCURVE",
"328 59 OFFCURVE",
"328 44 CURVE SMOOTH",
"328 13 OFFCURVE",
"345 -12 OFFCURVE",
"385 -12 CURVE SMOOTH",
"399 -12 OFFCURVE",
"414 -7 OFFCURVE",
"429 2 CURVE SMOOTH",
"444 11 OFFCURVE",
"464 30 OFFCURVE",
"487 58 CURVE SMOOTH",
"558 141 LINE",
"534 160 LINE",
"419 45 LINE",
"401 53 LINE",
"518 516 LINE",
"438 516 LINE",
"400 364 LINE SMOOTH",
"380 284 OFFCURVE",
"339 206 OFFCURVE",
"294 148 CURVE SMOOTH",
"249 90 OFFCURVE",
"201 52 OFFCURVE",
"165 52 CURVE SMOOTH",
"146 52 OFFCURVE",
"137 62 OFFCURVE",
"137 81 CURVE SMOOTH",
"137 88 OFFCURVE",
"138 96 OFFCURVE",
"140 104 CURVE SMOOTH",
"256 528 LINE",
"72 490 LINE",
"64 455 LINE",
"154 455 LINE",
"65 122 LINE SMOOTH",
"60 103 OFFCURVE",
"57 86 OFFCURVE",
"57 71 CURVE SMOOTH",
"57 23 OFFCURVE",
"82 -12 OFFCURVE",
"138 -12 CURVE SMOOTH"
);
}
);
width = 567;
}
);
leftKerningGroup = u;
note = u;
rightKerningGroup = a;
unicode = 0075;
},
{
glyphname = v;
lastChange = "2019-02-03 18:41:26 +0000";
layers = (
{
layerId = "A1F39B41-468B-47E4-A64F-494FF9F69BAB";
paths = (
{
closed = 1;
nodes = (
"188 0 LINE",
"472 475 LINE",
"514 475 LINE",
"525 516 LINE",
"363 516 LINE",
"353 475 LINE",
"415 475 LINE",
"203 97 LINE",
"195 97 LINE",
"170 475 LINE",
"232 475 LINE",
"242 516 LINE",
"54 516 LINE",
"44 475 LINE",
"89 475 LINE",
"128 0 LINE"
);
}
);
width = 453;
}
);
leftKerningGroup = v;
note = v;
rightKerningGroup = v;
unicode = 0076;
},
{
glyphname = w;
lastChange = "2019-02-03 18:41:26 +0000";
layers = (
{
layerId = "A1F39B41-468B-47E4-A64F-494FF9F69BAB";
paths = (
{
closed = 1;
nodes = (
"170 0 LINE",
"383 406 LINE",
"391 406 LINE",
"387 0 LINE",
"447 0 LINE",
"710 475 LINE",
"752 475 LINE",
"762 516 LINE",
"602 516 LINE",
"592 475 LINE",
"655 475 LINE",
"462 102 LINE",
"454 102 LINE",
"461 516 LINE",
"399 516 LINE",
"181 102 LINE",
"174 102 LINE",
"185 475 LINE",
"248 475 LINE",
"258 516 LINE",
"73 516 LINE",
"63 475 LINE",
"108 475 LINE",
"105 0 LINE"
);
}
);
width = 697;
}
);
leftKerningGroup = w;
note = w;
rightKerningGroup = w;
unicode = 0077;
},
{
glyphname = x;
lastChange = "2019-02-03 18:41:26 +0000";
layers = (
{
layerId = "A1F39B41-468B-47E4-A64F-494FF9F69BAB";
paths = (
{
closed = 1;
nodes = (
"123 -12 OFFCURVE",
"164 18 OFFCURVE",
"199 70 CURVE SMOOTH",
"224 107 OFFCURVE",
"243 156 OFFCURVE",
"259 196 CURVE",
"267 196 LINE",
"298 30 LINE SMOOTH",
"302 6 OFFCURVE",
"321 -12 OFFCURVE",
"350 -12 CURVE SMOOTH",
"363 -12 OFFCURVE",
"376 -9 OFFCURVE",
"391 3 CURVE",
"406 14 OFFCURVE",
"423 31 OFFCURVE",
"446 59 CURVE SMOOTH",
"502 123 LINE",
"480 143 LINE",
"389 52 LINE",
"373 56 LINE",
"322 267 LINE",
"373 399 OFFCURVE",
"428 485 OFFCURVE",
"479 496 CURVE",
"484 491 LINE",
"473 482 OFFCURVE",
"466 465 OFFCURVE",
"466 446 CURVE SMOOTH",
"466 419 OFFCURVE",
"483 400 OFFCURVE",
"514 400 CURVE SMOOTH",
"550 400 OFFCURVE",
"575 430 OFFCURVE",
"575 466 CURVE SMOOTH",
"575 502 OFFCURVE",
"547 528 OFFCURVE",
"495 528 CURVE SMOOTH",
"447 528 OFFCURVE",
"406 498 OFFCURVE",
"371 446 CURVE SMOOTH",
"346 409 OFFCURVE",
"327 360 OFFCURVE",
"311 320 CURVE",
"303 320 LINE",
"272 486 LINE SMOOTH",
"267 510 OFFCURVE",
"251 528 OFFCURVE",
"220 528 CURVE SMOOTH",
"207 528 OFFCURVE",
"193 523 OFFCURVE",
"180 513 CURVE SMOOTH",
"167 503 OFFCURVE",
"148 484 OFFCURVE",
"124 457 CURVE SMOOTH",
"68 393 LINE",
"90 373 LINE",
"181 464 LINE",
"197 460 LINE",
"248 248 LINE",
"197 116 OFFCURVE",
"142 31 OFFCURVE",
"91 20 CURVE",
"86 25 LINE",
"97 34 OFFCURVE",
"104 51 OFFCURVE",
"104 70 CURVE SMOOTH",
"104 97 OFFCURVE",
"87 116 OFFCURVE",
"56 116 CURVE SMOOTH",
"20 116 OFFCURVE",
"-5 86 OFFCURVE",
"-5 50 CURVE SMOOTH",
"-5 14 OFFCURVE",
"23 -12 OFFCURVE",
"75 -12 CURVE SMOOTH"
);
}
);
width = 570;
}
);
leftKerningGroup = x;
note = x;
rightKerningGroup = x;
unicode = 0078;
},
{
glyphname = y;
lastChange = "2019-02-03 18:41:26 +0000";
layers = (
{
layerId = "A1F39B41-468B-47E4-A64F-494FF9F69BAB";
paths = (
{
closed = 1;
nodes = (
"31 -212 OFFCURVE",
"90 -176 OFFCURVE",
"151 -72 CURVE SMOOTH",
"473 475 LINE",
"515 475 LINE",
"525 516 LINE",
"366 516 LINE",
"356 475 LINE",
"418 475 LINE",
"206 93 LINE",
"198 93 LINE",
"173 475 LINE",
"235 475 LINE",
"245 516 LINE",
"57 516 LINE",
"47 475 LINE",
"92 475 LINE",
"133 -22 LINE",
"84 -118 OFFCURVE",
"42 -160 OFFCURVE",
"-2 -180 CURVE",
"-9 -175 LINE",
"2 -166 OFFCURVE",
"10 -148 OFFCURVE",
"10 -131 CURVE SMOOTH",
"10 -104 OFFCURVE",
"-7 -84 OFFCURVE",
"-38 -84 CURVE SMOOTH",
"-74 -84 OFFCURVE",
"-100 -114 OFFCURVE",
"-100 -150 CURVE SMOOTH",
"-100 -186 OFFCURVE",
"-69 -212 OFFCURVE",
"-20 -212 CURVE SMOOTH"
);
}
);
width = 453;
}
);
leftKerningGroup = y;
note = y;
rightKerningGroup = y;
unicode = 0079;
},
{
glyphname = z;
lastChange = "2019-02-03 18:41:26 +0000";
layers = (
{
layerId = "A1F39B41-468B-47E4-A64F-494FF9F69BAB";
paths = (
{
closed = 1;
nodes = (
"350 -12 OFFCURVE",
"370 3 OFFCURVE",
"382 54 CURVE SMOOTH",
"411 177 LINE",
"381 183 LINE",
"343 68 LINE",
"328 59 LINE",
"86 100 LINE",
"413 418 LINE SMOOTH",
"436 441 OFFCURVE",
"445 449 OFFCURVE",
"452 480 CURVE SMOOTH",
"461 516 LINE",
"416 516 LINE",
"403 465 LINE",
"372 475 OFFCURVE",
"345 484 OFFCURVE",
"322 492 CURVE SMOOTH",
"299 500 OFFCURVE",
"279 507 OFFCURVE",
"261 512 CURVE SMOOTH",
"225 523 OFFCURVE",
"198 528 OFFCURVE",
"173 528 CURVE SMOOTH",
"122 528 OFFCURVE",
"102 513 OFFCURVE",
"90 462 CURVE SMOOTH",
"61 339 LINE",
"91 333 LINE",
"129 448 LINE",
"144 457 LINE",
"353 417 LINE",
"28 98 LINE SMOOTH",
"5 75 OFFCURVE",
"-4 67 OFFCURVE",
"-11 36 CURVE SMOOTH",
"-20 0 LINE",
"25 0 LINE",
"38 51 LINE",
"107 28 OFFCURVE",
"158 13 OFFCURVE",
"199 3 CURVE SMOOTH",
"239 -7 OFFCURVE",
"270 -12 OFFCURVE",
"299 -12 CURVE SMOOTH"
);
}
);
width = 453;
}
);
leftKerningGroup = z;
note = z;
rightKerningGroup = z;
unicode = 007A;
},
{
glyphname = A;
lastChange = "2019-02-03 18:41:26 +0000";
layers = (
{
layerId = "A1F39B41-468B-47E4-A64F-494FF9F69BAB";
paths = (
{
closed = 1;
nodes = (
"137 0 LINE",
"147 41 LINE",
"70 41 LINE",
"176 231 LINE",
"425 231 LINE",
"438 41 LINE",
"362 41 LINE",
"352 0 LINE",
"563 0 LINE",
"573 41 LINE",
"521 41 LINE",
"472 698 LINE",
"388 698 LINE",
"7 41 LINE",
"-45 41 LINE",
"-55 0 LINE"
);
},
{
closed = 1;
nodes = (
"400 618 LINE",
"423 274 LINE",
"199 274 LINE",
"394 618 LINE"
);
}
);
width = 638;
}
);
leftKerningGroup = A;
note = A;
rightKerningGroup = A;
unicode = 0041;
},
{
glyphname = B;
lastChange = "2019-02-03 18:41:26 +0000";
layers = (
{
layerId = "A1F39B41-468B-47E4-A64F-494FF9F69BAB";
paths = (
{
closed = 1;
nodes = (
"331 0 LINE SMOOTH",
"394 0 OFFCURVE",
"447 30 OFFCURVE",
"486 72 CURVE SMOOTH",
"525 114 OFFCURVE",
"548 169 OFFCURVE",
"548 224 CURVE SMOOTH",
"548 293 OFFCURVE",
"509 341 OFFCURVE",
"440 360 CURVE",
"442 365 LINE",
"542 392 OFFCURVE",
"605 469 OFFCURVE",
"605 564 CURVE SMOOTH",
"605 653 OFFCURVE",
"550 698 OFFCURVE",
"457 698 CURVE SMOOTH",
"152 698 LINE",
"142 657 LINE",
"213 657 LINE",
"60 41 LINE",
"-11 41 LINE",
"-21 0 LINE"
);
},
{
closed = 1;
nodes = (
"373 338 LINE SMOOTH",
"433 338 OFFCURVE",
"463 303 OFFCURVE",
"463 248 CURVE SMOOTH",
"463 225 OFFCURVE",
"454 188 OFFCURVE",
"447 168 CURVE",
"427 95 OFFCURVE",
"373 45 OFFCURVE",
"300 45 CURVE SMOOTH",
"146 45 LINE",
"219 338 LINE"
);
},
{
closed = 1;
nodes = (
"438 653 LINE SMOOTH",
"498 653 OFFCURVE",
"521 617 OFFCURVE",
"521 574 CURVE SMOOTH",
"521 551 OFFCURVE",
"511 516 OFFCURVE",
"506 497 CURVE SMOOTH",
"490 432 OFFCURVE",
"437 383 OFFCURVE",
"370 383 CURVE SMOOTH",
"230 383 LINE",
"297 653 LINE"
);
}
);
width = 617;
}
);
leftKerningGroup = B;
note = B;
rightKerningGroup = B;
unicode = 0042;
},
{
glyphname = C;
lastChange = "2019-02-03 18:41:26 +0000";
layers = (
{
layerId = "A1F39B41-468B-47E4-A64F-494FF9F69BAB";
paths = (
{
closed = 1;
nodes = (
"327 -12 OFFCURVE",
"384 11 OFFCURVE",
"429 44 CURVE SMOOTH",
"474 76 OFFCURVE",
"508 118 OFFCURVE",
"528 157 CURVE",
"494 179 LINE",
"447 103 OFFCURVE",
"376 46 OFFCURVE",
"285 46 CURVE SMOOTH",
"188 46 OFFCURVE",
"140 107 OFFCURVE",
"140 204 CURVE SMOOTH",
"140 228 OFFCURVE",
"143 249 OFFCURVE",
"149 279 CURVE SMOOTH",
"155 309 OFFCURVE",
"163 347 OFFCURVE",
"178 406 CURVE SMOOTH",
"194 470 OFFCURVE",
"223 534 OFFCURVE",
"265 582 CURVE SMOOTH",
"307 630 OFFCURVE",
"360 661 OFFCURVE",
"428 661 CURVE SMOOTH",
"500 661 OFFCURVE",
"546 627 OFFCURVE",
"546 574 CURVE SMOOTH",
"546 566 OFFCURVE",
"545 558 OFFCURVE",
"543 550 CURVE SMOOTH",
"529 494 LINE",
"596 494 LINE",
"647 698 LINE",
"580 698 LINE",
"563 634 LINE",
"558 634 LINE",
"545 677 OFFCURVE",
"495 710 OFFCURVE",
"416 710 CURVE SMOOTH",
"336 710 OFFCURVE",
"269 677 OFFCURVE",
"216 626 CURVE SMOOTH",
"163 575 OFFCURVE",
"122 506 OFFCURVE",
"95 434 CURVE SMOOTH",
"68 361 OFFCURVE",
"55 284 OFFCURVE",
"55 220 CURVE SMOOTH",
"55 68 OFFCURVE",
"132 -12 OFFCURVE",
"260 -12 CURVE SMOOTH"
);
}
);
width = 591;
}
);
leftKerningGroup = C;
note = C;
rightKerningGroup = C;
unicode = 0043;
},
{
glyphname = D;
lastChange = "2019-02-03 18:41:26 +0000";
layers = (
{
layerId = "A1F39B41-468B-47E4-A64F-494FF9F69BAB";
paths = (
{
closed = 1;
nodes = (
"266 0 LINE SMOOTH",
"369 0 OFFCURVE",
"446 37 OFFCURVE",
"502 92 CURVE SMOOTH",
"558 147 OFFCURVE",
"595 220 OFFCURVE",
"617 289 CURVE SMOOTH",
"639 357 OFFCURVE",
"647 423 OFFCURVE",
"647 466 CURVE SMOOTH",
"647 543 OFFCURVE",
"624 601 OFFCURVE",
"584 640 CURVE SMOOTH",
"544 679 OFFCURVE",
"487 698 OFFCURVE",
"419 698 CURVE SMOOTH",
"152 698 LINE",
"142 657 LINE",
"213 657 LINE",
"60 41 LINE",
"-11 41 LINE",
"-21 0 LINE"
);
},
{
closed = 1;
nodes = (
"407 653 LINE SMOOTH",
"511 653 OFFCURVE",
"562 588 OFFCURVE",
"562 489 CURVE SMOOTH",
"562 466 OFFCURVE",
"560 444 OFFCURVE",
"554 416 CURVE SMOOTH",
"548 387 OFFCURVE",
"538 349 OFFCURVE",
"525 294 CURVE SMOOTH",
"506 222 OFFCURVE",
"472 160 OFFCURVE",
"426 116 CURVE SMOOTH",
"380 71 OFFCURVE",
"322 45 OFFCURVE",
"259 45 CURVE SMOOTH",
"146 45 LINE",
"297 653 LINE"
);
}
);
width = 664;
}
);
leftKerningGroup = B;
note = D;
rightKerningGroup = D;
unicode = 0044;
},
{
glyphname = E;
lastChange = "2019-02-03 18:41:26 +0000";
layers = (
{
layerId = "A1F39B41-468B-47E4-A64F-494FF9F69BAB";
paths = (
{
closed = 1;
nodes = (
"474 0 LINE",
"518 177 LINE",
"450 177 LINE",
"417 45 LINE",
"146 45 LINE",
"219 337 LINE",
"405 337 LINE",
"384 255 LINE",
"435 255 LINE",
"488 465 LINE",
"437 465 LINE",
"416 382 LINE",
"230 382 LINE",
"297 653 LINE",
"558 653 LINE",
"528 530 LINE",
"596 530 LINE",
"638 698 LINE",
"152 698 LINE",
"142 657 LINE",
"213 657 LINE",
"60 41 LINE",
"-11 41 LINE",
"-21 0 LINE"
);
}
);
width = 591;
}
);
leftKerningGroup = B;
note = E;
rightKerningGroup = E;
unicode = 0045;
},
{
glyphname = F;
lastChange = "2019-02-03 18:41:26 +0000";
layers = (
{
layerId = "A1F39B41-468B-47E4-A64F-494FF9F69BAB";
paths = (
{
closed = 1;
nodes = (
"226 0 LINE",
"236 41 LINE",
"145 41 LINE",
"215 323 LINE",
"402 323 LINE",
"381 241 LINE",
"432 241 LINE",
"485 451 LINE",
"434 451 LINE",
"413 368 LINE",
"227 368 LINE",
"297 653 LINE",
"558 653 LINE",
"528 530 LINE",
"596 530 LINE",
"638 698 LINE",
"152 698 LINE",
"142 657 LINE",
"213 657 LINE",
"60 41 LINE",
"-11 41 LINE",
"-21 0 LINE"
);
}
);
width = 567;
}
);
leftKerningGroup = B;
note = F;
rightKerningGroup = F;
unicode = 0046;
},
{
glyphname = G;
lastChange = "2019-02-03 18:41:26 +0000";
layers = (
{
layerId = "A1F39B41-468B-47E4-A64F-494FF9F69BAB";
paths = (
{
closed = 1;
nodes = (
"308 -12 OFFCURVE",
"348 0 OFFCURVE",
"381 20 CURVE SMOOTH",
"413 39 OFFCURVE",
"437 64 OFFCURVE",
"453 89 CURVE",
"459 89 LINE",
"480 0 LINE",
"512 0 LINE",
"584 295 LINE",
"643 295 LINE",
"653 336 LINE",
"396 336 LINE",
"386 295 LINE",
"500 295 LINE",
"475 195 LINE SMOOTH",
"450 95 OFFCURVE",
"369 41 OFFCURVE",
"276 41 CURVE SMOOTH",
"188 41 OFFCURVE",
"140 107 OFFCURVE",
"140 204 CURVE SMOOTH",
"140 228 OFFCURVE",
"143 249 OFFCURVE",
"149 278 CURVE SMOOTH",
"155 307 OFFCURVE",
"164 345 OFFCURVE",
"177 401 CURVE SMOOTH",
"193 469 OFFCURVE",
"223 534 OFFCURVE",
"267 582 CURVE SMOOTH",
"311 630 OFFCURVE",
"367 661 OFFCURVE",
"438 661 CURVE SMOOTH",
"518 661 OFFCURVE",
"574 627 OFFCURVE",
"574 574 CURVE SMOOTH",
"574 566 OFFCURVE",
"573 558 OFFCURVE",
"571 550 CURVE SMOOTH",
"557 494 LINE",
"624 494 LINE",
"675 698 LINE",
"608 698 LINE",
"591 634 LINE",
"586 634 LINE",
"574 678 OFFCURVE",
"513 710 OFFCURVE",
"425 710 CURVE SMOOTH",
"342 710 OFFCURVE",
"274 677 OFFCURVE",
"219 626 CURVE SMOOTH",
"164 575 OFFCURVE",
"123 506 OFFCURVE",
"96 434 CURVE SMOOTH",
"68 361 OFFCURVE",
"55 284 OFFCURVE",
"55 220 CURVE SMOOTH",
"55 68 OFFCURVE",
"131 -12 OFFCURVE",
"260 -12 CURVE SMOOTH"
);
}
);
width = 679;
}
);
leftKerningGroup = C;
note = G;
rightKerningGroup = G;
unicode = 0047;
},
{
glyphname = H;
lastChange = "2019-02-03 18:41:26 +0000";
layers = (
{
layerId = "A1F39B41-468B-47E4-A64F-494FF9F69BAB";
paths = (
{
closed = 1;
nodes = (
"206 0 LINE",
"216 41 LINE",
"145 41 LINE",
"218 333 LINE",
"541 333 LINE",
"469 41 LINE",
"398 41 LINE",
"388 0 LINE",
"615 0 LINE",
"625 41 LINE",
"554 41 LINE",
"707 657 LINE",
"778 657 LINE",
"788 698 LINE",
"561 698 LINE",
"551 657 LINE",
"622 657 LINE",
"553 378 LINE",
"229 378 LINE",
"298 657 LINE",
"369 657 LINE",
"379 698 LINE",
"152 698 LINE",
"142 657 LINE",
"213 657 LINE",
"60 41 LINE",
"-11 41 LINE",
"-21 0 LINE"
);
}
);
width = 723;
}
);
leftKerningGroup = B;
note = H;
unicode = 0048;
},
{
glyphname = I;
lastChange = "2019-02-03 18:41:26 +0000";
layers = (
{
layerId = "A1F39B41-468B-47E4-A64F-494FF9F69BAB";
paths = (
{
closed = 1;
nodes = (
"206 0 LINE",
"216 41 LINE",
"145 41 LINE",
"298 657 LINE",
"369 657 LINE",
"379 698 LINE",
"152 698 LINE",
"142 657 LINE",
"213 657 LINE",
"60 41 LINE",
"-11 41 LINE",
"-21 0 LINE"
);
}
);
width = 314;
}
);
leftKerningGroup = B;
note = I;
unicode = 0049;
},
{
glyphname = J;
lastChange = "2019-02-03 18:41:26 +0000";
layers = (
{
layerId = "A1F39B41-468B-47E4-A64F-494FF9F69BAB";
paths = (
{
closed = 1;
nodes = (
"204 -12 OFFCURVE",
"276 35 OFFCURVE",
"303 146 CURVE SMOOTH",
"430 657 LINE",
"501 657 LINE",
"511 698 LINE",
"264 698 LINE",
"254 657 LINE",
"345 657 LINE",
"219 152 LINE SMOOTH",
"199 69 OFFCURVE",
"160 29 OFFCURVE",
"95 29 CURVE SMOOTH",
"79 29 OFFCURVE",
"66 33 OFFCURVE",
"59 36 CURVE",
"59 39 LINE",
"86 52 OFFCURVE",
"92 75 OFFCURVE",
"92 90 CURVE SMOOTH",
"92 119 OFFCURVE",
"71 142 OFFCURVE",
"38 142 CURVE SMOOTH",
"1 142 OFFCURVE",
"-22 114 OFFCURVE",
"-22 75 CURVE SMOOTH",
"-22 52 OFFCURVE",
"-14 30 OFFCURVE",
"6 14 CURVE SMOOTH",
"26 -2 OFFCURVE",
"56 -12 OFFCURVE",
"103 -12 CURVE SMOOTH"
);
}
);
width = 436;
}
);
leftKerningGroup = J;
note = J;
rightKerningGroup = J;
unicode = 004A;
},
{
glyphname = K;
lastChange = "2019-02-03 18:41:26 +0000";
layers = (
{
layerId = "A1F39B41-468B-47E4-A64F-494FF9F69BAB";
paths = (
{
closed = 1;
nodes = (
"206 0 LINE",
"216 41 LINE",
"145 41 LINE",
"195 244 LINE",
"323 362 LINE",
"437 41 LINE",
"366 41 LINE",
"356 0 LINE",
"578 0 LINE",
"588 41 LINE",
"528 41 LINE",
"388 414 LINE",
"651 657 LINE",
"711 657 LINE",
"721 698 LINE",
"515 698 LINE",
"505 657 LINE",
"586 657 LINE",
"323 414 LINE",
"219 317 LINE",
"213 317 LINE",
"298 657 LINE",
"369 657 LINE",
"379 698 LINE",
"152 698 LINE",
"142 657 LINE",
"213 657 LINE",
"60 41 LINE",
"-11 41 LINE",
"-21 0 LINE"
);
}
);
width = 661;
}
);
leftKerningGroup = B;
note = K;
rightKerningGroup = K;
unicode = 004B;
},
{
glyphname = L;
lastChange = "2019-02-03 18:41:26 +0000";
layers = (
{
layerId = "A1F39B41-468B-47E4-A64F-494FF9F69BAB";
paths = (
{
closed = 1;
nodes = (
"446 0 LINE",
"490 177 LINE",
"422 177 LINE",
"389 45 LINE",
"146 45 LINE",
"298 657 LINE",
"369 657 LINE",
"379 698 LINE",
"152 698 LINE",
"142 657 LINE",
"213 657 LINE",
"60 41 LINE",
"-11 41 LINE",
"-21 0 LINE"
);
}
);
width = 547;
}
);
leftKerningGroup = B;
note = L;
rightKerningGroup = L;
unicode = 004C;
},
{
glyphname = M;
lastChange = "2019-02-03 18:41:26 +0000";
layers = (
{
layerId = "A1F39B41-468B-47E4-A64F-494FF9F69BAB";
paths = (
{
closed = 1;
nodes = (
"172 0 LINE",
"183 41 LINE",
"112 41 LINE",
"252 601 LINE",
"258 601 LINE",
"285 456 LINE",
"347 117 LINE",
"578 455 LINE",
"680 602 LINE",
"685 602 LINE",
"545 41 LINE",
"474 41 LINE",
"464 0 LINE",
"691 0 LINE",
"701 41 LINE",
"630 41 LINE",
"784 657 LINE",
"855 657 LINE",
"865 698 LINE",
"686 698 LINE",
"396 272 LINE",
"390 272 LINE",
"317 698 LINE",
"152 698 LINE",
"142 657 LINE",
"213 657 LINE",
"60 41 LINE",
"-11 41 LINE",
"-21 0 LINE"
);
}
);
width = 800;
}
);
leftKerningGroup = B;
note = M;
unicode = 004D;
},
{
glyphname = N;
lastChange = "2019-02-03 18:41:26 +0000";
layers = (
{
layerId = "A1F39B41-468B-47E4-A64F-494FF9F69BAB";
paths = (
{
closed = 1;
nodes = (
"173 0 LINE",
"183 41 LINE",
"112 41 LINE",
"253 606 LINE",
"259 606 LINE",
"486 0 LINE",
"544 0 LINE",
"709 657 LINE",
"780 657 LINE",
"790 698 LINE",
"596 698 LINE",
"586 657 LINE",
"657 657 LINE",
"526 137 LINE",
"520 137 LINE",
"312 698 LINE",
"152 698 LINE",
"142 657 LINE",
"213 657 LINE",
"60 41 LINE",
"-11 41 LINE",
"-21 0 LINE"
);
}
);
width = 711;
}
);
leftKerningGroup = B;
note = N;
rightKerningGroup = N;
unicode = 004E;
},
{
glyphname = O;
lastChange = "2019-02-03 18:41:26 +0000";
layers = (
{
layerId = "A1F39B41-468B-47E4-A64F-494FF9F69BAB";
paths = (
{
closed = 1;
nodes = (
"235 37 OFFCURVE",
"199 54 OFFCURVE",
"175 83 CURVE SMOOTH",
"151 111 OFFCURVE",
"141 151 OFFCURVE",
"141 196 CURVE SMOOTH",
"141 223 OFFCURVE",
"144 248 OFFCURVE",
"150 280 CURVE SMOOTH",
"156 311 OFFCURVE",
"164 348 OFFCURVE",
"176 397 CURVE SMOOTH",
"193 470 OFFCURVE",
"225 537 OFFCURVE",
"267 585 CURVE SMOOTH",
"309 632 OFFCURVE",
"362 661 OFFCURVE",
"426 661 CURVE SMOOTH",
"479 661 OFFCURVE",
"517 644 OFFCURVE",
"541 616 CURVE SMOOTH",
"565 587 OFFCURVE",
"575 547 OFFCURVE",
"575 502 CURVE SMOOTH",
"575 475 OFFCURVE",
"573 450 OFFCURVE",
"567 419 CURVE SMOOTH",
"561 387 OFFCURVE",
"552 350 OFFCURVE",
"540 301 CURVE SMOOTH",
"521 226 OFFCURVE",
"492 161 OFFCURVE",
"450 114 CURVE SMOOTH",
"408 66 OFFCURVE",
"354 37 OFFCURVE",
"290 37 CURVE SMOOTH"
);
},
{
closed = 1;
nodes = (
"372 -12 OFFCURVE",
"446 24 OFFCURVE",
"502 77 CURVE SMOOTH",
"558 130 OFFCURVE",
"598 201 OFFCURVE",
"623 272 CURVE SMOOTH",
"648 343 OFFCURVE",
"660 413 OFFCURVE",
"660 465 CURVE SMOOTH",
"660 618 OFFCURVE",
"577 710 OFFCURVE",
"436 710 CURVE SMOOTH",
"343 710 OFFCURVE",
"270 674 OFFCURVE",
"214 621 CURVE SMOOTH",
"158 568 OFFCURVE",
"118 497 OFFCURVE",
"93 426 CURVE SMOOTH",
"68 355 OFFCURVE",
"56 285 OFFCURVE",
"56 233 CURVE SMOOTH",
"56 80 OFFCURVE",
"139 -12 OFFCURVE",
"280 -12 CURVE SMOOTH"
);
}
);
width = 674;
}
);
leftKerningGroup = C;
note = O;
rightKerningGroup = O;
unicode = 004F;
},
{
glyphname = P;
lastChange = "2019-02-03 18:41:26 +0000";
layers = (
{
layerId = "A1F39B41-468B-47E4-A64F-494FF9F69BAB";
paths = (
{
closed = 1;
nodes = (
"226 0 LINE",
"236 41 LINE",
"145 41 LINE",
"216 324 LINE",
"367 324 LINE SMOOTH",
"435 324 OFFCURVE",
"484 343 OFFCURVE",
"520 372 CURVE SMOOTH",
"555 400 OFFCURVE",
"576 437 OFFCURVE",
"589 473 CURVE SMOOTH",
"601 509 OFFCURVE",
"605 543 OFFCURVE",
"605 566 CURVE SMOOTH",
"605 650 OFFCURVE",
"549 698 OFFCURVE",
"453 698 CURVE SMOOTH",
"152 698 LINE",
"142 657 LINE",
"213 657 LINE",
"60 41 LINE",
"-11 41 LINE",
"-21 0 LINE"
);
},
{
closed = 1;
nodes = (
"442 653 LINE SMOOTH",
"497 653 OFFCURVE",
"522 619 OFFCURVE",
"522 571 CURVE SMOOTH",
"522 558 OFFCURVE",
"520 543 OFFCURVE",
"516 526 CURVE",
"511 509 OFFCURVE",
"508 496 OFFCURVE",
"506 487 CURVE SMOOTH",
"489 419 OFFCURVE",
"437 369 OFFCURVE",
"369 369 CURVE SMOOTH",
"227 369 LINE",
"297 653 LINE"
);
}
);
width = 583;
}
);
leftKerningGroup = B;
note = P;
rightKerningGroup = P;
unicode = 0050;
},
{
glyphname = Q;
lastChange = "2019-02-03 18:41:26 +0000";
layers = (
{
layerId = "A1F39B41-468B-47E4-A64F-494FF9F69BAB";
paths = (
{
closed = 1;
nodes = (
"493 -131 LINE",
"475 -131 LINE SMOOTH",
"432 -131 OFFCURVE",
"412 -115 OFFCURVE",
"389 -84 CURVE SMOOTH",
"332 -8 LINE",
"412 4 OFFCURVE",
"475 45 OFFCURVE",
"524 99 CURVE SMOOTH",
"572 153 OFFCURVE",
"607 221 OFFCURVE",
"629 287 CURVE SMOOTH",
"651 353 OFFCURVE",
"660 417 OFFCURVE",
"660 465 CURVE SMOOTH",
"660 618 OFFCURVE",
"577 710 OFFCURVE",
"436 710 CURVE SMOOTH",
"343 710 OFFCURVE",
"270 674 OFFCURVE",
"214 621 CURVE SMOOTH",
"158 568 OFFCURVE",
"118 497 OFFCURVE",
"93 426 CURVE SMOOTH",
"68 355 OFFCURVE",
"56 285 OFFCURVE",
"56 233 CURVE SMOOTH",
"56 92 OFFCURVE",
"127 2 OFFCURVE",
"250 -11 CURVE",
"307 -110 LINE SMOOTH",
"330 -151 OFFCURVE",
"360 -173 OFFCURVE",
"428 -173 CURVE SMOOTH",
"482 -173 LINE"
);
},
{
closed = 1;
nodes = (
"235 37 OFFCURVE",
"199 54 OFFCURVE",
"175 83 CURVE SMOOTH",
"151 111 OFFCURVE",
"141 151 OFFCURVE",
"141 196 CURVE SMOOTH",
"141 223 OFFCURVE",
"144 248 OFFCURVE",
"150 280 CURVE SMOOTH",
"156 311 OFFCURVE",
"164 348 OFFCURVE",
"176 397 CURVE SMOOTH",
"193 470 OFFCURVE",
"225 537 OFFCURVE",
"267 585 CURVE SMOOTH",
"309 632 OFFCURVE",
"362 661 OFFCURVE",
"426 661 CURVE SMOOTH",
"479 661 OFFCURVE",
"517 644 OFFCURVE",
"541 616 CURVE SMOOTH",
"565 587 OFFCURVE",
"575 547 OFFCURVE",
"575 502 CURVE SMOOTH",
"575 475 OFFCURVE",
"573 450 OFFCURVE",
"567 419 CURVE SMOOTH",
"561 387 OFFCURVE",
"552 350 OFFCURVE",
"540 301 CURVE SMOOTH",
"521 226 OFFCURVE",
"492 161 OFFCURVE",
"450 114 CURVE SMOOTH",
"408 66 OFFCURVE",
"354 37 OFFCURVE",
"290 37 CURVE SMOOTH"
);
}
);
width = 674;
}
);
leftKerningGroup = C;
note = Q;
rightKerningGroup = O;
unicode = 0051;
},
{
glyphname = R;
lastChange = "2019-02-03 18:41:26 +0000";
layers = (
{
layerId = "A1F39B41-468B-47E4-A64F-494FF9F69BAB";
paths = (
{
closed = 1;
nodes = (
"206 0 LINE",
"216 41 LINE",
"145 41 LINE",
"216 324 LINE",
"331 324 LINE",
"387 91 LINE SMOOTH",
"395 55 OFFCURVE",
"406 31 OFFCURVE",
"423 18 CURVE SMOOTH",
"439 5 OFFCURVE",
"462 0 OFFCURVE",
"498 0 CURVE SMOOTH",
"548 0 LINE",
"558 41 LINE",
"544 41 LINE SMOOTH",
"500 41 OFFCURVE",
"485 61 OFFCURVE",
"474 100 CURVE SMOOTH",
"412 330 LINE",
"484 341 OFFCURVE",
"533 376 OFFCURVE",
"563 421 CURVE SMOOTH",
"593 465 OFFCURVE",
"605 519 OFFCURVE",
"605 567 CURVE SMOOTH",
"605 651 OFFCURVE",
"549 698 OFFCURVE",
"453 698 CURVE SMOOTH",
"152 698 LINE",
"142 657 LINE",
"213 657 LINE",
"60 41 LINE",
"-11 41 LINE",
"-21 0 LINE"
);
},
{
closed = 1;
nodes = (
"442 653 LINE SMOOTH",
"497 653 OFFCURVE",
"522 619 OFFCURVE",
"522 571 CURVE SMOOTH",
"522 558 OFFCURVE",
"520 543 OFFCURVE",
"516 526 CURVE",
"511 509 OFFCURVE",
"508 496 OFFCURVE",
"506 487 CURVE SMOOTH",
"489 419 OFFCURVE",
"437 369 OFFCURVE",
"369 369 CURVE SMOOTH",
"227 369 LINE",
"297 653 LINE"
);
}
);
width = 622;
}
);
leftKerningGroup = B;
note = R;
rightKerningGroup = R;
unicode = 0052;
},
{
glyphname = S;
lastChange = "2019-02-03 18:41:26 +0000";
layers = (
{
layerId = "A1F39B41-468B-47E4-A64F-494FF9F69BAB";
paths = (
{
closed = 1;
nodes = (
"297 -12 OFFCURVE",
"362 15 OFFCURVE",
"409 59 CURVE SMOOTH",
"456 103 OFFCURVE",
"483 162 OFFCURVE",
"483 226 CURVE SMOOTH",
"483 303 OFFCURVE",
"448 349 OFFCURVE",
"356 388 CURVE SMOOTH",
"312 406 LINE SMOOTH",
"245 434 OFFCURVE",
"210 464 OFFCURVE",
"210 523 CURVE SMOOTH",
"210 558 OFFCURVE",
"223 593 OFFCURVE",
"251 619 CURVE SMOOTH",
"278 645 OFFCURVE",
"319 661 OFFCURVE",
"378 661 CURVE SMOOTH",
"454 661 OFFCURVE",
"492 632 OFFCURVE",
"492 583 CURVE SMOOTH",
"492 575 OFFCURVE",
"491 564 OFFCURVE",
"488 551 CURVE SMOOTH",
"476 503 LINE",
"544 503 LINE",
"593 698 LINE",
"525 698 LINE",
"510 640 LINE",
"504 640 LINE",
"496 685 OFFCURVE",
"446 710 OFFCURVE",
"374 710 CURVE SMOOTH",
"306 710 OFFCURVE",
"245 688 OFFCURVE",
"201 651 CURVE SMOOTH",
"157 614 OFFCURVE",
"130 560 OFFCURVE",
"130 499 CURVE SMOOTH",
"130 415 OFFCURVE",
"171 370 OFFCURVE",
"260 333 CURVE SMOOTH",
"308 313 LINE SMOOTH",
"368 288 OFFCURVE",
"403 262 OFFCURVE",
"403 199 CURVE SMOOTH",
"403 152 OFFCURVE",
"383 111 OFFCURVE",
"350 83 CURVE SMOOTH",
"317 54 OFFCURVE",
"269 37 OFFCURVE",
"213 37 CURVE SMOOTH",
"129 37 OFFCURVE",
"95 72 OFFCURVE",
"95 123 CURVE SMOOTH",
"95 132 OFFCURVE",
"97 144 OFFCURVE",
"100 157 CURVE",
"113 205 LINE",
"45 205 LINE",
"-6 0 LINE",
"62 0 LINE",
"78 65 LINE",
"84 65 LINE",
"92 17 OFFCURVE",
"146 -12 OFFCURVE",
"221 -12 CURVE SMOOTH"
);
}
);
width = 549;
}
);
leftKerningGroup = S;
note = S;
rightKerningGroup = S;
unicode = 0053;
},
{
glyphname = T;
lastChange = "2019-02-03 18:41:26 +0000";
layers = (
{
layerId = "A1F39B41-468B-47E4-A64F-494FF9F69BAB";
paths = (
{
closed = 1;
nodes = (
"369 0 LINE",
"379 41 LINE",
"288 41 LINE",
"440 653 LINE",
"597 653 LINE",
"567 530 LINE",
"635 530 LINE",
"677 698 LINE",
"141 698 LINE",
"99 530 LINE",
"167 530 LINE",
"198 653 LINE",
"355 653 LINE",
"203 41 LINE",
"112 41 LINE",
"102 0 LINE"
);
}
);
width = 599;
}
);
leftKerningGroup = T;
note = T;
rightKerningGroup = T;
unicode = 0054;
},
{
glyphname = U;
lastChange = "2019-02-03 18:41:26 +0000";
layers = (
{
layerId = "A1F39B41-468B-47E4-A64F-494FF9F69BAB";
paths = (
{
closed = 1;
nodes = (
"361 -12 OFFCURVE",
"420 5 OFFCURVE",
"465 46 CURVE SMOOTH",
"510 86 OFFCURVE",
"543 151 OFFCURVE",
"567 247 CURVE SMOOTH",
"669 657 LINE",
"740 657 LINE",
"750 698 LINE",
"556 698 LINE",
"546 657 LINE",
"617 657 LINE",
"515 247 LINE SMOOTH",
"479 107 OFFCURVE",
"417 38 OFFCURVE",
"296 38 CURVE SMOOTH",
"208 38 OFFCURVE",
"171 73 OFFCURVE",
"171 144 CURVE SMOOTH",
"171 172 OFFCURVE",
"177 205 OFFCURVE",
"186 244 CURVE SMOOTH",
"289 657 LINE",
"360 657 LINE",
"370 698 LINE",
"143 698 LINE",
"133 657 LINE",
"204 657 LINE",
"107 266 LINE SMOOTH",
"96 223 OFFCURVE",
"90 186 OFFCURVE",
"90 156 CURVE SMOOTH",
"90 36 OFFCURVE",
"165 -12 OFFCURVE",
"288 -12 CURVE SMOOTH"
);
}
);
width = 674;
}
);
leftKerningGroup = U;
note = U;
rightKerningGroup = U;
unicode = 0055;
},
{
glyphname = V;
lastChange = "2019-02-03 18:41:26 +0000";
layers = (
{
layerId = "A1F39B41-468B-47E4-A64F-494FF9F69BAB";
paths = (
{
closed = 1;
nodes = (
"272 0 LINE",
"645 657 LINE",
"697 657 LINE",
"707 698 LINE",
"521 698 LINE",
"511 657 LINE",
"587 657 LINE",
"420 358 LINE",
"279 101 LINE",
"273 101 LINE",
"259 361 LINE",
"241 657 LINE",
"317 657 LINE",
"327 698 LINE",
"116 698 LINE",
"106 657 LINE",
"158 657 LINE",
"203 0 LINE"
);
}
);
width = 605;
}
);
leftKerningGroup = V;
note = V;
rightKerningGroup = V;
unicode = 0056;
},
{
glyphname = W;
lastChange = "2019-02-03 18:41:26 +0000";
layers = (
{
layerId = "A1F39B41-468B-47E4-A64F-494FF9F69BAB";
paths = (
{
closed = 1;
nodes = (
"231 0 LINE",
"528 587 LINE",
"533 587 LINE",
"527 0 LINE",
"602 0 LINE",
"926 657 LINE",
"978 657 LINE",
"988 698 LINE",
"801 698 LINE",
"791 657 LINE",
"867 657 LINE",
"608 116 LINE",
"603 116 LINE",
"608 698 LINE",
"528 698 LINE",
"237 116 LINE",
"231 116 LINE",
"248 657 LINE",
"324 657 LINE",
"334 698 LINE",
"123 698 LINE",
"113 657 LINE",
"165 657 LINE",
"156 0 LINE"
);
}
);
width = 889;
}
);
leftKerningGroup = W;
note = W;
rightKerningGroup = W;
unicode = 0057;
},
{
glyphname = X;
lastChange = "2019-02-03 18:41:26 +0000";
layers = (
{
layerId = "A1F39B41-468B-47E4-A64F-494FF9F69BAB";
paths = (
{
closed = 1;
nodes = (
"130 0 LINE",
"140 41 LINE",
"73 41 LINE",
"296 298 LINE",
"302 298 LINE",
"390 41 LINE",
"323 41 LINE",
"313 0 LINE",
"530 0 LINE",
"540 41 LINE",
"480 41 LINE",
"364 357 LINE",
"634 657 LINE",
"694 657 LINE",
"704 698 LINE",
"511 698 LINE",
"501 657 LINE",
"568 657 LINE",
"350 404 LINE",
"345 404 LINE",
"257 657 LINE",
"324 657 LINE",
"334 698 LINE",
"119 698 LINE",
"109 657 LINE",
"169 657 LINE",
"281 347 LINE",
"8 41 LINE",
"-52 41 LINE",
"-62 0 LINE"
);
}
);
width = 605;
}
);
leftKerningGroup = X;
note = X;
rightKerningGroup = X;
unicode = 0058;
},
{
glyphname = Y;
lastChange = "2019-02-03 18:41:26 +0000";
layers = (
{
layerId = "A1F39B41-468B-47E4-A64F-494FF9F69BAB";
paths = (
{
closed = 1;
nodes = (
"351 0 LINE",
"361 41 LINE",
"280 41 LINE",
"340 287 LINE",
"622 657 LINE",
"674 657 LINE",
"684 698 LINE",
"493 698 LINE",
"483 657 LINE",
"559 657 LINE",
"327 342 LINE",
"321 342 LINE",
"247 657 LINE",
"323 657 LINE",
"333 698 LINE",
"116 698 LINE",
"106 657 LINE",
"158 657 LINE",
"254 285 LINE",
"195 41 LINE",
"114 41 LINE",
"104 0 LINE"
);
}
);
width = 583;
}
);
leftKerningGroup = Y;
note = Y;
rightKerningGroup = Y;
unicode = 0059;
},
{
glyphname = Z;
lastChange = "2019-02-03 18:41:26 +0000";
layers = (
{
layerId = "A1F39B41-468B-47E4-A64F-494FF9F69BAB";
paths = (
{
closed = 1;
nodes = (
"461 0 LINE",
"505 177 LINE",
"437 177 LINE",
"404 45 LINE",
"88 45 LINE",
"613 653 LINE",
"624 698 LINE",
"165 698 LINE",
"123 530 LINE",
"191 530 LINE",
"221 653 LINE",
"517 653 LINE",
"-7 45 LINE",
"-18 0 LINE"
);
}
);
width = 576;
}
);
leftKerningGroup = Z;
note = Z;
rightKerningGroup = Z;
unicode = 005A;
},
{
glyphname = zero;
lastChange = "2019-02-03 18:41:26 +0000";
layers = (
{
layerId = "A1F39B41-468B-47E4-A64F-494FF9F69BAB";
paths = (
{
closed = 1;
nodes = (
"147 33 OFFCURVE",
"121 78 OFFCURVE",
"121 150 CURVE SMOOTH",
"121 179 OFFCURVE",
"125 207 OFFCURVE",
"134 247 CURVE SMOOTH",
"142 286 OFFCURVE",
"155 337 OFFCURVE",
"175 413 CURVE SMOOTH",
"194 492 OFFCURVE",
"219 554 OFFCURVE",
"252 598 CURVE SMOOTH",
"284 641 OFFCURVE",
"326 665 OFFCURVE",
"379 665 CURVE SMOOTH",
"447 665 OFFCURVE",
"473 620 OFFCURVE",
"473 548 CURVE SMOOTH",
"473 519 OFFCURVE",
"469 491 OFFCURVE",
"461 452 CURVE SMOOTH",
"452 412 OFFCURVE",
"439 361 OFFCURVE",
"419 285 CURVE SMOOTH",
"400 206 OFFCURVE",
"375 144 OFFCURVE",
"343 101 CURVE SMOOTH",
"310 57 OFFCURVE",
"268 33 OFFCURVE",
"215 33 CURVE SMOOTH"
);
},
{
closed = 1;
nodes = (
"296 -12 OFFCURVE",
"360 30 OFFCURVE",
"409 91 CURVE SMOOTH",
"458 152 OFFCURVE",
"494 233 OFFCURVE",
"516 311 CURVE SMOOTH",
"538 389 OFFCURVE",
"547 463 OFFCURVE",
"547 512 CURVE SMOOTH",
"547 643 OFFCURVE",
"492 710 OFFCURVE",
"381 710 CURVE SMOOTH",
"298 710 OFFCURVE",
"234 668 OFFCURVE",
"185 607 CURVE SMOOTH",
"136 546 OFFCURVE",
"101 466 OFFCURVE",
"79 388 CURVE SMOOTH",
"57 310 OFFCURVE",
"47 235 OFFCURVE",
"47 186 CURVE SMOOTH",
"47 55 OFFCURVE",
"102 -12 OFFCURVE",
"213 -12 CURVE SMOOTH"
);
}
);
width = 550;
}
);
note = zero;
unicode = 0030;
},
{
glyphname = zero.alt01;
lastChange = "2019-02-03 18:41:26 +0000";
layers = (
{
layerId = "A1F39B41-468B-47E4-A64F-494FF9F69BAB";
paths = (
{
closed = 1;
nodes = (
"296 -12 OFFCURVE",
"360 30 OFFCURVE",
"409 91 CURVE SMOOTH",
"458 152 OFFCURVE",
"494 233 OFFCURVE",
"516 311 CURVE SMOOTH",
"538 389 OFFCURVE",
"547 463 OFFCURVE",
"547 512 CURVE SMOOTH",
"547 643 OFFCURVE",
"492 710 OFFCURVE",
"381 710 CURVE SMOOTH",
"298 710 OFFCURVE",
"234 668 OFFCURVE",
"185 607 CURVE SMOOTH",
"136 546 OFFCURVE",
"101 466 OFFCURVE",
"79 388 CURVE SMOOTH",
"57 310 OFFCURVE",
"47 235 OFFCURVE",
"47 186 CURVE SMOOTH",
"47 55 OFFCURVE",
"102 -12 OFFCURVE",
"213 -12 CURVE SMOOTH"
);
},
{
closed = 1;
nodes = (
"444 665 OFFCURVE",
"472 623 OFFCURVE",
"473 552 CURVE",
"126 208 LINE",
"133 252 OFFCURVE",
"148 309 OFFCURVE",
"175 413 CURVE SMOOTH",
"194 492 OFFCURVE",
"219 554 OFFCURVE",
"252 598 CURVE SMOOTH",
"284 641 OFFCURVE",
"326 665 OFFCURVE",
"379 665 CURVE SMOOTH"
);
},
{
closed = 1;
nodes = (
"150 33 OFFCURVE",
"122 75 OFFCURVE",
"121 146 CURVE",
"468 491 LINE",
"465 469 OFFCURVE",
"459 442 OFFCURVE",
"451 411 CURVE SMOOTH",
"443 380 OFFCURVE",
"432 338 OFFCURVE",
"419 285 CURVE SMOOTH",
"400 206 OFFCURVE",
"375 144 OFFCURVE",
"343 101 CURVE SMOOTH",
"310 57 OFFCURVE",
"268 33 OFFCURVE",
"215 33 CURVE SMOOTH"
);
}
);
width = 550;
}
);
note = zero.alt01;
},
{
glyphname = zero.alt02;
lastChange = "2019-02-03 18:41:26 +0000";
layers = (
{
layerId = "A1F39B41-468B-47E4-A64F-494FF9F69BAB";
paths = (
{
closed = 1;
nodes = (
"147 33 OFFCURVE",
"121 78 OFFCURVE",
"121 150 CURVE SMOOTH",
"121 179 OFFCURVE",
"125 207 OFFCURVE",
"134 247 CURVE SMOOTH",
"142 286 OFFCURVE",
"155 337 OFFCURVE",
"175 413 CURVE SMOOTH",
"194 492 OFFCURVE",
"219 554 OFFCURVE",
"252 598 CURVE SMOOTH",
"284 641 OFFCURVE",
"326 665 OFFCURVE",
"379 665 CURVE SMOOTH",
"447 665 OFFCURVE",
"473 620 OFFCURVE",
"473 548 CURVE SMOOTH",
"473 519 OFFCURVE",
"469 491 OFFCURVE",
"461 452 CURVE SMOOTH",
"452 412 OFFCURVE",
"439 361 OFFCURVE",
"419 285 CURVE SMOOTH",
"400 206 OFFCURVE",
"375 144 OFFCURVE",
"343 101 CURVE SMOOTH",
"310 57 OFFCURVE",
"268 33 OFFCURVE",
"215 33 CURVE SMOOTH"
);
},
{
closed = 1;
nodes = (
"320 294 OFFCURVE",
"336 314 OFFCURVE",
"343 342 CURVE",
"346 350 OFFCURVE",
"348 361 OFFCURVE",
"348 370 CURVE SMOOTH",
"348 387 OFFCURVE",
"338 404 OFFCURVE",
"307 404 CURVE SMOOTH",
"275 404 OFFCURVE",
"259 384 OFFCURVE",
"252 356 CURVE",
"249 348 OFFCURVE",
"247 337 OFFCURVE",
"247 328 CURVE SMOOTH",
"247 311 OFFCURVE",
"257 294 OFFCURVE",
"288 294 CURVE SMOOTH"
);
},
{
closed = 1;
nodes = (
"296 -12 OFFCURVE",
"360 30 OFFCURVE",
"409 91 CURVE SMOOTH",
"458 152 OFFCURVE",
"494 233 OFFCURVE",
"516 311 CURVE SMOOTH",
"538 389 OFFCURVE",
"547 463 OFFCURVE",
"547 512 CURVE SMOOTH",
"547 643 OFFCURVE",
"492 710 OFFCURVE",
"381 710 CURVE SMOOTH",
"298 710 OFFCURVE",
"234 668 OFFCURVE",
"185 607 CURVE SMOOTH",
"136 546 OFFCURVE",
"101 466 OFFCURVE",
"79 388 CURVE SMOOTH",
"57 310 OFFCURVE",
"47 235 OFFCURVE",
"47 186 CURVE SMOOTH",
"47 55 OFFCURVE",
"102 -12 OFFCURVE",
"213 -12 CURVE SMOOTH"
);
}
);
width = 550;
}
);
note = zero.alt02;
},
{
glyphname = one;
lastChange = "2019-02-03 18:41:26 +0000";
layers = (
{
layerId = "A1F39B41-468B-47E4-A64F-494FF9F69BAB";
paths = (
{
closed = 1;
nodes = (
"425 0 LINE",
"435 41 LINE",
"285 41 LINE",
"449 698 LINE",
"377 698 LINE",
"167 595 LINE",
"171 553 LINE",
"349 633 LINE",
"202 41 LINE",
"50 41 LINE",
"40 0 LINE"
);
}
);
width = 550;
}
);
note = one;
unicode = 0031;
},
{
glyphname = two;
lastChange = "2019-02-03 18:41:26 +0000";
layers = (
{
layerId = "A1F39B41-468B-47E4-A64F-494FF9F69BAB";
paths = (
{
closed = 1;
nodes = (
"407 0 LINE",
"451 174 LINE",
"404 174 LINE",
"376 65 LINE",
"78 65 LINE",
"81 72 LINE",
"295 242 LINE SMOOTH",
"350 286 OFFCURVE",
"406 333 OFFCURVE",
"448 386 CURVE SMOOTH",
"490 439 OFFCURVE",
"518 500 OFFCURVE",
"518 572 CURVE SMOOTH",
"518 656 OFFCURVE",
"464 710 OFFCURVE",
"351 710 CURVE SMOOTH",
"302 710 OFFCURVE",
"249 694 OFFCURVE",
"209 669 CURVE SMOOTH",
"169 644 OFFCURVE",
"141 608 OFFCURVE",
"141 571 CURVE SMOOTH",
"141 540 OFFCURVE",
"160 519 OFFCURVE",
"193 519 CURVE SMOOTH",
"214 519 OFFCURVE",
"231 529 OFFCURVE",
"241 542 CURVE SMOOTH",
"251 555 OFFCURVE",
"256 572 OFFCURVE",
"256 585 CURVE SMOOTH",
"256 608 OFFCURVE",
"244 623 OFFCURVE",
"225 630 CURVE",
"227 637 LINE",
"251 652 OFFCURVE",
"284 664 OFFCURVE",
"335 664 CURVE SMOOTH",
"396 664 OFFCURVE",
"430 627 OFFCURVE",
"430 571 CURVE SMOOTH",
"430 551 OFFCURVE",
"423 529 OFFCURVE",
"419 514 CURVE SMOOTH",
"396 425 OFFCURVE",
"344 358 OFFCURVE",
"267 290 CURVE SMOOTH",
"4 57 LINE",
"-10 0 LINE"
);
}
);
width = 550;
}
);
note = two;
unicode = 0032;
},
{
glyphname = three;
lastChange = "2019-02-03 18:41:26 +0000";
layers = (
{
layerId = "A1F39B41-468B-47E4-A64F-494FF9F69BAB";
paths = (
{
closed = 1;
nodes = (
"266 -12 OFFCURVE",
"336 15 OFFCURVE",
"385 59 CURVE SMOOTH",
"434 103 OFFCURVE",
"464 164 OFFCURVE",
"464 233 CURVE SMOOTH",
"464 302 OFFCURVE",
"420 349 OFFCURVE",
"352 365 CURVE",
"354 372 LINE",
"398 383 OFFCURVE",
"443 404 OFFCURVE",
"478 437 CURVE SMOOTH",
"513 469 OFFCURVE",
"536 516 OFFCURVE",
"536 577 CURVE SMOOTH",
"536 616 OFFCURVE",
"523 649 OFFCURVE",
"495 673 CURVE SMOOTH",
"467 696 OFFCURVE",
"424 710 OFFCURVE",
"364 710 CURVE SMOOTH",
"312 710 OFFCURVE",
"260 694 OFFCURVE",
"221 669 CURVE SMOOTH",
"181 644 OFFCURVE",
"155 610 OFFCURVE",
"155 574 CURVE SMOOTH",
"155 543 OFFCURVE",
"173 523 OFFCURVE",
"206 523 CURVE SMOOTH",
"227 523 OFFCURVE",
"242 533 OFFCURVE",
"253 546 CURVE",
"264 558 OFFCURVE",
"269 575 OFFCURVE",
"269 588 CURVE SMOOTH",
"269 611 OFFCURVE",
"259 626 OFFCURVE",
"238 633 CURVE",
"241 641 LINE",
"268 657 OFFCURVE",
"311 664 OFFCURVE",
"350 664 CURVE SMOOTH",
"425 664 OFFCURVE",
"451 631 OFFCURVE",
"451 588 CURVE SMOOTH",
"451 565 OFFCURVE",
"442 535 OFFCURVE",
"437 514 CURVE SMOOTH",
"418 441 OFFCURVE",
"359 387 OFFCURVE",
"267 387 CURVE SMOOTH",
"204 387 LINE",
"192 341 LINE",
"263 341 LINE SMOOTH",
"294 341 OFFCURVE",
"323 336 OFFCURVE",
"344 321 CURVE SMOOTH",
"364 306 OFFCURVE",
"378 284 OFFCURVE",
"378 249 CURVE SMOOTH",
"378 244 OFFCURVE",
"378 238 OFFCURVE",
"377 231 CURVE SMOOTH",
"375 218 OFFCURVE",
"372 203 OFFCURVE",
"369 191 CURVE",
"367 185 OFFCURVE",
"366 180 OFFCURVE",
"365 177 CURVE",
"342 85 OFFCURVE",
"275 33 OFFCURVE",
"176 33 CURVE SMOOTH",
"137 33 OFFCURVE",
"101 39 OFFCURVE",
"80 62 CURVE",
"83 70 LINE",
"92 71 OFFCURVE",
"106 77 OFFCURVE",
"118 86 CURVE",
"129 95 OFFCURVE",
"138 109 OFFCURVE",
"138 129 CURVE SMOOTH",
"138 156 OFFCURVE",
"122 178 OFFCURVE",
"87 178 CURVE SMOOTH",
"54 178 OFFCURVE",
"23 151 OFFCURVE",
"23 104 CURVE SMOOTH",
"23 77 OFFCURVE",
"36 49 OFFCURVE",
"62 27 CURVE SMOOTH",
"88 5 OFFCURVE",
"128 -12 OFFCURVE",
"187 -12 CURVE SMOOTH"
);
}
);
width = 550;
}
);
note = three;
unicode = 0033;
},
{
glyphname = four;
lastChange = "2019-02-03 18:41:26 +0000";
layers = (
{
layerId = "A1F39B41-468B-47E4-A64F-494FF9F69BAB";
paths = (
{
closed = 1;
nodes = (
"346 0 LINE",
"382 142 LINE",
"473 142 LINE",
"486 197 LINE",
"395 197 LINE",
"521 698 LINE",
"441 698 LINE",
"22 195 LINE",
"9 142 LINE",
"303 142 LINE",
"267 0 LINE"
);
},
{
closed = 1;
nodes = (
"419 607 LINE",
"316 197 LINE",
"77 197 LINE",
"415 607 LINE"
);
}
);
width = 550;
}
);
note = four;
unicode = 0034;
},
{
glyphname = five;
lastChange = "2019-02-03 18:41:26 +0000";
layers = (
{
layerId = "A1F39B41-468B-47E4-A64F-494FF9F69BAB";
paths = (
{
closed = 1;
nodes = (
"278 -12 OFFCURVE",
"346 20 OFFCURVE",
"396 72 CURVE SMOOTH",
"446 124 OFFCURVE",
"477 197 OFFCURVE",
"477 278 CURVE SMOOTH",
"477 334 OFFCURVE",
"458 371 OFFCURVE",
"429 395 CURVE SMOOTH",
"400 419 OFFCURVE",
"361 428 OFFCURVE",
"324 428 CURVE SMOOTH",
"253 428 OFFCURVE",
"200 393 OFFCURVE",
"167 342 CURVE",
"159 342 LINE",
"246 630 LINE",
"544 630 LINE",
"561 698 LINE",
"224 698 LINE",
"107 318 LINE",
"155 307 LINE",
"183 342 OFFCURVE",
"227 375 OFFCURVE",
"286 375 CURVE SMOOTH",
"345 375 OFFCURVE",
"390 346 OFFCURVE",
"390 270 CURVE SMOOTH",
"390 257 OFFCURVE",
"388 243 OFFCURVE",
"385 229 CURVE SMOOTH",
"382 215 OFFCURVE",
"379 205 OFFCURVE",
"378 199 CURVE",
"351 95 OFFCURVE",
"288 33 OFFCURVE",
"191 33 CURVE SMOOTH",
"151 33 OFFCURVE",
"119 39 OFFCURVE",
"96 62 CURVE",
"99 70 LINE",
"108 71 OFFCURVE",
"123 77 OFFCURVE",
"134 86 CURVE SMOOTH",
"145 95 OFFCURVE",
"154 109 OFFCURVE",
"154 129 CURVE SMOOTH",
"154 156 OFFCURVE",
"139 178 OFFCURVE",
"104 178 CURVE SMOOTH",
"69 178 OFFCURVE",
"39 151 OFFCURVE",
"39 104 CURVE SMOOTH",
"39 77 OFFCURVE",
"51 49 OFFCURVE",
"78 26 CURVE SMOOTH",
"105 3 OFFCURVE",
"146 -12 OFFCURVE",
"206 -12 CURVE SMOOTH"
);
}
);
width = 550;
}
);
note = five;
unicode = 0035;
},
{
glyphname = six;
lastChange = "2019-02-03 18:41:26 +0000";
layers = (
{
layerId = "A1F39B41-468B-47E4-A64F-494FF9F69BAB";
paths = (
{
closed = 1;
nodes = (
"278 -12 OFFCURVE",
"346 15 OFFCURVE",
"398 64 CURVE SMOOTH",
"450 113 OFFCURVE",
"487 187 OFFCURVE",
"487 279 CURVE SMOOTH",
"487 330 OFFCURVE",
"472 367 OFFCURVE",
"447 392 CURVE SMOOTH",
"422 416 OFFCURVE",
"386 428 OFFCURVE",
"345 428 CURVE SMOOTH",
"302 428 OFFCURVE",
"268 416 OFFCURVE",
"240 398 CURVE SMOOTH",
"212 380 OFFCURVE",
"190 356 OFFCURVE",
"174 332 CURVE",
"168 334 LINE",
"193 411 OFFCURVE",
"241 489 OFFCURVE",
"302 550 CURVE SMOOTH",
"363 611 OFFCURVE",
"439 658 OFFCURVE",
"519 674 CURVE",
"516 710 LINE",
"364 679 OFFCURVE",
"248 596 OFFCURVE",
"169 493 CURVE SMOOTH",
"89 389 OFFCURVE",
"48 265 OFFCURVE",
"48 157 CURVE SMOOTH",
"48 45 OFFCURVE",
"109 -12 OFFCURVE",
"214 -12 CURVE SMOOTH"
);
},
{
closed = 1;
nodes = (
"152 33 OFFCURVE",
"126 74 OFFCURVE",
"126 135 CURVE SMOOTH",
"126 152 OFFCURVE",
"128 168 OFFCURVE",
"132 183 CURVE",
"135 198 OFFCURVE",
"138 208 OFFCURVE",
"139 215 CURVE",
"151 262 OFFCURVE",
"170 303 OFFCURVE",
"198 334 CURVE SMOOTH",
"226 365 OFFCURVE",
"263 383 OFFCURVE",
"311 383 CURVE SMOOTH",
"375 383 OFFCURVE",
"401 342 OFFCURVE",
"401 281 CURVE SMOOTH",
"401 264 OFFCURVE",
"399 248 OFFCURVE",
"396 233 CURVE",
"392 218 OFFCURVE",
"389 208 OFFCURVE",
"388 201 CURVE",
"376 154 OFFCURVE",
"357 113 OFFCURVE",
"329 82 CURVE SMOOTH",
"301 51 OFFCURVE",
"264 33 OFFCURVE",
"216 33 CURVE SMOOTH"
);
}
);
width = 550;
}
);
note = six;
unicode = 0036;
},
{
glyphname = seven;
lastChange = "2019-02-03 18:41:26 +0000";
layers = (
{
layerId = "A1F39B41-468B-47E4-A64F-494FF9F69BAB";
paths = (
{
closed = 1;
nodes = (
"177 0 LINE",
"582 649 LINE",
"594 698 LINE",
"175 698 LINE",
"125 499 LINE",
"172 499 LINE",
"205 630 LINE",
"515 630 LINE",
"97 0 LINE"
);
}
);
width = 550;
}
);
note = seven;
unicode = 0037;
},
{
glyphname = eight;
lastChange = "2019-02-03 18:41:26 +0000";
layers = (
{
layerId = "A1F39B41-468B-47E4-A64F-494FF9F69BAB";
paths = (
{
closed = 1;
nodes = (
"297 -12 OFFCURVE",
"364 18 OFFCURVE",
"410 63 CURVE SMOOTH",
"456 107 OFFCURVE",
"482 167 OFFCURVE",
"482 228 CURVE SMOOTH",
"482 297 OFFCURVE",
"443 341 OFFCURVE",
"372 360 CURVE",
"374 368 LINE",
"410 372 OFFCURVE",
"455 395 OFFCURVE",
"489 431 CURVE SMOOTH",
"523 467 OFFCURVE",
"548 516 OFFCURVE",
"548 572 CURVE SMOOTH",
"548 659 OFFCURVE",
"491 710 OFFCURVE",
"379 710 CURVE SMOOTH",
"308 710 OFFCURVE",
"248 685 OFFCURVE",
"205 646 CURVE SMOOTH",
"162 606 OFFCURVE",
"138 554 OFFCURVE",
"138 498 CURVE SMOOTH",
"138 431 OFFCURVE",
"174 383 OFFCURVE",
"230 368 CURVE",
"228 361 LINE",
"183 354 OFFCURVE",
"134 331 OFFCURVE",
"96 294 CURVE SMOOTH",
"58 257 OFFCURVE",
"30 205 OFFCURVE",
"30 141 CURVE SMOOTH",
"30 49 OFFCURVE",
"92 -12 OFFCURVE",
"216 -12 CURVE SMOOTH"
);
},
{
closed = 1;
nodes = (
"152 31 OFFCURVE",
"114 66 OFFCURVE",
"114 133 CURVE SMOOTH",
"114 158 OFFCURVE",
"121 184 OFFCURVE",
"124 195 CURVE SMOOTH",
"135 238 OFFCURVE",
"154 275 OFFCURVE",
"182 302 CURVE SMOOTH",
"210 329 OFFCURVE",
"247 345 OFFCURVE",
"291 345 CURVE SMOOTH",
"362 345 OFFCURVE",
"400 310 OFFCURVE",
"400 243 CURVE SMOOTH",
"400 218 OFFCURVE",
"393 192 OFFCURVE",
"390 181 CURVE SMOOTH",
"379 138 OFFCURVE",
"360 101 OFFCURVE",
"332 74 CURVE SMOOTH",
"304 47 OFFCURVE",
"267 31 OFFCURVE",
"223 31 CURVE SMOOTH"
);
},
{
closed = 1;
nodes = (
"249 387 OFFCURVE",
"217 419 OFFCURVE",
"217 480 CURVE SMOOTH",
"217 489 OFFCURVE",
"218 498 OFFCURVE",
"220 507 CURVE SMOOTH",
"222 516 OFFCURVE",
"224 523 OFFCURVE",
"225 530 CURVE",
"233 566 OFFCURVE",
"250 602 OFFCURVE",
"275 628 CURVE SMOOTH",
"300 654 OFFCURVE",
"332 670 OFFCURVE",
"375 670 CURVE SMOOTH",
"435 670 OFFCURVE",
"467 638 OFFCURVE",
"467 577 CURVE SMOOTH",
"467 568 OFFCURVE",
"466 559 OFFCURVE",
"464 550 CURVE SMOOTH",
"462 541 OFFCURVE",
"460 534 OFFCURVE",
"459 527 CURVE",
"451 491 OFFCURVE",
"434 456 OFFCURVE",
"409 430 CURVE SMOOTH",
"384 404 OFFCURVE",
"350 387 OFFCURVE",
"309 387 CURVE SMOOTH"
);
}
);
width = 550;
}
);
note = eight;
unicode = 0038;
},
{
glyphname = nine;
lastChange = "2019-02-03 18:41:26 +0000";
layers = (
{
layerId = "A1F39B41-468B-47E4-A64F-494FF9F69BAB";
paths = (
{
closed = 1;
nodes = (
"181 8 OFFCURVE",
"267 52 OFFCURVE",
"336 110 CURVE SMOOTH",
"405 168 OFFCURVE",
"458 239 OFFCURVE",
"494 315 CURVE SMOOTH",
"530 390 OFFCURVE",
"548 469 OFFCURVE",
"548 541 CURVE SMOOTH",
"548 653 OFFCURVE",
"487 710 OFFCURVE",
"382 710 CURVE SMOOTH",
"318 710 OFFCURVE",
"250 683 OFFCURVE",
"198 634 CURVE SMOOTH",
"146 585 OFFCURVE",
"109 511 OFFCURVE",
"109 419 CURVE SMOOTH",
"109 368 OFFCURVE",
"124 331 OFFCURVE",
"149 307 CURVE SMOOTH",
"174 282 OFFCURVE",
"210 270 OFFCURVE",
"251 270 CURVE SMOOTH",
"292 270 OFFCURVE",
"328 282 OFFCURVE",
"356 300 CURVE SMOOTH",
"384 318 OFFCURVE",
"406 342 OFFCURVE",
"422 366 CURVE",
"428 364 LINE",
"403 285 OFFCURVE",
"355 209 OFFCURVE",
"294 148 CURVE SMOOTH",
"233 87 OFFCURVE",
"157 40 OFFCURVE",
"77 24 CURVE",
"80 -12 LINE"
);
},
{
closed = 1;
nodes = (
"221 315 OFFCURVE",
"195 356 OFFCURVE",
"195 417 CURVE SMOOTH",
"195 434 OFFCURVE",
"197 450 OFFCURVE",
"201 465 CURVE",
"204 480 OFFCURVE",
"207 490 OFFCURVE",
"208 497 CURVE",
"220 544 OFFCURVE",
"239 585 OFFCURVE",
"267 616 CURVE SMOOTH",
"295 647 OFFCURVE",
"332 665 OFFCURVE",
"380 665 CURVE SMOOTH",
"444 665 OFFCURVE",
"470 624 OFFCURVE",
"470 563 CURVE SMOOTH",
"470 546 OFFCURVE",
"468 530 OFFCURVE",
"465 515 CURVE",
"461 500 OFFCURVE",
"458 490 OFFCURVE",
"457 483 CURVE",
"445 436 OFFCURVE",
"426 395 OFFCURVE",
"398 364 CURVE SMOOTH",
"370 333 OFFCURVE",
"333 315 OFFCURVE",
"285 315 CURVE SMOOTH"
);
}
);
width = 550;
}
);
note = nine;
unicode = 0039;
},
{
glyphname = ampersand;
lastChange = "2019-02-03 18:41:26 +0000";
layers = (
{
layerId = "A1F39B41-468B-47E4-A64F-494FF9F69BAB";
paths = (
{
closed = 1;
nodes = (
"281 -12 OFFCURVE",
"344 12 OFFCURVE",
"400 59 CURVE",
"425 19 OFFCURVE",
"450 0 OFFCURVE",
"497 0 CURVE SMOOTH",
"562 0 LINE",
"572 41 LINE",
"516 41 OFFCURVE",
"490 51 OFFCURVE",
"471 82 CURVE SMOOTH",
"453 113 LINE",
"500 170 OFFCURVE",
"538 245 OFFCURVE",
"565 333 CURVE",
"633 333 LINE",
"643 374 LINE",
"459 374 LINE",
"449 333 LINE",
"516 333 LINE",
"497 264 OFFCURVE",
"467 201 OFFCURVE",
"430 153 CURVE",
"305 372 LINE",
"360 399 OFFCURVE",
"415 431 OFFCURVE",
"456 468 CURVE SMOOTH",
"496 505 OFFCURVE",
"524 547 OFFCURVE",
"524 598 CURVE SMOOTH",
"524 674 OFFCURVE",
"471 710 OFFCURVE",
"387 710 CURVE SMOOTH",
"326 710 OFFCURVE",
"273 688 OFFCURVE",
"235 652 CURVE SMOOTH",
"197 616 OFFCURVE",
"173 565 OFFCURVE",
"173 508 CURVE SMOOTH",
"173 469 OFFCURVE",
"182 441 OFFCURVE",
"209 394 CURVE SMOOTH",
"220 374 LINE",
"161 345 OFFCURVE",
"112 315 OFFCURVE",
"77 277 CURVE SMOOTH",
"42 239 OFFCURVE",
"22 192 OFFCURVE",
"22 131 CURVE SMOOTH",
"22 43 OFFCURVE",
"83 -12 OFFCURVE",
"214 -12 CURVE SMOOTH"
);
},
{
closed = 1;
nodes = (
"262 448 OFFCURVE",
"250 482 OFFCURVE",
"250 521 CURVE SMOOTH",
"250 536 OFFCURVE",
"253 548 OFFCURVE",
"256 559 CURVE SMOOTH",
"264 588 OFFCURVE",
"279 616 OFFCURVE",
"301 636 CURVE SMOOTH",
"323 656 OFFCURVE",
"351 669 OFFCURVE",
"383 669 CURVE SMOOTH",
"426 669 OFFCURVE",
"451 642 OFFCURVE",
"451 599 CURVE SMOOTH",
"451 590 OFFCURVE",
"450 583 OFFCURVE",
"449 577 CURVE",
"447 570 OFFCURVE",
"445 564 OFFCURVE",
"444 557 CURVE",
"431 501 OFFCURVE",
"377 452 OFFCURVE",
"286 405 CURVE"
);
},
{
closed = 1;
nodes = (
"154 34 OFFCURVE",
"107 64 OFFCURVE",
"107 131 CURVE SMOOTH",
"107 144 OFFCURVE",
"111 171 OFFCURVE",
"114 180 CURVE",
"129 252 OFFCURVE",
"166 296 OFFCURVE",
"239 339 CURVE",
"379 94 LINE",
"334 57 OFFCURVE",
"281 34 OFFCURVE",
"221 34 CURVE SMOOTH"
);
}
);
width = 655;
}
);
leftKerningGroup = ampersand;
note = ampersand;
rightKerningGroup = ampersand;
unicode = 0026;
},
{
glyphname = at;
lastChange = "2019-02-03 18:41:26 +0000";
layers = (
{
layerId = "A1F39B41-468B-47E4-A64F-494FF9F69BAB";
paths = (
{
closed = 1;
nodes = (
"413 -121 OFFCURVE",
"472 -118 OFFCURVE",
"537 -110 CURVE",
"545 -82 LINE",
"364 -82 LINE SMOOTH",
"295 -82 OFFCURVE",
"233 -60 OFFCURVE",
"189 -18 CURVE SMOOTH",
"144 24 OFFCURVE",
"117 85 OFFCURVE",
"117 168 CURVE SMOOTH",
"117 193 OFFCURVE",
"123 227 OFFCURVE",
"129 257 CURVE SMOOTH",
"135 287 OFFCURVE",
"140 313 OFFCURVE",
"143 325 CURVE SMOOTH",
"167 424 OFFCURVE",
"213 511 OFFCURVE",
"277 574 CURVE SMOOTH",
"341 637 OFFCURVE",
"422 674 OFFCURVE",
"517 674 CURVE SMOOTH",
"586 674 OFFCURVE",
"643 654 OFFCURVE",
"683 617 CURVE SMOOTH",
"722 580 OFFCURVE",
"744 523 OFFCURVE",
"744 450 CURVE SMOOTH",
"744 429 OFFCURVE",
"744 412 OFFCURVE",
"741 391 CURVE",
"737 370 OFFCURVE",
"731 344 OFFCURVE",
"722 305 CURVE SMOOTH",
"707 248 OFFCURVE",
"687 199 OFFCURVE",
"663 164 CURVE SMOOTH",
"638 129 OFFCURVE",
"609 109 OFFCURVE",
"581 109 CURVE SMOOTH",
"558 109 OFFCURVE",
"543 122 OFFCURVE",
"543 153 CURVE SMOOTH",
"543 164 OFFCURVE",
"545 173 OFFCURVE",
"549 192 CURVE",
"625 499 LINE",
"591 499 LINE",
"558 440 LINE",
"552 440 LINE",
"539 487 OFFCURVE",
"511 509 OFFCURVE",
"462 509 CURVE SMOOTH",
"397 509 OFFCURVE",
"344 462 OFFCURVE",
"308 399 CURVE SMOOTH",
"272 335 OFFCURVE",
"252 255 OFFCURVE",
"252 190 CURVE SMOOTH",
"252 113 OFFCURVE",
"275 69 OFFCURVE",
"331 69 CURVE SMOOTH",
"399 69 OFFCURVE",
"445 137 OFFCURVE",
"490 237 CURVE",
"497 234 LINE",
"488 206 OFFCURVE",
"486 183 OFFCURVE",
"486 163 CURVE SMOOTH",
"486 106 OFFCURVE",
"513 69 OFFCURVE",
"569 69 CURVE SMOOTH",
"641 69 OFFCURVE",
"697 123 OFFCURVE",
"737 198 CURVE SMOOTH",
"776 273 OFFCURVE",
"796 368 OFFCURVE",
"796 451 CURVE SMOOTH",
"796 536 OFFCURVE",
"767 601 OFFCURVE",
"718 645 CURVE SMOOTH",
"669 688 OFFCURVE",
"598 710 OFFCURVE",
"517 710 CURVE SMOOTH",
"421 710 OFFCURVE",
"339 677 OFFCURVE",
"272 625 CURVE SMOOTH",
"204 573 OFFCURVE",
"153 500 OFFCURVE",
"118 420 CURVE SMOOTH",
"83 339 OFFCURVE",
"65 251 OFFCURVE",
"65 168 CURVE SMOOTH",
"65 69 OFFCURVE",
"100 -2 OFFCURVE",
"154 -50 CURVE SMOOTH",
"208 -98 OFFCURVE",
"280 -121 OFFCURVE",
"356 -121 CURVE SMOOTH"
);
},
{
closed = 1;
nodes = (
"327 123 OFFCURVE",
"321 146 OFFCURVE",
"321 189 CURVE SMOOTH",
"321 204 OFFCURVE",
"324 226 OFFCURVE",
"328 250 CURVE SMOOTH",
"332 273 OFFCURVE",
"337 295 OFFCURVE",
"341 310 CURVE SMOOTH",
"368 410 OFFCURVE",
"419 466 OFFCURVE",
"480 466 CURVE SMOOTH",
"529 466 OFFCURVE",
"541 431 OFFCURVE",
"530 379 CURVE SMOOTH",
"527 365 LINE SMOOTH",
"523 348 OFFCURVE",
"512 316 OFFCURVE",
"494 280 CURVE SMOOTH",
"476 244 OFFCURVE",
"453 205 OFFCURVE",
"429 175 CURVE SMOOTH",
"404 145 OFFCURVE",
"378 123 OFFCURVE",
"354 123 CURVE SMOOTH"
);
}
);
width = 836;
}
);
leftKerningGroup = at;
note = at;
rightKerningGroup = at;
unicode = 0040;
},
{
glyphname = hyphen;
lastChange = "2019-02-03 18:41:26 +0000";
layers = (
{
layerId = "A1F39B41-468B-47E4-A64F-494FF9F69BAB";
paths = (
{
closed = 1;
nodes = (
"306 275 LINE",
"321 335 LINE",
"76 335 LINE",
"61 275 LINE"
);
}
);
width = 360;
}
);
leftKerningGroup = hyphen;
note = hyphen;
rightKerningGroup = hyphen;
unicode = 002D;
},
{
glyphname = endash;
lastChange = "2019-02-03 18:41:26 +0000";
layers = (
{
layerId = "A1F39B41-468B-47E4-A64F-494FF9F69BAB";
paths = (
{
closed = 1;
nodes = (
"527 281 LINE",
"538 326 LINE",
"51 326 LINE",
"40 281 LINE"
);
}
);
width = 557;
}
);
leftKerningGroup = hyphen;
note = endash;
rightKerningGroup = hyphen;
unicode = 2013;
},
{
glyphname = emdash;
lastChange = "2019-02-03 18:41:26 +0000";
layers = (
{
layerId = "A1F39B41-468B-47E4-A64F-494FF9F69BAB";
paths = (
{
closed = 1;
nodes = (
"710 281 LINE",
"721 326 LINE",
"51 326 LINE",
"40 281 LINE"
);
}
);
width = 740;
}
);
leftKerningGroup = hyphen;
note = emdash;
rightKerningGroup = hyphen;
unicode = 2014;
},
{
glyphname = underscore;
lastChange = "2019-02-03 18:41:26 +0000";
layers = (
{
layerId = "A1F39B41-468B-47E4-A64F-494FF9F69BAB";
paths = (
{
closed = 1;
nodes = (
"399 -152 LINE",
"410 -106 LINE",
"-68 -106 LINE",
"-79 -152 LINE"
);
}
);
width = 523;
}
);
leftKerningGroup = underscore;
note = underscore;
rightKerningGroup = underscore;
unicode = 005F;
},
{
glyphname = period;
lastChange = "2019-02-03 18:41:26 +0000";
layers = (
{
layerId = "A1F39B41-468B-47E4-A64F-494FF9F69BAB";
paths = (
{
closed = 1;
nodes = (
"96 -12 OFFCURVE",
"123 8 OFFCURVE",
"132 41 CURVE SMOOTH",
"135 53 OFFCURVE",
"135 57 OFFCURVE",
"135 64 CURVE SMOOTH",
"135 91 OFFCURVE",
"116 114 OFFCURVE",
"81 114 CURVE SMOOTH",
"48 114 OFFCURVE",
"21 94 OFFCURVE",
"12 61 CURVE SMOOTH",
"9 49 OFFCURVE",
"9 45 OFFCURVE",
"9 38 CURVE SMOOTH",
"9 11 OFFCURVE",
"28 -12 OFFCURVE",
"63 -12 CURVE SMOOTH"
);
}
);
width = 244;
}
);
leftKerningGroup = period;
note = period;
rightKerningGroup = period;
unicode = 002E;
},
{
glyphname = comma;
lastChange = "2019-02-03 18:41:26 +0000";
layers = (
{
layerId = "A1F39B41-468B-47E4-A64F-494FF9F69BAB";
paths = (
{
closed = 1;
nodes = (
"-2 -136 LINE",
"11 -127 OFFCURVE",
"25 -115 OFFCURVE",
"40 -102 CURVE",
"68 -75 OFFCURVE",
"94 -45 OFFCURVE",
"114 -13 CURVE SMOOTH",
"133 18 OFFCURVE",
"139 48 OFFCURVE",
"139 61 CURVE SMOOTH",
"139 89 OFFCURVE",
"119 114 OFFCURVE",
"84 114 CURVE SMOOTH",
"69 114 OFFCURVE",
"55 110 OFFCURVE",
"44 102 CURVE SMOOTH",
"20 85 OFFCURVE",
"12 60 OFFCURVE",
"12 40 CURVE SMOOTH",
"12 15 OFFCURVE",
"31 -10 OFFCURVE",
"59 -10 CURVE",
"39 -49 OFFCURVE",
"-1 -97 OFFCURVE",
"-48 -136 CURVE"
);
}
);
width = 244;
}
);
leftKerningGroup = period;
note = comma;
rightKerningGroup = period;
unicode = 002C;
},
{
glyphname = quotesingle;
lastChange = "2019-02-03 18:41:26 +0000";
layers = (
{
layerId = "A1F39B41-468B-47E4-A64F-494FF9F69BAB";
paths = (
{
closed = 1;
nodes = (
"176 471 LINE",
"244 659 LINE",
"267 748 LINE",
"197 748 LINE",
"174 659 LINE",
"147 471 LINE"
);
}
);
width = 216;
}
);
leftKerningGroup = quotesingle;
note = quotesingle;
rightKerningGroup = quotesingle;
unicode = 0027;
},
{
glyphname = quoteleft;
lastChange = "2019-02-03 18:41:26 +0000";
layers = (
{
layerId = "A1F39B41-468B-47E4-A64F-494FF9F69BAB";
paths = (
{
closed = 1;
nodes = (
"205 498 OFFCURVE",
"219 502 OFFCURVE",
"231 511 CURVE",
"254 527 OFFCURVE",
"262 552 OFFCURVE",
"262 572 CURVE SMOOTH",
"262 597 OFFCURVE",
"243 622 OFFCURVE",
"215 622 CURVE",
"235 661 OFFCURVE",
"275 709 OFFCURVE",
"322 748 CURVE",
"276 748 LINE",
"263 739 OFFCURVE",
"249 727 OFFCURVE",
"235 714 CURVE SMOOTH",
"206 687 OFFCURVE",
"180 657 OFFCURVE",
"161 626 CURVE SMOOTH",
"141 594 OFFCURVE",
"135 564 OFFCURVE",
"135 551 CURVE SMOOTH",
"135 523 OFFCURVE",
"155 498 OFFCURVE",
"190 498 CURVE SMOOTH"
);
}
);
width = 244;
}
);
leftKerningGroup = quoteleft;
note = quoteleft;
rightKerningGroup = quoteleft;
unicode = 2018;
},
{
glyphname = quoteright;
lastChange = "2019-02-03 18:41:26 +0000";
layers = (
{
layerId = "A1F39B41-468B-47E4-A64F-494FF9F69BAB";
paths = (
{
closed = 1;
nodes = (
"150 498 LINE",
"163 507 OFFCURVE",
"177 519 OFFCURVE",
"192 532 CURVE",
"220 559 OFFCURVE",
"246 589 OFFCURVE",
"266 621 CURVE SMOOTH",
"285 652 OFFCURVE",
"291 682 OFFCURVE",
"291 695 CURVE SMOOTH",
"291 723 OFFCURVE",
"271 748 OFFCURVE",
"236 748 CURVE SMOOTH",
"221 748 OFFCURVE",
"207 744 OFFCURVE",
"196 736 CURVE SMOOTH",
"172 719 OFFCURVE",
"164 694 OFFCURVE",
"164 674 CURVE SMOOTH",
"164 649 OFFCURVE",
"183 624 OFFCURVE",
"211 624 CURVE",
"191 585 OFFCURVE",
"151 537 OFFCURVE",
"104 498 CURVE"
);
}
);
width = 244;
}
);
leftKerningGroup = quoteright;
note = quoteright;
rightKerningGroup = quoteright;
unicode = 2019;
},
{
glyphname = quotesinglbase;
lastChange = "2019-02-03 18:41:26 +0000";
layers = (
{
layerId = "A1F39B41-468B-47E4-A64F-494FF9F69BAB";
paths = (
{
closed = 1;
nodes = (
"-7 -123 LINE",
"6 -114 OFFCURVE",
"20 -102 OFFCURVE",
"35 -89 CURVE",
"63 -62 OFFCURVE",
"89 -32 OFFCURVE",
"109 0 CURVE SMOOTH",
"128 31 OFFCURVE",
"134 61 OFFCURVE",
"134 74 CURVE SMOOTH",
"134 102 OFFCURVE",
"114 127 OFFCURVE",
"79 127 CURVE SMOOTH",
"64 127 OFFCURVE",
"50 123 OFFCURVE",
"39 115 CURVE SMOOTH",
"15 98 OFFCURVE",
"7 73 OFFCURVE",
"7 53 CURVE SMOOTH",
"7 28 OFFCURVE",
"26 3 OFFCURVE",
"54 3 CURVE",
"34 -36 OFFCURVE",
"-6 -84 OFFCURVE",
"-53 -123 CURVE"
);
}
);
width = 244;
}
);
leftKerningGroup = period;
note = quotesinglbase;
rightKerningGroup = period;
unicode = 201A;
},
{
glyphname = guilsinglleft;
lastChange = "2019-02-03 18:41:26 +0000";
layers = (
{
layerId = "A1F39B41-468B-47E4-A64F-494FF9F69BAB";
paths = (
{
closed = 1;
nodes = (
"208 109 LINE",
"132 274 LINE",
"292 455 LINE",
"282 487 LINE",
"64 307 LINE",
"54 263 LINE",
"187 83 LINE"
);
}
);
width = 287;
}
);
leftKerningGroup = guilsinglleft;
note = guilsinglleft;
rightKerningGroup = guilsinglleft;
unicode = 2039;
},
{
glyphname = guilsinglright;
lastChange = "2019-02-03 18:41:26 +0000";
layers = (
{
layerId = "A1F39B41-468B-47E4-A64F-494FF9F69BAB";
paths = (
{
closed = 1;
nodes = (
"238 263 LINE",
"248 307 LINE",
"115 487 LINE",
"94 461 LINE",
"170 296 LINE",
"10 115 LINE",
"20 83 LINE"
);
}
);
width = 287;
}
);
leftKerningGroup = guilsinglright;
note = guilsinglright;
rightKerningGroup = guilsinglright;
unicode = 203A;
},
{
glyphname = exclamdown;
lastChange = "2019-02-03 18:41:26 +0000";
layers = (
{
layerId = "A1F39B41-468B-47E4-A64F-494FF9F69BAB";
paths = (
{
closed = 1;
nodes = (
"201 402 OFFCURVE",
"228 422 OFFCURVE",
"237 455 CURVE SMOOTH",
"240 467 OFFCURVE",
"240 471 OFFCURVE",
"240 478 CURVE SMOOTH",
"240 505 OFFCURVE",
"221 528 OFFCURVE",
"186 528 CURVE SMOOTH",
"153 528 OFFCURVE",
"126 508 OFFCURVE",
"117 475 CURVE SMOOTH",
"114 463 OFFCURVE",
"114 459 OFFCURVE",
"114 452 CURVE SMOOTH",
"114 425 OFFCURVE",
"133 402 OFFCURVE",
"168 402 CURVE SMOOTH"
);
},
{
closed = 1;
nodes = (
"57 -182 LINE",
"110 29 LINE",
"162 332 LINE",
"129 332 LINE",
"29 29 LINE",
"-24 -182 LINE"
);
}
);
width = 254;
}
);
leftKerningGroup = exclamdown;
note = exclamdown;
rightKerningGroup = exclamdown;
unicode = 00A1;
},
{
glyphname = exclam;
lastChange = "2019-02-03 18:41:26 +0000";
layers = (
{
layerId = "A1F39B41-468B-47E4-A64F-494FF9F69BAB";
paths = (
{
closed = 1;
nodes = (
"100 -12 OFFCURVE",
"127 8 OFFCURVE",
"136 41 CURVE SMOOTH",
"139 53 OFFCURVE",
"139 57 OFFCURVE",
"139 64 CURVE SMOOTH",
"139 91 OFFCURVE",
"120 114 OFFCURVE",
"85 114 CURVE SMOOTH",
"52 114 OFFCURVE",
"25 94 OFFCURVE",
"16 61 CURVE SMOOTH",
"13 49 OFFCURVE",
"13 45 OFFCURVE",
"13 38 CURVE SMOOTH",
"13 11 OFFCURVE",
"32 -12 OFFCURVE",
"67 -12 CURVE SMOOTH"
);
},
{
closed = 1;
nodes = (
"124 184 LINE",
"224 487 LINE",
"277 698 LINE",
"196 698 LINE",
"143 487 LINE",
"91 184 LINE"
);
}
);
width = 254;
}
);
leftKerningGroup = exclam;
note = exclam;
unicode = 0021;
},
{
glyphname = questiondown;
lastChange = "2019-02-03 18:41:26 +0000";
layers = (
{
layerId = "A1F39B41-468B-47E4-A64F-494FF9F69BAB";
paths = (
{
closed = 1;
nodes = (
"168 -193 OFFCURVE",
"221 -179 OFFCURVE",
"262 -155 CURVE SMOOTH",
"303 -131 OFFCURVE",
"332 -97 OFFCURVE",
"332 -57 CURVE SMOOTH",
"332 -26 OFFCURVE",
"312 -6 OFFCURVE",
"280 -6 CURVE SMOOTH",
"259 -6 OFFCURVE",
"244 -16 OFFCURVE",
"233 -28 CURVE",
"222 -41 OFFCURVE",
"217 -57 OFFCURVE",
"217 -70 CURVE SMOOTH",
"217 -97 OFFCURVE",
"229 -110 OFFCURVE",
"248 -117 CURVE",
"246 -124 LINE",
"223 -139 OFFCURVE",
"181 -147 OFFCURVE",
"142 -147 CURVE SMOOTH",
"86 -147 OFFCURVE",
"51 -119 OFFCURVE",
"51 -64 CURVE SMOOTH",
"51 -52 OFFCURVE",
"53 -40 OFFCURVE",
"56 -27 CURVE SMOOTH",
"59 -14 OFFCURVE",
"61 -5 OFFCURVE",
"62 1 CURVE",
"85 92 OFFCURVE",
"165 145 OFFCURVE",
"266 150 CURVE",
"306 312 LINE",
"256 312 LINE",
"226 192 LINE",
"163 187 OFFCURVE",
"99 162 OFFCURVE",
"49 119 CURVE SMOOTH",
"-1 76 OFFCURVE",
"-35 16 OFFCURVE",
"-35 -60 CURVE SMOOTH",
"-35 -97 OFFCURVE",
"-24 -131 OFFCURVE",
"1 -155 CURVE SMOOTH",
"26 -179 OFFCURVE",
"65 -193 OFFCURVE",
"120 -193 CURVE SMOOTH"
);
},
{
closed = 1;
nodes = (
"340 402 OFFCURVE",
"367 422 OFFCURVE",
"376 455 CURVE SMOOTH",
"379 467 OFFCURVE",
"379 471 OFFCURVE",
"379 478 CURVE SMOOTH",
"379 505 OFFCURVE",
"360 528 OFFCURVE",
"325 528 CURVE SMOOTH",
"292 528 OFFCURVE",
"265 508 OFFCURVE",
"256 475 CURVE SMOOTH",
"253 463 OFFCURVE",
"253 459 OFFCURVE",
"253 452 CURVE SMOOTH",
"253 425 OFFCURVE",
"272 402 OFFCURVE",
"307 402 CURVE SMOOTH"
);
}
);
width = 444;
}
);
leftKerningGroup = questiondown;
note = questiondown;
rightKerningGroup = questiondown;
unicode = 00BF;
},
{
glyphname = question;
lastChange = "2019-02-03 18:41:26 +0000";
layers = (
{
layerId = "A1F39B41-468B-47E4-A64F-494FF9F69BAB";
paths = (
{
closed = 1;
nodes = (
"187 205 LINE",
"217 325 LINE",
"280 330 OFFCURVE",
"345 355 OFFCURVE",
"395 398 CURVE SMOOTH",
"445 441 OFFCURVE",
"478 501 OFFCURVE",
"478 577 CURVE SMOOTH",
"478 614 OFFCURVE",
"466 648 OFFCURVE",
"442 672 CURVE SMOOTH",
"417 696 OFFCURVE",
"378 710 OFFCURVE",
"323 710 CURVE SMOOTH",
"275 710 OFFCURVE",
"222 696 OFFCURVE",
"181 672 CURVE SMOOTH",
"140 648 OFFCURVE",
"111 614 OFFCURVE",
"111 574 CURVE SMOOTH",
"111 543 OFFCURVE",
"131 523 OFFCURVE",
"163 523 CURVE SMOOTH",
"184 523 OFFCURVE",
"199 533 OFFCURVE",
"210 546 CURVE",
"221 558 OFFCURVE",
"226 574 OFFCURVE",
"226 587 CURVE SMOOTH",
"226 614 OFFCURVE",
"214 627 OFFCURVE",
"195 634 CURVE",
"197 641 LINE",
"220 656 OFFCURVE",
"262 664 OFFCURVE",
"301 664 CURVE SMOOTH",
"357 664 OFFCURVE",
"392 636 OFFCURVE",
"392 581 CURVE SMOOTH",
"392 569 OFFCURVE",
"391 557 OFFCURVE",
"388 544 CURVE SMOOTH",
"385 531 OFFCURVE",
"382 522 OFFCURVE",
"381 516 CURVE",
"358 425 OFFCURVE",
"278 372 OFFCURVE",
"177 367 CURVE",
"137 205 LINE"
);
},
{
closed = 1;
nodes = (
"151 -11 OFFCURVE",
"178 9 OFFCURVE",
"187 42 CURVE SMOOTH",
"190 54 OFFCURVE",
"190 58 OFFCURVE",
"190 65 CURVE SMOOTH",
"190 92 OFFCURVE",
"171 115 OFFCURVE",
"136 115 CURVE SMOOTH",
"103 115 OFFCURVE",
"76 95 OFFCURVE",
"67 62 CURVE SMOOTH",
"64 50 OFFCURVE",
"64 46 OFFCURVE",
"64 39 CURVE SMOOTH",
"64 12 OFFCURVE",
"83 -11 OFFCURVE",
"118 -11 CURVE SMOOTH"
);
}
);
width = 444;
}
);
leftKerningGroup = question;
note = question;
rightKerningGroup = question;
unicode = 003F;
},
{
glyphname = parenleft;
lastChange = "2019-02-03 18:41:26 +0000";
layers = (
{
layerId = "A1F39B41-468B-47E4-A64F-494FF9F69BAB";
paths = (
{
closed = 1;
nodes = (
"202 -131 LINE",
"149 -75 OFFCURVE",
"123 15 OFFCURVE",
"123 115 CURVE SMOOTH",
"123 163 OFFCURVE",
"129 214 OFFCURVE",
"142 266 CURVE SMOOTH",
"162 344 LINE SMOOTH",
"183 429 OFFCURVE",
"219 511 OFFCURVE",
"264 581 CURVE SMOOTH",
"309 651 OFFCURVE",
"364 709 OFFCURVE",
"424 750 CURVE",
"405 778 LINE",
"341 739 OFFCURVE",
"271 677 OFFCURVE",
"209 599 CURVE SMOOTH",
"147 521 OFFCURVE",
"93 426 OFFCURVE",
"68 323 CURVE SMOOTH",
"55 268 OFFCURVE",
"49 217 OFFCURVE",
"49 169 CURVE SMOOTH",
"49 93 OFFCURVE",
"64 27 OFFCURVE",
"88 -28 CURVE SMOOTH",
"111 -83 OFFCURVE",
"142 -126 OFFCURVE",
"175 -154 CURVE"
);
}
);
width = 298;
}
);
note = parenleft;
rightKerningGroup = parenleft;
unicode = 0028;
},
{
glyphname = parenright;
lastChange = "2019-02-03 18:41:26 +0000";
layers = (
{
layerId = "A1F39B41-468B-47E4-A64F-494FF9F69BAB";
paths = (
{
closed = 1;
nodes = (
"-18 -115 OFFCURVE",
"53 -52 OFFCURVE",
"115 26 CURVE SMOOTH",
"177 104 OFFCURVE",
"228 198 OFFCURVE",
"255 301 CURVE SMOOTH",
"268 356 OFFCURVE",
"274 407 OFFCURVE",
"274 455 CURVE SMOOTH",
"274 531 OFFCURVE",
"259 597 OFFCURVE",
"236 652 CURVE SMOOTH",
"212 707 OFFCURVE",
"181 750 OFFCURVE",
"148 778 CURVE",
"121 755 LINE",
"174 699 OFFCURVE",
"200 609 OFFCURVE",
"200 509 CURVE SMOOTH",
"200 461 OFFCURVE",
"194 410 OFFCURVE",
"181 358 CURVE SMOOTH",
"161 280 LINE SMOOTH",
"140 193 OFFCURVE",
"104 114 OFFCURVE",
"59 44 CURVE SMOOTH",
"14 -26 OFFCURVE",
"-41 -85 OFFCURVE",
"-101 -126 CURVE",
"-82 -154 LINE"
);
}
);
width = 298;
}
);
leftKerningGroup = parenright;
note = parenright;
unicode = 0029;
},
{
glyphname = bracketleft;
lastChange = "2019-02-03 18:41:26 +0000";
layers = (
{
layerId = "A1F39B41-468B-47E4-A64F-494FF9F69BAB";
paths = (
{
closed = 1;
nodes = (
"159 -138 LINE",
"169 -97 LINE",
"61 -97 LINE",
"265 719 LINE",
"373 719 LINE",
"383 760 LINE",
"201 760 LINE",
"-24 -138 LINE"
);
}
);
width = 281;
}
);
note = bracketleft;
rightKerningGroup = bracketleft;
unicode = 005B;
},
{
glyphname = bracketright;
lastChange = "2019-02-03 18:41:26 +0000";
layers = (
{
layerId = "A1F39B41-468B-47E4-A64F-494FF9F69BAB";
paths = (
{
closed = 1;
nodes = (
"106 -138 LINE",
"331 760 LINE",
"148 760 LINE",
"138 719 LINE",
"246 719 LINE",
"42 -97 LINE",
"-66 -97 LINE",
"-76 -138 LINE"
);
}
);
width = 281;
}
);
leftKerningGroup = bracketright;
note = bracketright;
unicode = 005D;
},
{
glyphname = braceleft;
lastChange = "2019-02-03 18:41:26 +0000";
layers = (
{
layerId = "A1F39B41-468B-47E4-A64F-494FF9F69BAB";
paths = (
{
closed = 1;
nodes = (
"174 -138 LINE",
"184 -97 LINE",
"93 -97 LINE",
"162 179 LINE",
"165 189 OFFCURVE",
"166 199 OFFCURVE",
"166 209 CURVE SMOOTH",
"166 257 OFFCURVE",
"135 298 OFFCURVE",
"90 306 CURVE",
"93 316 LINE",
"122 320 OFFCURVE",
"151 335 OFFCURVE",
"175 356 CURVE SMOOTH",
"199 376 OFFCURVE",
"218 404 OFFCURVE",
"226 435 CURVE SMOOTH",
"297 719 LINE",
"388 719 LINE",
"398 760 LINE",
"307 760 LINE SMOOTH",
"256 760 OFFCURVE",
"227 732 OFFCURVE",
"216 696 CURVE",
"148 426 LINE SMOOTH",
"133 367 OFFCURVE",
"86 335 OFFCURVE",
"33 335 CURVE",
"21 286 LINE",
"65 286 OFFCURVE",
"95 267 OFFCURVE",
"95 227 CURVE SMOOTH",
"95 220 OFFCURVE",
"94 211 OFFCURVE",
"92 201 CURVE",
"28 -58 LINE",
"25 -68 OFFCURVE",
"24 -77 OFFCURVE",
"24 -85 CURVE SMOOTH",
"24 -116 OFFCURVE",
"41 -138 OFFCURVE",
"78 -138 CURVE SMOOTH"
);
}
);
width = 299;
}
);
note = braceleft;
rightKerningGroup = braceleft;
unicode = 007B;
},
{
glyphname = braceright;
lastChange = "2019-02-03 18:41:26 +0000";
layers = (
{
layerId = "A1F39B41-468B-47E4-A64F-494FF9F69BAB";
paths = (
{
closed = 1;
nodes = (
"17 -138 LINE SMOOTH",
"68 -138 OFFCURVE",
"97 -110 OFFCURVE",
"108 -74 CURVE",
"176 196 LINE SMOOTH",
"191 255 OFFCURVE",
"238 287 OFFCURVE",
"291 287 CURVE",
"303 336 LINE",
"259 336 OFFCURVE",
"229 355 OFFCURVE",
"229 395 CURVE SMOOTH",
"229 402 OFFCURVE",
"230 411 OFFCURVE",
"232 421 CURVE",
"296 680 LINE",
"299 690 OFFCURVE",
"300 699 OFFCURVE",
"300 707 CURVE SMOOTH",
"300 738 OFFCURVE",
"283 760 OFFCURVE",
"246 760 CURVE SMOOTH",
"150 760 LINE",
"140 719 LINE",
"231 719 LINE",
"162 443 LINE",
"159 433 OFFCURVE",
"158 423 OFFCURVE",
"158 413 CURVE SMOOTH",
"158 365 OFFCURVE",
"189 324 OFFCURVE",
"234 316 CURVE",
"231 306 LINE",
"202 302 OFFCURVE",
"173 287 OFFCURVE",
"149 267 CURVE SMOOTH",
"125 246 OFFCURVE",
"106 218 OFFCURVE",
"98 187 CURVE SMOOTH",
"27 -97 LINE",
"-64 -97 LINE",
"-74 -138 LINE"
);
}
);
width = 299;
}
);
leftKerningGroup = bracketright;
note = braceright;
unicode = 007D;
},
{
glyphname = slash;
lastChange = "2019-02-03 18:41:26 +0000";
layers = (
{
layerId = "A1F39B41-468B-47E4-A64F-494FF9F69BAB";
paths = (
{
closed = 1;
nodes = (
"-28 -143 LINE",
"434 748 LINE",
"373 748 LINE",
"-89 -143 LINE"
);
}
);
width = 350;
}
);
leftKerningGroup = slash;
note = slash;
rightKerningGroup = slash;
unicode = 002F;
},
{
glyphname = backslash;
lastChange = "2019-02-03 18:41:26 +0000";
layers = (
{
layerId = "A1F39B41-468B-47E4-A64F-494FF9F69BAB";
paths = (
{
closed = 1;
nodes = (
"237 -143 LINE",
"221 748 LINE",
"167 748 LINE",
"182 -143 LINE"
);
}
);
width = 351;
}
);
note = backslash;
unicode = 005C;
},
{
glyphname = fraction;
lastChange = "2019-02-03 18:41:26 +0000";
layers = (
{
layerId = "A1F39B41-468B-47E4-A64F-494FF9F69BAB";
paths = (
{
closed = 1;
nodes = (
"-214 0 LINE",
"402 698 LINE",
"345 698 LINE",
"-272 0 LINE"
);
}
);
width = 83;
}
);
note = fraction;
unicode = 2044;
},
{
glyphname = percent;
lastChange = "2019-02-03 18:41:26 +0000";
layers = (
{
layerId = "A1F39B41-468B-47E4-A64F-494FF9F69BAB";
paths = (
{
closed = 1;
nodes = (
"188 351 OFFCURVE",
"166 370 OFFCURVE",
"166 417 CURVE SMOOTH",
"166 434 OFFCURVE",
"171 459 OFFCURVE",
"176 483 CURVE SMOOTH",
"181 507 OFFCURVE",
"187 530 OFFCURVE",
"191 542 CURVE",
"212 629 OFFCURVE",
"250 673 OFFCURVE",
"305 673 CURVE SMOOTH",
"337 673 OFFCURVE",
"359 654 OFFCURVE",
"359 607 CURVE SMOOTH",
"359 590 OFFCURVE",
"354 565 OFFCURVE",
"349 541 CURVE SMOOTH",
"344 517 OFFCURVE",
"338 494 OFFCURVE",
"334 482 CURVE",
"313 395 OFFCURVE",
"275 351 OFFCURVE",
"220 351 CURVE SMOOTH"
);
},
{
closed = 1;
nodes = (
"545 25 OFFCURVE",
"523 44 OFFCURVE",
"523 91 CURVE SMOOTH",
"523 108 OFFCURVE",
"528 133 OFFCURVE",
"533 157 CURVE SMOOTH",
"538 181 OFFCURVE",
"544 204 OFFCURVE",
"548 216 CURVE",
"569 303 OFFCURVE",
"607 347 OFFCURVE",
"662 347 CURVE SMOOTH",
"694 347 OFFCURVE",
"716 328 OFFCURVE",
"716 281 CURVE SMOOTH",
"716 264 OFFCURVE",
"711 239 OFFCURVE",
"706 215 CURVE SMOOTH",
"701 191 OFFCURVE",
"695 168 OFFCURVE",
"691 156 CURVE",
"670 69 OFFCURVE",
"632 25 OFFCURVE",
"577 25 CURVE SMOOTH"
);
},
{
closed = 1;
nodes = (
"264 314 OFFCURVE",
"304 334 OFFCURVE",
"334 363 CURVE SMOOTH",
"364 392 OFFCURVE",
"385 432 OFFCURVE",
"400 473 CURVE SMOOTH",
"415 513 OFFCURVE",
"421 555 OFFCURVE",
"421 588 CURVE SMOOTH",
"421 676 OFFCURVE",
"374 710 OFFCURVE",
"309 710 CURVE SMOOTH",
"261 710 OFFCURVE",
"222 690 OFFCURVE",
"192 661 CURVE SMOOTH",
"162 632 OFFCURVE",
"140 592 OFFCURVE",
"125 552 CURVE SMOOTH",
"110 511 OFFCURVE",
"104 469 OFFCURVE",
"104 436 CURVE SMOOTH",
"104 348 OFFCURVE",
"151 314 OFFCURVE",
"216 314 CURVE SMOOTH"
);
},
{
closed = 1;
nodes = (
"621 -12 OFFCURVE",
"661 8 OFFCURVE",
"691 37 CURVE SMOOTH",
"721 66 OFFCURVE",
"742 106 OFFCURVE",
"757 147 CURVE SMOOTH",
"772 187 OFFCURVE",
"778 229 OFFCURVE",
"778 262 CURVE SMOOTH",
"778 350 OFFCURVE",
"731 384 OFFCURVE",
"666 384 CURVE SMOOTH",
"618 384 OFFCURVE",
"579 364 OFFCURVE",
"549 335 CURVE SMOOTH",
"519 306 OFFCURVE",
"497 266 OFFCURVE",
"482 226 CURVE SMOOTH",
"467 185 OFFCURVE",
"461 143 OFFCURVE",
"461 110 CURVE SMOOTH",
"461 22 OFFCURVE",
"508 -12 OFFCURVE",
"573 -12 CURVE SMOOTH"
);
},
{
closed = 1;
nodes = (
"160 0 LINE",
"774 698 LINE",
"718 698 LINE",
"104 0 LINE"
);
}
);
width = 836;
}
);
note = percent;
rightKerningGroup = percent;
unicode = 0025;
},
{
glyphname = perthousand;
lastChange = "2019-02-03 18:41:26 +0000";
layers = (
{
layerId = "A1F39B41-468B-47E4-A64F-494FF9F69BAB";
paths = (
{
closed = 1;
nodes = (
"188 351 OFFCURVE",
"166 370 OFFCURVE",
"166 417 CURVE SMOOTH",
"166 434 OFFCURVE",
"171 459 OFFCURVE",
"176 483 CURVE SMOOTH",
"181 507 OFFCURVE",
"187 530 OFFCURVE",
"191 542 CURVE",
"212 629 OFFCURVE",
"250 673 OFFCURVE",
"305 673 CURVE SMOOTH",
"337 673 OFFCURVE",
"359 654 OFFCURVE",
"359 607 CURVE SMOOTH",
"359 590 OFFCURVE",
"354 565 OFFCURVE",
"349 541 CURVE SMOOTH",
"344 517 OFFCURVE",
"338 494 OFFCURVE",
"334 482 CURVE",
"313 395 OFFCURVE",
"275 351 OFFCURVE",
"220 351 CURVE SMOOTH"
);
},
{
closed = 1;
nodes = (
"545 25 OFFCURVE",
"523 44 OFFCURVE",
"523 91 CURVE SMOOTH",
"523 108 OFFCURVE",
"528 133 OFFCURVE",
"533 157 CURVE SMOOTH",
"538 181 OFFCURVE",
"544 204 OFFCURVE",
"548 216 CURVE",
"569 303 OFFCURVE",
"607 347 OFFCURVE",
"662 347 CURVE SMOOTH",
"694 347 OFFCURVE",
"716 328 OFFCURVE",
"716 281 CURVE SMOOTH",
"716 264 OFFCURVE",
"711 239 OFFCURVE",
"706 215 CURVE SMOOTH",
"701 191 OFFCURVE",
"695 168 OFFCURVE",
"691 156 CURVE",
"670 69 OFFCURVE",
"632 25 OFFCURVE",
"577 25 CURVE SMOOTH"
);
},
{
closed = 1;
nodes = (
"900 25 OFFCURVE",
"878 44 OFFCURVE",
"878 91 CURVE SMOOTH",
"878 108 OFFCURVE",
"883 133 OFFCURVE",
"888 157 CURVE SMOOTH",
"893 181 OFFCURVE",
"899 204 OFFCURVE",
"903 216 CURVE",
"924 303 OFFCURVE",
"962 347 OFFCURVE",
"1017 347 CURVE SMOOTH",
"1049 347 OFFCURVE",
"1071 328 OFFCURVE",
"1071 281 CURVE SMOOTH",
"1071 264 OFFCURVE",
"1066 239 OFFCURVE",
"1061 215 CURVE SMOOTH",
"1056 191 OFFCURVE",
"1050 168 OFFCURVE",
"1046 156 CURVE",
"1025 69 OFFCURVE",
"987 25 OFFCURVE",
"932 25 CURVE SMOOTH"
);
},
{
closed = 1;
nodes = (
"264 314 OFFCURVE",
"304 334 OFFCURVE",
"334 363 CURVE SMOOTH",
"364 392 OFFCURVE",
"385 432 OFFCURVE",
"400 473 CURVE SMOOTH",
"415 513 OFFCURVE",
"421 555 OFFCURVE",
"421 588 CURVE SMOOTH",
"421 676 OFFCURVE",
"374 710 OFFCURVE",
"309 710 CURVE SMOOTH",
"261 710 OFFCURVE",
"222 690 OFFCURVE",
"192 661 CURVE SMOOTH",
"162 632 OFFCURVE",
"140 592 OFFCURVE",
"125 552 CURVE SMOOTH",
"110 511 OFFCURVE",
"104 469 OFFCURVE",
"104 436 CURVE SMOOTH",
"104 348 OFFCURVE",
"151 314 OFFCURVE",
"216 314 CURVE SMOOTH"
);
},
{
closed = 1;
nodes = (
"621 -12 OFFCURVE",
"661 8 OFFCURVE",
"691 37 CURVE SMOOTH",
"721 66 OFFCURVE",
"742 106 OFFCURVE",
"757 147 CURVE SMOOTH",
"772 187 OFFCURVE",
"778 229 OFFCURVE",
"778 262 CURVE SMOOTH",
"778 350 OFFCURVE",
"731 384 OFFCURVE",
"666 384 CURVE SMOOTH",
"618 384 OFFCURVE",
"579 364 OFFCURVE",
"549 335 CURVE SMOOTH",
"519 306 OFFCURVE",
"497 266 OFFCURVE",
"482 226 CURVE SMOOTH",
"467 185 OFFCURVE",
"461 143 OFFCURVE",
"461 110 CURVE SMOOTH",
"461 22 OFFCURVE",
"508 -12 OFFCURVE",
"573 -12 CURVE SMOOTH"
);
},
{
closed = 1;
nodes = (
"976 -12 OFFCURVE",
"1016 8 OFFCURVE",
"1046 37 CURVE SMOOTH",
"1076 66 OFFCURVE",
"1097 106 OFFCURVE",
"1112 147 CURVE SMOOTH",
"1127 187 OFFCURVE",
"1133 229 OFFCURVE",
"1133 262 CURVE SMOOTH",
"1133 350 OFFCURVE",
"1086 384 OFFCURVE",
"1021 384 CURVE SMOOTH",
"973 384 OFFCURVE",
"934 364 OFFCURVE",
"904 335 CURVE SMOOTH",
"874 306 OFFCURVE",
"852 266 OFFCURVE",
"837 226 CURVE SMOOTH",
"822 185 OFFCURVE",
"816 143 OFFCURVE",
"816 110 CURVE SMOOTH",
"816 22 OFFCURVE",
"863 -12 OFFCURVE",
"928 -12 CURVE SMOOTH"
);
},
{
closed = 1;
nodes = (
"160 0 LINE",
"774 698 LINE",
"718 698 LINE",
"104 0 LINE"
);
}
);
width = 1192;
}
);
note = perthousand;
rightKerningGroup = perthousand;
unicode = 2030;
},
{
glyphname = bar;
lastChange = "2019-02-03 18:41:26 +0000";
layers = (
{
layerId = "A1F39B41-468B-47E4-A64F-494FF9F69BAB";
paths = (
{
closed = 1;
nodes = (
"84 -138 LINE",
"308 760 LINE",
"252 760 LINE",
"29 -138 LINE"
);
}
);
width = 312;
}
);
note = bar;
unicode = 007C;
},
{
glyphname = brokenbar;
lastChange = "2019-02-03 18:41:26 +0000";
layers = (
{
layerId = "A1F39B41-468B-47E4-A64F-494FF9F69BAB";
paths = (
{
closed = 1;
nodes = (
"84 -138 LINE",
"173 221 LINE",
"118 221 LINE",
"29 -138 LINE"
);
},
{
closed = 1;
nodes = (
"219 401 LINE",
"308 760 LINE",
"252 760 LINE",
"163 401 LINE"
);
}
);
width = 312;
}
);
note = brokenbar;
unicode = 00A6;
},
{
glyphname = section;
lastChange = "2019-02-03 18:41:26 +0000";
layers = (
{
layerId = "A1F39B41-468B-47E4-A64F-494FF9F69BAB";
paths = (
{
closed = 1;
nodes = (
"201 -154 OFFCURVE",
"252 -135 OFFCURVE",
"289 -104 CURVE SMOOTH",
"325 -73 OFFCURVE",
"348 -32 OFFCURVE",
"348 15 CURVE SMOOTH",
"348 48 OFFCURVE",
"337 72 OFFCURVE",
"313 101 CURVE",
"315 111 LINE",
"356 120 OFFCURVE",
"393 137 OFFCURVE",
"420 162 CURVE SMOOTH",
"447 186 OFFCURVE",
"463 218 OFFCURVE",
"463 257 CURVE SMOOTH",
"463 274 OFFCURVE",
"460 290 OFFCURVE",
"454 304 CURVE SMOOTH",
"442 332 OFFCURVE",
"422 357 OFFCURVE",
"396 381 CURVE SMOOTH",
"383 393 OFFCURVE",
"369 406 OFFCURVE",
"355 419 CURVE SMOOTH",
"323 449 LINE SMOOTH",
"302 469 OFFCURVE",
"283 487 OFFCURVE",
"268 505 CURVE SMOOTH",
"253 523 OFFCURVE",
"244 543 OFFCURVE",
"244 567 CURVE SMOOTH",
"244 632 OFFCURVE",
"301 678 OFFCURVE",
"384 678 CURVE SMOOTH",
"399 678 OFFCURVE",
"418 677 OFFCURVE",
"431 670 CURVE",
"431 663 LINE",
"407 658 OFFCURVE",
"387 635 OFFCURVE",
"387 608 CURVE SMOOTH",
"387 579 OFFCURVE",
"409 563 OFFCURVE",
"434 563 CURVE SMOOTH",
"471 563 OFFCURVE",
"498 594 OFFCURVE",
"498 631 CURVE SMOOTH",
"498 658 OFFCURVE",
"484 678 OFFCURVE",
"461 691 CURVE SMOOTH",
"438 703 OFFCURVE",
"407 710 OFFCURVE",
"374 710 CURVE SMOOTH",
"317 710 OFFCURVE",
"266 691 OFFCURVE",
"230 660 CURVE SMOOTH",
"193 629 OFFCURVE",
"170 588 OFFCURVE",
"170 541 CURVE SMOOTH",
"170 508 OFFCURVE",
"181 484 OFFCURVE",
"205 455 CURVE",
"203 445 LINE",
"162 436 OFFCURVE",
"125 419 OFFCURVE",
"98 395 CURVE SMOOTH",
"71 370 OFFCURVE",
"55 338 OFFCURVE",
"55 299 CURVE SMOOTH",
"55 282 OFFCURVE",
"58 266 OFFCURVE",
"64 252 CURVE SMOOTH",
"76 224 OFFCURVE",
"97 199 OFFCURVE",
"123 175 CURVE SMOOTH",
"136 163 OFFCURVE",
"149 150 OFFCURVE",
"163 137 CURVE SMOOTH",
"195 107 LINE SMOOTH",
"216 87 OFFCURVE",
"235 70 OFFCURVE",
"250 52 CURVE SMOOTH",
"265 34 OFFCURVE",
"274 13 OFFCURVE",
"274 -11 CURVE SMOOTH",
"274 -76 OFFCURVE",
"217 -122 OFFCURVE",
"134 -122 CURVE SMOOTH",
"119 -122 OFFCURVE",
"100 -121 OFFCURVE",
"87 -114 CURVE",
"87 -107 LINE",
"111 -102 OFFCURVE",
"131 -79 OFFCURVE",
"131 -52 CURVE SMOOTH",
"131 -23 OFFCURVE",
"109 -7 OFFCURVE",
"84 -7 CURVE SMOOTH",
"47 -7 OFFCURVE",
"20 -38 OFFCURVE",
"20 -75 CURVE SMOOTH",
"20 -102 OFFCURVE",
"34 -122 OFFCURVE",
"57 -134 CURVE SMOOTH",
"80 -147 OFFCURVE",
"111 -154 OFFCURVE",
"144 -154 CURVE SMOOTH"
);
},
{
closed = 1;
nodes = (
"130 367 OFFCURVE",
"163 412 OFFCURVE",
"232 427 CURVE",
"239 420 OFFCURVE",
"246 413 OFFCURVE",
"254 406 CURVE",
"261 399 OFFCURVE",
"270 391 OFFCURVE",
"279 382 CURVE",
"312 352 LINE SMOOTH",
"355 313 OFFCURVE",
"388 285 OFFCURVE",
"388 237 CURVE SMOOTH",
"388 189 OFFCURVE",
"355 144 OFFCURVE",
"286 129 CURVE",
"279 136 OFFCURVE",
"272 144 OFFCURVE",
"265 151 CURVE",
"257 158 OFFCURVE",
"248 165 OFFCURVE",
"239 174 CURVE",
"206 204 LINE SMOOTH",
"163 243 OFFCURVE",
"130 271 OFFCURVE",
"130 319 CURVE SMOOTH"
);
}
);
width = 524;
}
);
note = section;
unicode = 00A7;
},
{
glyphname = paragraph;
lastChange = "2019-02-03 18:41:26 +0000";
layers = (
{
layerId = "A1F39B41-468B-47E4-A64F-494FF9F69BAB";
paths = (
{
closed = 1;
nodes = (
"280 -154 OFFCURVE",
"357 -80 OFFCURVE",
"394 67 CURVE SMOOTH",
"542 657 LINE",
"613 657 LINE",
"623 698 LINE",
"368 698 LINE SMOOTH",
"293 698 OFFCURVE",
"223 678 OFFCURVE",
"171 639 CURVE SMOOTH",
"119 600 OFFCURVE",
"85 545 OFFCURVE",
"85 474 CURVE SMOOTH",
"85 417 OFFCURVE",
"105 375 OFFCURVE",
"141 348 CURVE SMOOTH",
"176 320 OFFCURVE",
"225 306 OFFCURVE",
"281 306 CURVE",
"176 -114 LINE",
"169 -114 LINE SMOOTH",
"129 -114 OFFCURVE",
"99 -106 OFFCURVE",
"80 -90 CURVE",
"82 -82 LINE",
"114 -75 OFFCURVE",
"133 -53 OFFCURVE",
"133 -20 CURVE SMOOTH",
"133 4 OFFCURVE",
"116 24 OFFCURVE",
"85 24 CURVE SMOOTH",
"52 24 OFFCURVE",
"22 -3 OFFCURVE",
"22 -50 CURVE SMOOTH",
"22 -78 OFFCURVE",
"37 -104 OFFCURVE",
"62 -123 CURVE SMOOTH",
"87 -143 OFFCURVE",
"123 -154 OFFCURVE",
"164 -154 CURVE SMOOTH"
);
},
{
closed = 1;
nodes = (
"496 657 LINE",
"348 67 LINE SMOOTH",
"325 -26 OFFCURVE",
"282 -83 OFFCURVE",
"225 -104 CURVE",
"415 657 LINE"
);
}
);
width = 558;
}
);
note = paragraph;
unicode = 00B6;
},
{
glyphname = copyright;
lastChange = "2019-02-03 18:41:26 +0000";
layers = (
{
layerId = "A1F39B41-468B-47E4-A64F-494FF9F69BAB";
paths = (
{
closed = 1;
nodes = (
"422 155 OFFCURVE",
"467 193 OFFCURVE",
"514 285 CURVE",
"491 297 LINE",
"453 232 OFFCURVE",
"414 199 OFFCURVE",
"373 199 CURVE SMOOTH",
"338 199 OFFCURVE",
"324 222 OFFCURVE",
"324 261 CURVE SMOOTH",
"324 292 OFFCURVE",
"333 339 OFFCURVE",
"342 374 CURVE SMOOTH",
"355 430 OFFCURVE",
"373 464 OFFCURVE",
"391 484 CURVE SMOOTH",
"409 504 OFFCURVE",
"429 510 OFFCURVE",
"452 510 CURVE SMOOTH",
"473 510 OFFCURVE",
"489 506 OFFCURVE",
"500 499 CURVE",
"500 494 LINE",
"465 491 OFFCURVE",
"451 468 OFFCURVE",
"451 447 CURVE SMOOTH",
"451 428 OFFCURVE",
"463 415 OFFCURVE",
"487 415 CURVE SMOOTH",
"518 415 OFFCURVE",
"537 438 OFFCURVE",
"537 469 CURVE SMOOTH",
"537 509 OFFCURVE",
"506 543 OFFCURVE",
"449 543 CURVE SMOOTH",
"382 543 OFFCURVE",
"335 499 OFFCURVE",
"304 443 CURVE SMOOTH",
"273 386 OFFCURVE",
"259 316 OFFCURVE",
"259 263 CURVE SMOOTH",
"259 191 OFFCURVE",
"287 155 OFFCURVE",
"355 155 CURVE SMOOTH"
);
},
{
closed = 1;
nodes = (
"207 27 OFFCURVE",
"121 122 OFFCURVE",
"121 287 CURVE SMOOTH",
"121 312 OFFCURVE",
"129 351 OFFCURVE",
"140 395 CURVE SMOOTH",
"157 470 OFFCURVE",
"198 540 OFFCURVE",
"255 590 CURVE SMOOTH",
"311 640 OFFCURVE",
"384 671 OFFCURVE",
"464 671 CURVE SMOOTH",
"605 671 OFFCURVE",
"691 576 OFFCURVE",
"691 411 CURVE SMOOTH",
"691 386 OFFCURVE",
"683 347 OFFCURVE",
"672 303 CURVE SMOOTH",
"655 228 OFFCURVE",
"614 159 OFFCURVE",
"558 109 CURVE SMOOTH",
"501 59 OFFCURVE",
"428 27 OFFCURVE",
"348 27 CURVE SMOOTH"
);
},
{
closed = 1;
nodes = (
"454 -12 OFFCURVE",
"552 36 OFFCURVE",
"624 114 CURVE SMOOTH",
"695 192 OFFCURVE",
"738 297 OFFCURVE",
"738 416 CURVE SMOOTH",
"738 503 OFFCURVE",
"713 576 OFFCURVE",
"667 628 CURVE SMOOTH",
"621 680 OFFCURVE",
"554 710 OFFCURVE",
"470 710 CURVE SMOOTH",
"358 710 OFFCURVE",
"260 663 OFFCURVE",
"189 585 CURVE SMOOTH",
"117 507 OFFCURVE",
"74 399 OFFCURVE",
"74 282 CURVE SMOOTH",
"74 195 OFFCURVE",
"99 122 OFFCURVE",
"145 70 CURVE SMOOTH",
"191 18 OFFCURVE",
"258 -12 OFFCURVE",
"342 -12 CURVE SMOOTH"
);
}
);
width = 778;
}
);
leftKerningGroup = copyright;
note = copyright;
rightKerningGroup = copyright;
unicode = 00A9;
},
{
glyphname = registered;
lastChange = "2019-02-03 18:41:26 +0000";
layers = (
{
layerId = "A1F39B41-468B-47E4-A64F-494FF9F69BAB";
paths = (
{
closed = 1;
nodes = (
"240 398 LINE",
"245 416 LINE",
"226 416 LINE",
"245 490 LINE",
"276 490 LINE",
"296 428 LINE SMOOTH",
"303 404 OFFCURVE",
"314 398 OFFCURVE",
"341 398 CURVE SMOOTH",
"353 398 LINE",
"358 416 LINE",
"355 416 LINE SMOOTH",
"342 416 OFFCURVE",
"334 422 OFFCURVE",
"330 434 CURVE SMOOTH",
"312 493 LINE",
"352 502 OFFCURVE",
"372 532 OFFCURVE",
"372 565 CURVE SMOOTH",
"372 595 OFFCURVE",
"353 610 OFFCURVE",
"315 610 CURVE SMOOTH",
"218 610 LINE",
"214 592 LINE",
"235 592 LINE",
"191 416 LINE",
"170 416 LINE",
"165 398 LINE"
);
},
{
closed = 1;
nodes = (
"222 329 OFFCURVE",
"186 344 OFFCURVE",
"161 370 CURVE SMOOTH",
"136 396 OFFCURVE",
"121 430 OFFCURVE",
"121 473 CURVE SMOOTH",
"121 481 OFFCURVE",
"124 510 OFFCURVE",
"127 526 CURVE SMOOTH",
"136 570 OFFCURVE",
"159 609 OFFCURVE",
"189 636 CURVE SMOOTH",
"219 663 OFFCURVE",
"258 679 OFFCURVE",
"303 679 CURVE SMOOTH",
"343 679 OFFCURVE",
"379 665 OFFCURVE",
"404 639 CURVE SMOOTH",
"429 613 OFFCURVE",
"444 576 OFFCURVE",
"444 535 CURVE SMOOTH",
"444 527 OFFCURVE",
"441 498 OFFCURVE",
"438 482 CURVE SMOOTH",
"429 438 OFFCURVE",
"407 399 OFFCURVE",
"377 372 CURVE SMOOTH",
"347 345 OFFCURVE",
"307 329 OFFCURVE",
"262 329 CURVE SMOOTH"
);
},
{
closed = 1;
nodes = (
"323 298 OFFCURVE",
"377 323 OFFCURVE",
"416 367 CURVE SMOOTH",
"455 410 OFFCURVE",
"477 469 OFFCURVE",
"477 537 CURVE SMOOTH",
"477 586 OFFCURVE",
"459 629 OFFCURVE",
"428 661 CURVE SMOOTH",
"397 692 OFFCURVE",
"355 710 OFFCURVE",
"306 710 CURVE SMOOTH",
"242 710 OFFCURVE",
"188 685 OFFCURVE",
"149 642 CURVE SMOOTH",
"110 598 OFFCURVE",
"88 539 OFFCURVE",
"88 471 CURVE SMOOTH",
"88 422 OFFCURVE",
"106 379 OFFCURVE",
"137 348 CURVE SMOOTH",
"168 316 OFFCURVE",
"210 298 OFFCURVE",
"259 298 CURVE SMOOTH"
);
},
{
closed = 1;
nodes = (
"309 587 LINE SMOOTH",
"324 587 OFFCURVE",
"332 580 OFFCURVE",
"332 567 CURVE SMOOTH",
"332 560 OFFCURVE",
"331 552 OFFCURVE",
"328 543 CURVE",
"324 524 OFFCURVE",
"310 511 OFFCURVE",
"293 511 CURVE SMOOTH",
"251 511 LINE",
"269 587 LINE"
);
}
);
width = 451;
}
);
leftKerningGroup = registered;
note = registered;
rightKerningGroup = registered;
unicode = 00AE;
},
{
glyphname = trademark;
lastChange = "2019-02-03 18:41:26 +0000";
layers = (
{
layerId = "A1F39B41-468B-47E4-A64F-494FF9F69BAB";
paths = (
{
closed = 1;
nodes = (
"415 419 LINE",
"420 441 LINE",
"390 441 LINE",
"432 609 LINE",
"440 648 LINE",
"442 648 LINE",
"450 609 LINE",
"481 455 LINE",
"589 610 LINE",
"614 645 LINE",
"616 645 LINE",
"605 609 LINE",
"563 441 LINE",
"532 441 LINE",
"527 419 LINE",
"633 419 LINE",
"638 441 LINE",
"608 441 LINE",
"667 675 LINE",
"697 675 LINE",
"702 698 LINE",
"618 698 LINE",
"505 530 LINE",
"472 698 LINE",
"394 698 LINE",
"389 675 LINE",
"419 675 LINE",
"361 441 LINE",
"330 441 LINE",
"325 419 LINE"
);
},
{
closed = 1;
nodes = (
"237 419 LINE",
"242 441 LINE",
"206 441 LINE",
"264 671 LINE",
"319 671 LINE",
"307 627 LINE",
"342 627 LINE",
"361 698 LINE",
"131 698 LINE",
"113 627 LINE",
"148 627 LINE",
"160 671 LINE",
"215 671 LINE",
"158 441 LINE",
"121 441 LINE",
"116 419 LINE"
);
}
);
width = 649;
}
);
leftKerningGroup = trademark;
note = trademark;
rightKerningGroup = trademark;
unicode = 2122;
},
{
glyphname = ordfeminine;
lastChange = "2019-02-03 18:41:26 +0000";
layers = (
{
layerId = "A1F39B41-468B-47E4-A64F-494FF9F69BAB";
paths = (
{
closed = 1;
nodes = (
"195 346 OFFCURVE",
"239 371 OFFCURVE",
"267 438 CURVE",
"272 437 LINE",
"267 419 OFFCURVE",
"264 407 OFFCURVE",
"263 400 CURVE SMOOTH",
"262 393 OFFCURVE",
"261 388 OFFCURVE",
"261 383 CURVE SMOOTH",
"261 360 OFFCURVE",
"275 346 OFFCURVE",
"302 346 CURVE SMOOTH",
"321 346 OFFCURVE",
"341 356 OFFCURVE",
"372 391 CURVE SMOOTH",
"423 449 LINE",
"407 462 LINE",
"328 383 LINE",
"317 389 LINE",
"364 577 LINE SMOOTH",
"367 590 OFFCURVE",
"369 609 OFFCURVE",
"369 622 CURVE SMOOTH",
"369 675 OFFCURVE",
"328 704 OFFCURVE",
"269 704 CURVE SMOOTH",
"233 704 OFFCURVE",
"202 695 OFFCURVE",
"180 680 CURVE SMOOTH",
"158 664 OFFCURVE",
"144 644 OFFCURVE",
"144 624 CURVE SMOOTH",
"144 601 OFFCURVE",
"157 591 OFFCURVE",
"176 591 CURVE SMOOTH",
"200 591 OFFCURVE",
"217 610 OFFCURVE",
"217 635 CURVE SMOOTH",
"217 646 OFFCURVE",
"213 654 OFFCURVE",
"204 659 CURVE",
"205 665 LINE",
"222 672 OFFCURVE",
"238 676 OFFCURVE",
"255 676 CURVE SMOOTH",
"290 676 OFFCURVE",
"310 660 OFFCURVE",
"310 620 CURVE SMOOTH",
"310 605 OFFCURVE",
"308 586 OFFCURVE",
"297 547 CURVE",
"214 542 OFFCURVE",
"162 525 OFFCURVE",
"128 501 CURVE SMOOTH",
"94 477 OFFCURVE",
"81 446 OFFCURVE",
"81 413 CURVE SMOOTH",
"81 376 OFFCURVE",
"105 346 OFFCURVE",
"152 346 CURVE SMOOTH"
);
},
{
closed = 1;
nodes = (
"153 381 OFFCURVE",
"141 397 OFFCURVE",
"141 421 CURVE SMOOTH",
"141 442 OFFCURVE",
"147 462 OFFCURVE",
"162 478 CURVE SMOOTH",
"185 501 OFFCURVE",
"223 516 OFFCURVE",
"290 523 CURVE",
"285 500 LINE",
"278 475 OFFCURVE",
"261 445 OFFCURVE",
"241 422 CURVE SMOOTH",
"220 398 OFFCURVE",
"196 381 OFFCURVE",
"176 381 CURVE SMOOTH"
);
}
);
width = 364;
}
);
note = ordfeminine;
unicode = 00AA;
},
{
glyphname = ordmasculine;
lastChange = "2019-02-03 18:41:26 +0000";
layers = (
{
layerId = "A1F39B41-468B-47E4-A64F-494FF9F69BAB";
paths = (
{
closed = 1;
nodes = (
"177 378 OFFCURVE",
"153 400 OFFCURVE",
"153 444 CURVE SMOOTH",
"153 460 OFFCURVE",
"157 481 OFFCURVE",
"162 501 CURVE",
"166 521 OFFCURVE",
"171 540 OFFCURVE",
"175 555 CURVE SMOOTH",
"191 619 OFFCURVE",
"228 672 OFFCURVE",
"288 672 CURVE SMOOTH",
"324 672 OFFCURVE",
"348 650 OFFCURVE",
"348 606 CURVE SMOOTH",
"348 590 OFFCURVE",
"344 569 OFFCURVE",
"340 549 CURVE",
"335 529 OFFCURVE",
"330 508 OFFCURVE",
"326 495 CURVE",
"310 431 OFFCURVE",
"273 378 OFFCURVE",
"213 378 CURVE SMOOTH"
);
},
{
closed = 1;
nodes = (
"267 346 OFFCURVE",
"317 376 OFFCURVE",
"351 420 CURVE SMOOTH",
"385 464 OFFCURVE",
"405 524 OFFCURVE",
"405 584 CURVE SMOOTH",
"405 617 OFFCURVE",
"397 648 OFFCURVE",
"378 669 CURVE SMOOTH",
"359 690 OFFCURVE",
"331 704 OFFCURVE",
"291 704 CURVE SMOOTH",
"234 704 OFFCURVE",
"185 674 OFFCURVE",
"151 630 CURVE SMOOTH",
"117 586 OFFCURVE",
"96 526 OFFCURVE",
"96 466 CURVE SMOOTH",
"96 433 OFFCURVE",
"104 402 OFFCURVE",
"123 381 CURVE SMOOTH",
"142 360 OFFCURVE",
"170 346 OFFCURVE",
"210 346 CURVE SMOOTH"
);
}
);
width = 371;
}
);
note = ordmasculine;
unicode = 00BA;
},
{
glyphname = degree;
lastChange = "2019-02-03 18:41:26 +0000";
layers = (
{
layerId = "A1F39B41-468B-47E4-A64F-494FF9F69BAB";
paths = (
{
closed = 1;
nodes = (
"313 368 OFFCURVE",
"359 388 OFFCURVE",
"391 423 CURVE SMOOTH",
"423 458 OFFCURVE",
"442 505 OFFCURVE",
"442 560 CURVE SMOOTH",
"442 604 OFFCURVE",
"426 643 OFFCURVE",
"400 669 CURVE SMOOTH",
"374 695 OFFCURVE",
"337 710 OFFCURVE",
"297 710 CURVE SMOOTH",
"244 710 OFFCURVE",
"198 690 OFFCURVE",
"166 655 CURVE SMOOTH",
"134 620 OFFCURVE",
"115 572 OFFCURVE",
"115 519 CURVE SMOOTH",
"115 474 OFFCURVE",
"132 437 OFFCURVE",
"158 410 CURVE SMOOTH",
"184 383 OFFCURVE",
"220 368 OFFCURVE",
"260 368 CURVE SMOOTH"
);
},
{
closed = 1;
nodes = (
"206 417 OFFCURVE",
"169 462 OFFCURVE",
"169 518 CURVE SMOOTH",
"169 558 OFFCURVE",
"181 594 OFFCURVE",
"202 620 CURVE SMOOTH",
"223 646 OFFCURVE",
"255 661 OFFCURVE",
"292 661 CURVE SMOOTH",
"351 661 OFFCURVE",
"388 616 OFFCURVE",
"388 560 CURVE SMOOTH",
"388 520 OFFCURVE",
"375 485 OFFCURVE",
"354 459 CURVE SMOOTH",
"333 433 OFFCURVE",
"302 417 OFFCURVE",
"265 417 CURVE SMOOTH"
);
}
);
width = 425;
}
);
note = degree;
unicode = 00B0;
},
{
glyphname = uni2032;
lastChange = "2019-02-03 18:41:26 +0000";
layers = (
{
layerId = "A1F39B41-468B-47E4-A64F-494FF9F69BAB";
paths = (
{
closed = 1;
nodes = (
"285 698 LINE",
"199 698 LINE",
"81 378 LINE",
"116 378 LINE"
);
}
);
width = 233;
}
);
note = uni2032;
unicode = 2032;
},
{
glyphname = asterisk;
lastChange = "2019-02-03 18:41:26 +0000";
layers = (
{
layerId = "A1F39B41-468B-47E4-A64F-494FF9F69BAB";
paths = (
{
closed = 1;
nodes = (
"214 455 LINE",
"271 541 LINE",
"253 556 LINE",
"163 495 LINE",
"125 457 LINE",
"176 417 LINE"
);
},
{
closed = 1;
nodes = (
"264 596 LINE",
"193 643 LINE",
"151 657 LINE",
"115 599 LINE",
"158 585 LINE",
"253 577 LINE"
);
},
{
closed = 1;
nodes = (
"389 452 LINE",
"371 490 LINE",
"311 554 LINE",
"290 543 LINE",
"308 455 LINE",
"326 417 LINE"
);
},
{
closed = 1;
nodes = (
"310 611 LINE",
"355 700 LINE",
"366 747 LINE",
"296 747 LINE",
"284 700 LINE",
"286 611 LINE"
);
},
{
closed = 1;
nodes = (
"421 581 LINE",
"469 595 LINE",
"463 659 LINE",
"414 645 LINE",
"324 597 LINE",
"327 575 LINE"
);
}
);
width = 420;
}
);
leftKerningGroup = quotesingle;
note = asterisk;
rightKerningGroup = quotesingle;
unicode = 002A;
},
{
glyphname = dagger;
lastChange = "2019-02-03 18:41:26 +0000";
layers = (
{
layerId = "A1F39B41-468B-47E4-A64F-494FF9F69BAB";
paths = (
{
closed = 1;
nodes = (
"150 -200 LINE",
"228 27 LINE",
"286 258 LINE",
"312 452 LINE",
"284 452 LINE",
"215 258 LINE",
"156 27 LINE",
"121 -200 LINE"
);
},
{
closed = 1;
nodes = (
"173 458 LINE",
"271 479 LINE",
"276 501 LINE",
"189 521 LINE",
"106 521 LINE",
"90 458 LINE"
);
},
{
closed = 1;
nodes = (
"330 523 LINE",
"385 653 LINE",
"408 748 LINE",
"337 748 LINE",
"314 653 LINE",
"302 523 LINE"
);
},
{
closed = 1;
nodes = (
"509 458 LINE",
"524 521 LINE",
"442 521 LINE",
"345 501 LINE",
"339 479 LINE",
"426 458 LINE"
);
}
);
width = 500;
}
);
note = dagger;
unicode = 2020;
},
{
glyphname = daggerdbl;
lastChange = "2019-02-03 18:41:26 +0000";
layers = (
{
layerId = "A1F39B41-468B-47E4-A64F-494FF9F69BAB";
paths = (
{
closed = 1;
nodes = (
"226 96 LINE",
"278 219 LINE",
"306 329 LINE",
"315 452 LINE",
"287 452 LINE",
"235 329 LINE",
"207 219 LINE",
"198 96 LINE"
);
},
{
closed = 1;
nodes = (
"69 27 LINE",
"166 47 LINE",
"172 69 LINE",
"85 90 LINE",
"2 90 LINE",
"-13 27 LINE"
);
},
{
closed = 1;
nodes = (
"174 -200 LINE",
"197 -105 LINE",
"209 25 LINE",
"181 25 LINE",
"126 -105 LINE",
"103 -200 LINE"
);
},
{
closed = 1;
nodes = (
"175 458 LINE",
"273 479 LINE",
"278 501 LINE",
"191 521 LINE",
"108 521 LINE",
"92 458 LINE"
);
},
{
closed = 1;
nodes = (
"405 27 LINE",
"421 90 LINE",
"338 90 LINE",
"240 69 LINE",
"235 47 LINE",
"322 27 LINE"
);
},
{
closed = 1;
nodes = (
"332 523 LINE",
"387 653 LINE",
"410 748 LINE",
"339 748 LINE",
"316 653 LINE",
"304 523 LINE"
);
},
{
closed = 1;
nodes = (
"511 458 LINE",
"526 521 LINE",
"444 521 LINE",
"347 501 LINE",
"341 479 LINE",
"428 458 LINE"
);
}
);
width = 507;
}
);
note = daggerdbl;
unicode = 2021;
},
{
glyphname = numbersign;
lastChange = "2019-02-03 18:41:26 +0000";
layers = (
{
layerId = "A1F39B41-468B-47E4-A64F-494FF9F69BAB";
paths = (
{
closed = 1;
nodes = (
"124 0 LINE",
"211 213 LINE",
"359 213 LINE",
"272 0 LINE",
"327 0 LINE",
"414 213 LINE",
"538 213 LINE",
"549 258 LINE",
"433 258 LINE",
"506 440 LINE",
"631 440 LINE",
"642 485 LINE",
"524 485 LINE",
"611 698 LINE",
"556 698 LINE",
"469 485 LINE",
"321 485 LINE",
"408 698 LINE",
"353 698 LINE",
"266 485 LINE",
"142 485 LINE",
"131 440 LINE",
"247 440 LINE",
"174 258 LINE",
"50 258 LINE",
"39 213 LINE",
"156 213 LINE",
"69 0 LINE"
);
},
{
closed = 1;
nodes = (
"451 440 LINE",
"378 258 LINE",
"229 258 LINE",
"302 440 LINE"
);
}
);
width = 641;
}
);
note = numbersign;
unicode = 0023;
},
{
glyphname = asciicircum;
lastChange = "2019-02-03 18:41:26 +0000";
layers = (
{
layerId = "A1F39B41-468B-47E4-A64F-494FF9F69BAB";
paths = (
{
closed = 1;
nodes = (
"371 647 LINE",
"375 647 LINE",
"465 315 LINE",
"512 333 LINE",
"414 698 LINE",
"349 698 LINE",
"75 339 LINE",
"117 315 LINE"
);
}
);
width = 550;
}
);
note = asciicircum;
unicode = 005E;
},
{
glyphname = asciitilde;
lastChange = "2019-02-03 18:41:26 +0000";
layers = (
{
layerId = "A1F39B41-468B-47E4-A64F-494FF9F69BAB";
paths = (
{
closed = 1;
nodes = (
"438 247 OFFCURVE",
"469 265 OFFCURVE",
"501 297 CURVE",
"481 329 LINE",
"448 305 OFFCURVE",
"424 295 OFFCURVE",
"393 295 CURVE SMOOTH",
"356 295 OFFCURVE",
"330 310 OFFCURVE",
"297 329 CURVE SMOOTH",
"257 353 OFFCURVE",
"230 366 OFFCURVE",
"187 366 CURVE SMOOTH",
"134 366 OFFCURVE",
"103 348 OFFCURVE",
"71 316 CURVE",
"91 284 LINE",
"124 308 OFFCURVE",
"148 318 OFFCURVE",
"179 318 CURVE SMOOTH",
"216 318 OFFCURVE",
"242 303 OFFCURVE",
"275 284 CURVE SMOOTH",
"315 260 OFFCURVE",
"342 247 OFFCURVE",
"385 247 CURVE SMOOTH"
);
}
);
width = 550;
}
);
note = asciitilde;
unicode = 007E;
},
{
glyphname = plus;
lastChange = "2019-02-03 18:41:26 +0000";
layers = (
{
layerId = "A1F39B41-468B-47E4-A64F-494FF9F69BAB";
paths = (
{
closed = 1;
nodes = (
"255 76 LINE",
"307 281 LINE",
"495 281 LINE",
"507 329 LINE",
"320 329 LINE",
"372 534 LINE",
"318 534 LINE",
"266 329 LINE",
"78 329 LINE",
"66 281 LINE",
"253 281 LINE",
"201 76 LINE"
);
}
);
width = 550;
}
);
note = plus;
unicode = 002B;
},
{
glyphname = minus;
lastChange = "2019-02-03 18:41:26 +0000";
layers = (
{
layerId = "A1F39B41-468B-47E4-A64F-494FF9F69BAB";
paths = (
{
closed = 1;
nodes = (
"495 281 LINE",
"507 329 LINE",
"78 329 LINE",
"66 281 LINE"
);
}
);
width = 550;
}
);
note = minus;
unicode = 2212;
},
{
glyphname = plusminus;
lastChange = "2019-02-03 18:41:26 +0000";
layers = (
{
layerId = "A1F39B41-468B-47E4-A64F-494FF9F69BAB";
paths = (
{
closed = 1;
nodes = (
"279 167 LINE",
"329 367 LINE",
"517 367 LINE",
"529 415 LINE",
"341 415 LINE",
"392 615 LINE",
"338 615 LINE",
"287 415 LINE",
"99 415 LINE",
"87 367 LINE",
"275 367 LINE",
"225 167 LINE"
);
},
{
closed = 1;
nodes = (
"426 0 LINE",
"438 48 LINE",
"8 48 LINE",
"-4 0 LINE"
);
}
);
width = 550;
}
);
note = plusminus;
unicode = 00B1;
},
{
glyphname = multiply;
lastChange = "2019-02-03 18:41:26 +0000";
layers = (
{
layerId = "A1F39B41-468B-47E4-A64F-494FF9F69BAB";
paths = (
{
closed = 1;
nodes = (
"280 269 LINE",
"392 101 LINE",
"433 131 LINE",
"319 301 LINE",
"520 474 LINE",
"489 509 LINE",
"293 340 LINE",
"180 509 LINE",
"139 479 LINE",
"254 308 LINE",
"53 136 LINE",
"85 101 LINE"
);
}
);
width = 550;
}
);
note = multiply;
unicode = 00D7;
},
{
glyphname = divide;
lastChange = "2019-02-03 18:41:26 +0000";
layers = (
{
layerId = "A1F39B41-468B-47E4-A64F-494FF9F69BAB";
paths = (
{
closed = 1;
nodes = (
"266 64 OFFCURVE",
"286 83 OFFCURVE",
"294 110 CURVE",
"295 114 OFFCURVE",
"296 118 OFFCURVE",
"296 121 CURVE SMOOTH",
"296 124 OFFCURVE",
"296 127 OFFCURVE",
"296 130 CURVE SMOOTH",
"296 153 OFFCURVE",
"280 176 OFFCURVE",
"248 176 CURVE SMOOTH",
"217 176 OFFCURVE",
"197 157 OFFCURVE",
"189 130 CURVE",
"188 126 OFFCURVE",
"187 122 OFFCURVE",
"187 119 CURVE SMOOTH",
"187 116 OFFCURVE",
"187 113 OFFCURVE",
"187 110 CURVE SMOOTH",
"187 87 OFFCURVE",
"203 64 OFFCURVE",
"235 64 CURVE SMOOTH"
);
},
{
closed = 1;
nodes = (
"356 434 OFFCURVE",
"376 453 OFFCURVE",
"384 480 CURVE",
"385 484 OFFCURVE",
"386 488 OFFCURVE",
"386 491 CURVE SMOOTH",
"386 494 OFFCURVE",
"386 497 OFFCURVE",
"386 500 CURVE SMOOTH",
"386 523 OFFCURVE",
"370 546 OFFCURVE",
"338 546 CURVE SMOOTH",
"307 546 OFFCURVE",
"287 527 OFFCURVE",
"279 500 CURVE",
"278 496 OFFCURVE",
"277 492 OFFCURVE",
"277 489 CURVE SMOOTH",
"277 486 OFFCURVE",
"277 483 OFFCURVE",
"277 480 CURVE SMOOTH",
"277 457 OFFCURVE",
"293 434 OFFCURVE",
"325 434 CURVE SMOOTH"
);
},
{
closed = 1;
nodes = (
"495 281 LINE",
"507 329 LINE",
"78 329 LINE",
"66 281 LINE"
);
}
);
width = 550;
}
);
note = divide;
unicode = 00F7;
},
{
glyphname = equal;
lastChange = "2019-02-03 18:41:26 +0000";
layers = (
{
layerId = "A1F39B41-468B-47E4-A64F-494FF9F69BAB";
paths = (
{
closed = 1;
nodes = (
"469 179 LINE",
"481 227 LINE",
"52 227 LINE",
"40 179 LINE"
);
},
{
closed = 1;
nodes = (
"520 384 LINE",
"532 432 LINE",
"103 432 LINE",
"91 384 LINE"
);
}
);
width = 550;
}
);
note = equal;
unicode = 003D;
},
{
glyphname = notequal;
lastChange = "2019-02-03 18:41:26 +0000";
layers = (
{
layerId = "A1F39B41-468B-47E4-A64F-494FF9F69BAB";
paths = (
{
closed = 1;
nodes = (
"138 73 LINE",
"219 179 LINE",
"469 179 LINE",
"481 227 LINE",
"256 227 LINE",
"376 384 LINE",
"520 384 LINE",
"532 432 LINE",
"413 432 LINE",
"493 537 LINE",
"434 537 LINE",
"353 432 LINE",
"103 432 LINE",
"91 384 LINE",
"317 384 LINE",
"196 227 LINE",
"52 227 LINE",
"40 179 LINE",
"159 179 LINE",
"78 73 LINE"
);
}
);
width = 550;
}
);
note = notequal;
unicode = 2260;
},
{
glyphname = less;
lastChange = "2019-02-03 18:41:26 +0000";
layers = (
{
layerId = "A1F39B41-468B-47E4-A64F-494FF9F69BAB";
paths = (
{
closed = 1;
nodes = (
"398 38 LINE",
"137 256 LINE",
"139 263 LINE",
"508 481 LINE",
"524 544 LINE",
"92 295 LINE",
"77 235 LINE",
"386 -12 LINE"
);
}
);
width = 550;
}
);
note = less;
unicode = 003C;
},
{
glyphname = greater;
lastChange = "2019-02-03 18:41:26 +0000";
layers = (
{
layerId = "A1F39B41-468B-47E4-A64F-494FF9F69BAB";
paths = (
{
closed = 1;
nodes = (
"464 237 LINE",
"479 297 LINE",
"170 544 LINE",
"158 494 LINE",
"419 276 LINE",
"417 269 LINE",
"48 51 LINE",
"32 -12 LINE"
);
}
);
width = 550;
}
);
note = greater;
unicode = 003E;
},
{
glyphname = lessequal;
lastChange = "2019-02-03 18:41:26 +0000";
layers = (
{
layerId = "A1F39B41-468B-47E4-A64F-494FF9F69BAB";
paths = (
{
closed = 1;
nodes = (
"440 165 LINE",
"160 344 LINE",
"162 351 LINE",
"531 526 LINE",
"545 582 LINE",
"112 382 LINE",
"97 321 LINE",
"429 119 LINE"
);
},
{
closed = 1;
nodes = (
"399 0 LINE",
"411 48 LINE",
"28 48 LINE",
"16 0 LINE"
);
}
);
width = 550;
}
);
note = lessequal;
unicode = 2264;
},
{
glyphname = greaterequal;
lastChange = "2019-02-03 18:41:26 +0000";
layers = (
{
layerId = "A1F39B41-468B-47E4-A64F-494FF9F69BAB";
paths = (
{
closed = 1;
nodes = (
"481 319 LINE",
"496 380 LINE",
"164 582 LINE",
"153 536 LINE",
"433 357 LINE",
"431 350 LINE",
"62 175 LINE",
"48 119 LINE"
);
},
{
closed = 1;
nodes = (
"401 0 LINE",
"413 48 LINE",
"30 48 LINE",
"18 0 LINE"
);
}
);
width = 550;
}
);
note = greaterequal;
unicode = 2265;
},
{
glyphname = periodcentered;
lastChange = "2019-02-03 18:41:26 +0000";
layers = (
{
layerId = "A1F39B41-468B-47E4-A64F-494FF9F69BAB";
paths = (
{
closed = 1;
nodes = (
"182 241 OFFCURVE",
"209 261 OFFCURVE",
"218 294 CURVE SMOOTH",
"221 306 OFFCURVE",
"221 310 OFFCURVE",
"221 317 CURVE SMOOTH",
"221 344 OFFCURVE",
"202 367 OFFCURVE",
"167 367 CURVE SMOOTH",
"134 367 OFFCURVE",
"107 347 OFFCURVE",
"98 314 CURVE SMOOTH",
"95 302 OFFCURVE",
"95 298 OFFCURVE",
"95 291 CURVE SMOOTH",
"95 264 OFFCURVE",
"114 241 OFFCURVE",
"149 241 CURVE SMOOTH"
);
}
);
width = 301;
}
);
note = periodcentered;
unicode = 00B7;
},
{
glyphname = bullet;
lastChange = "2019-02-03 18:41:26 +0000";
layers = (
{
layerId = "A1F39B41-468B-47E4-A64F-494FF9F69BAB";
paths = (
{
closed = 1;
nodes = (
"241 192 OFFCURVE",
"290 229 OFFCURVE",
"305 289 CURVE SMOOTH",
"310 308 OFFCURVE",
"310 317 OFFCURVE",
"310 328 CURVE SMOOTH",
"310 351 OFFCURVE",
"301 374 OFFCURVE",
"285 391 CURVE",
"268 407 OFFCURVE",
"244 418 OFFCURVE",
"213 418 CURVE SMOOTH",
"153 418 OFFCURVE",
"104 381 OFFCURVE",
"89 321 CURVE SMOOTH",
"84 302 OFFCURVE",
"84 293 OFFCURVE",
"84 282 CURVE SMOOTH",
"84 259 OFFCURVE",
"93 236 OFFCURVE",
"110 220 CURVE",
"126 203 OFFCURVE",
"150 192 OFFCURVE",
"181 192 CURVE SMOOTH"
);
}
);
width = 380;
}
);
note = bullet;
unicode = 2022;
},
{
glyphname = lozenge;
lastChange = "2019-02-03 18:41:26 +0000";
layers = (
{
layerId = "A1F39B41-468B-47E4-A64F-494FF9F69BAB";
paths = (
{
closed = 1;
nodes = (
"245 0 LINE",
"528 346 LINE",
"415 698 LINE",
"347 698 LINE",
"64 352 LINE",
"177 0 LINE"
);
},
{
closed = 1;
nodes = (
"368 651 LINE",
"379 651 LINE",
"469 353 LINE",
"224 47 LINE",
"213 47 LINE",
"123 345 LINE"
);
}
);
width = 550;
}
);
note = lozenge;
unicode = 25CA;
},
{
glyphname = logicalnot;
lastChange = "2019-02-03 18:41:26 +0000";
layers = (
{
layerId = "A1F39B41-468B-47E4-A64F-494FF9F69BAB";
paths = (
{
closed = 1;
nodes = (
"433 81 LINE",
"495 329 LINE",
"78 329 LINE",
"66 281 LINE",
"429 281 LINE",
"379 81 LINE"
);
}
);
width = 550;
}
);
note = logicalnot;
unicode = 00AC;
},
{
glyphname = radical;
lastChange = "2019-02-03 18:41:26 +0000";
layers = (
{
layerId = "A1F39B41-468B-47E4-A64F-494FF9F69BAB";
paths = (
{
closed = 1;
nodes = (
"258 0 LINE",
"624 698 LINE",
"568 698 LINE",
"307 195 LINE",
"233 48 LINE",
"222 48 LINE",
"221 195 LINE",
"217 516 LINE",
"87 516 LINE",
"76 470 LINE",
"164 470 LINE",
"176 0 LINE"
);
}
);
width = 550;
}
);
note = radical;
unicode = 221A;
},
{
glyphname = integral;
lastChange = "2019-02-03 18:41:26 +0000";
layers = (
{
layerId = "A1F39B41-468B-47E4-A64F-494FF9F69BAB";
paths = (
{
closed = 1;
nodes = (
"60 -212 OFFCURVE",
"114 -155 OFFCURVE",
"141 -47 CURVE SMOOTH",
"303 600 LINE SMOOTH",
"323 680 OFFCURVE",
"351 723 OFFCURVE",
"414 726 CURVE",
"418 719 LINE",
"399 707 OFFCURVE",
"395 689 OFFCURVE",
"395 677 CURVE SMOOTH",
"395 650 OFFCURVE",
"412 630 OFFCURVE",
"443 630 CURVE SMOOTH",
"476 630 OFFCURVE",
"498 656 OFFCURVE",
"498 689 CURVE SMOOTH",
"498 724 OFFCURVE",
"474 752 OFFCURVE",
"411 752 CURVE SMOOTH",
"324 752 OFFCURVE",
"270 695 OFFCURVE",
"243 587 CURVE SMOOTH",
"81 -60 LINE SMOOTH",
"61 -140 OFFCURVE",
"33 -183 OFFCURVE",
"-30 -186 CURVE",
"-34 -179 LINE",
"-15 -167 OFFCURVE",
"-11 -149 OFFCURVE",
"-11 -137 CURVE SMOOTH",
"-11 -110 OFFCURVE",
"-28 -90 OFFCURVE",
"-59 -90 CURVE SMOOTH",
"-92 -90 OFFCURVE",
"-114 -116 OFFCURVE",
"-114 -149 CURVE SMOOTH",
"-114 -184 OFFCURVE",
"-90 -212 OFFCURVE",
"-27 -212 CURVE SMOOTH"
);
}
);
width = 380;
}
);
note = integral;
unicode = 222B;
},
{
glyphname = infinity;
lastChange = "2019-02-03 18:41:26 +0000";
layers = (
{
layerId = "A1F39B41-468B-47E4-A64F-494FF9F69BAB";
paths = (
{
closed = 1;
nodes = (
"217 115 OFFCURVE",
"281 158 OFFCURVE",
"324 257 CURVE",
"332 257 LINE",
"338 162 OFFCURVE",
"385 115 OFFCURVE",
"472 115 CURVE SMOOTH",
"532 115 OFFCURVE",
"585 144 OFFCURVE",
"624 189 CURVE SMOOTH",
"663 233 OFFCURVE",
"686 293 OFFCURVE",
"686 357 CURVE SMOOTH",
"686 440 OFFCURVE",
"643 495 OFFCURVE",
"563 495 CURVE SMOOTH",
"488 495 OFFCURVE",
"424 452 OFFCURVE",
"381 353 CURVE",
"373 353 LINE",
"367 448 OFFCURVE",
"320 495 OFFCURVE",
"233 495 CURVE SMOOTH",
"173 495 OFFCURVE",
"120 466 OFFCURVE",
"81 422 CURVE SMOOTH",
"42 377 OFFCURVE",
"19 317 OFFCURVE",
"19 253 CURVE SMOOTH",
"19 170 OFFCURVE",
"62 115 OFFCURVE",
"142 115 CURVE SMOOTH"
);
},
{
closed = 1;
nodes = (
"118 160 OFFCURVE",
"96 190 OFFCURVE",
"96 237 CURVE SMOOTH",
"96 250 OFFCURVE",
"97 265 OFFCURVE",
"101 282 CURVE SMOOTH",
"112 330 LINE SMOOTH",
"128 401 OFFCURVE",
"180 450 OFFCURVE",
"235 450 CURVE SMOOTH",
"295 450 OFFCURVE",
"322 405 OFFCURVE",
"322 305 CURVE",
"273 205 OFFCURVE",
"222 160 OFFCURVE",
"162 160 CURVE SMOOTH"
);
},
{
closed = 1;
nodes = (
"410 160 OFFCURVE",
"383 205 OFFCURVE",
"383 305 CURVE",
"432 405 OFFCURVE",
"483 450 OFFCURVE",
"543 450 CURVE SMOOTH",
"587 450 OFFCURVE",
"609 420 OFFCURVE",
"609 373 CURVE SMOOTH",
"609 360 OFFCURVE",
"608 345 OFFCURVE",
"604 328 CURVE SMOOTH",
"593 280 LINE SMOOTH",
"577 209 OFFCURVE",
"525 160 OFFCURVE",
"470 160 CURVE SMOOTH"
);
}
);
width = 690;
}
);
note = infinity;
unicode = 221E;
},
{
glyphname = uni212E;
lastChange = "2019-02-03 18:41:26 +0000";
layers = (
{
layerId = "A1F39B41-468B-47E4-A64F-494FF9F69BAB";
paths = (
{
closed = 1;
nodes = (
"432 -12 OFFCURVE",
"490 6 OFFCURVE",
"538 37 CURVE SMOOTH",
"586 68 OFFCURVE",
"622 110 OFFCURVE",
"649 161 CURVE",
"606 184 LINE",
"558 96 OFFCURVE",
"482 36 OFFCURVE",
"361 36 CURVE SMOOTH",
"276 36 OFFCURVE",
"212 71 OFFCURVE",
"171 118 CURVE",
"171 349 LINE",
"686 349 LINE",
"686 458 OFFCURVE",
"651 548 OFFCURVE",
"594 612 CURVE SMOOTH",
"537 675 OFFCURVE",
"454 710 OFFCURVE",
"361 710 CURVE SMOOTH",
"266 710 OFFCURVE",
"187 675 OFFCURVE",
"129 612 CURVE SMOOTH",
"71 548 OFFCURVE",
"37 458 OFFCURVE",
"37 349 CURVE SMOOTH",
"37 240 OFFCURVE",
"71 150 OFFCURVE",
"129 87 CURVE SMOOTH",
"187 23 OFFCURVE",
"266 -12 OFFCURVE",
"361 -12 CURVE SMOOTH"
);
},
{
closed = 1;
nodes = (
"212 630 OFFCURVE",
"276 665 OFFCURVE",
"361 665 CURVE SMOOTH",
"446 665 OFFCURVE",
"510 630 OFFCURVE",
"551 583 CURVE",
"551 394 LINE",
"171 394 LINE",
"171 583 LINE"
);
}
);
width = 722;
}
);
note = uni212E;
unicode = 212E;
},
{
glyphname = uni2113;
lastChange = "2019-02-03 18:41:26 +0000";
layers = (
{
layerId = "A1F39B41-468B-47E4-A64F-494FF9F69BAB";
paths = (
{
closed = 1;
nodes = (
"317 -12 OFFCURVE",
"356 4 OFFCURVE",
"386 29 CURVE SMOOTH",
"416 53 OFFCURVE",
"439 87 OFFCURVE",
"455 126 CURVE",
"417 150 LINE",
"389 89 OFFCURVE",
"345 37 OFFCURVE",
"281 37 CURVE SMOOTH",
"217 37 OFFCURVE",
"183 76 OFFCURVE",
"183 176 CURVE SMOOTH",
"183 223 LINE",
"314 343 OFFCURVE",
"387 458 OFFCURVE",
"387 595 CURVE SMOOTH",
"387 703 OFFCURVE",
"343 760 OFFCURVE",
"258 760 CURVE SMOOTH",
"218 760 OFFCURVE",
"183 748 OFFCURVE",
"159 718 CURVE SMOOTH",
"135 688 OFFCURVE",
"121 641 OFFCURVE",
"121 570 CURVE SMOOTH",
"121 238 LINE",
"108 227 OFFCURVE",
"94 218 OFFCURVE",
"80 209 CURVE SMOOTH",
"66 200 OFFCURVE",
"52 190 OFFCURVE",
"38 181 CURVE",
"59 146 LINE",
"86 161 OFFCURVE",
"104 171 OFFCURVE",
"123 186 CURVE",
"123 160 LINE SMOOTH",
"123 57 OFFCURVE",
"171 -12 OFFCURVE",
"270 -12 CURVE SMOOTH"
);
},
{
closed = 1;
nodes = (
"183 683 OFFCURVE",
"214 711 OFFCURVE",
"261 711 CURVE SMOOTH",
"300 711 OFFCURVE",
"326 681 OFFCURVE",
"326 612 CURVE SMOOTH",
"326 582 LINE SMOOTH",
"326 486 OFFCURVE",
"280 372 OFFCURVE",
"183 283 CURVE",
"183 590 LINE SMOOTH"
);
}
);
width = 485;
}
);
note = uni2113;
unicode = 2113;
},
{
glyphname = uni2116;
lastChange = "2019-02-03 18:41:26 +0000";
layers = (
{
layerId = "A1F39B41-468B-47E4-A64F-494FF9F69BAB";
paths = (
{
closed = 1;
nodes = (
"173 0 LINE",
"183 41 LINE",
"112 41 LINE",
"253 606 LINE",
"259 606 LINE",
"476 0 LINE",
"534 0 LINE",
"699 657 LINE",
"770 657 LINE",
"780 698 LINE",
"586 698 LINE",
"576 657 LINE",
"647 657 LINE",
"516 137 LINE",
"510 137 LINE",
"312 698 LINE",
"152 698 LINE",
"142 657 LINE",
"213 657 LINE",
"60 41 LINE",
"-11 41 LINE",
"-21 0 LINE"
);
},
{
closed = 1;
nodes = (
"852 396 OFFCURVE",
"828 418 OFFCURVE",
"828 462 CURVE SMOOTH",
"828 478 OFFCURVE",
"830 495 OFFCURVE",
"835 513 CURVE SMOOTH",
"840 530 OFFCURVE",
"844 546 OFFCURVE",
"847 559 CURVE SMOOTH",
"855 592 OFFCURVE",
"868 622 OFFCURVE",
"887 643 CURVE SMOOTH",
"906 664 OFFCURVE",
"929 678 OFFCURVE",
"960 678 CURVE SMOOTH",
"996 678 OFFCURVE",
"1020 656 OFFCURVE",
"1020 612 CURVE SMOOTH",
"1020 596 OFFCURVE",
"1018 579 OFFCURVE",
"1013 562 CURVE SMOOTH",
"1008 544 OFFCURVE",
"1004 528 OFFCURVE",
"1001 515 CURVE SMOOTH",
"993 482 OFFCURVE",
"980 452 OFFCURVE",
"961 431 CURVE SMOOTH",
"942 410 OFFCURVE",
"919 396 OFFCURVE",
"888 396 CURVE SMOOTH"
);
},
{
closed = 1;
nodes = (
"944 364 OFFCURVE",
"992 393 OFFCURVE",
"1025 436 CURVE SMOOTH",
"1058 479 OFFCURVE",
"1077 536 OFFCURVE",
"1077 591 CURVE SMOOTH",
"1077 623 OFFCURVE",
"1069 654 OFFCURVE",
"1050 675 CURVE SMOOTH",
"1031 696 OFFCURVE",
"1003 710 OFFCURVE",
"963 710 CURVE SMOOTH",
"904 710 OFFCURVE",
"856 681 OFFCURVE",
"823 638 CURVE SMOOTH",
"790 594 OFFCURVE",
"771 538 OFFCURVE",
"771 483 CURVE SMOOTH",
"771 451 OFFCURVE",
"779 420 OFFCURVE",
"798 399 CURVE SMOOTH",
"817 378 OFFCURVE",
"845 364 OFFCURVE",
"885 364 CURVE SMOOTH"
);
},
{
closed = 1;
nodes = (
"998 259 LINE",
"1010 305 LINE",
"723 305 LINE",
"711 259 LINE"
);
}
);
width = 1039;
}
);
note = uni2116;
unicode = 2116;
},
{
glyphname = partialdiff;
lastChange = "2019-02-03 18:41:26 +0000";
layers = (
{
layerId = "A1F39B41-468B-47E4-A64F-494FF9F69BAB";
paths = (
{
closed = 1;
nodes = (
"289 -12 OFFCURVE",
"360 40 OFFCURVE",
"409 119 CURVE SMOOTH",
"458 198 OFFCURVE",
"484 305 OFFCURVE",
"484 413 CURVE SMOOTH",
"484 526 OFFCURVE",
"435 621 OFFCURVE",
"339 698 CURVE",
"271 698 LINE",
"363 630 OFFCURVE",
"411 532 OFFCURVE",
"414 411 CURVE",
"407 409 LINE",
"403 469 OFFCURVE",
"369 504 OFFCURVE",
"306 504 CURVE SMOOTH",
"223 504 OFFCURVE",
"157 458 OFFCURVE",
"113 393 CURVE SMOOTH",
"68 328 OFFCURVE",
"44 244 OFFCURVE",
"44 168 CURVE SMOOTH",
"44 57 OFFCURVE",
"94 -12 OFFCURVE",
"197 -12 CURVE SMOOTH"
);
},
{
closed = 1;
nodes = (
"142 29 OFFCURVE",
"123 69 OFFCURVE",
"123 129 CURVE SMOOTH",
"123 145 OFFCURVE",
"123 155 OFFCURVE",
"127 176 CURVE SMOOTH",
"131 197 OFFCURVE",
"138 229 OFFCURVE",
"153 288 CURVE SMOOTH",
"165 336 OFFCURVE",
"184 380 OFFCURVE",
"210 412 CURVE SMOOTH",
"236 443 OFFCURVE",
"269 463 OFFCURVE",
"310 463 CURVE SMOOTH",
"369 463 OFFCURVE",
"388 423 OFFCURVE",
"388 363 CURVE SMOOTH",
"388 347 OFFCURVE",
"388 337 OFFCURVE",
"384 316 CURVE SMOOTH",
"380 295 OFFCURVE",
"373 263 OFFCURVE",
"358 204 CURVE SMOOTH",
"346 156 OFFCURVE",
"328 112 OFFCURVE",
"302 81 CURVE SMOOTH",
"276 49 OFFCURVE",
"242 29 OFFCURVE",
"201 29 CURVE SMOOTH"
);
}
);
width = 531;
}
);
note = partialdiff;
unicode = 2202;
},
{
glyphname = currency;
lastChange = "2019-02-03 18:41:26 +0000";
layers = (
{
layerId = "A1F39B41-468B-47E4-A64F-494FF9F69BAB";
paths = (
{
closed = 1;
nodes = (
"313 119 OFFCURVE",
"357 136 OFFCURVE",
"396 167 CURVE",
"465 62 LINE",
"512 100 LINE",
"440 210 LINE",
"487 267 OFFCURVE",
"515 347 OFFCURVE",
"515 426 CURVE SMOOTH",
"515 445 OFFCURVE",
"512 463 OFFCURVE",
"507 480 CURVE",
"629 585 LINE",
"595 633 LINE",
"479 532 LINE",
"454 560 OFFCURVE",
"416 579 OFFCURVE",
"364 579 CURVE SMOOTH",
"313 579 OFFCURVE",
"269 562 OFFCURVE",
"230 531 CURVE",
"161 636 LINE",
"114 598 LINE",
"186 488 LINE",
"139 431 OFFCURVE",
"111 351 OFFCURVE",
"111 272 CURVE SMOOTH",
"111 253 OFFCURVE",
"114 235 OFFCURVE",
"119 218 CURVE",
"-3 112 LINE",
"31 65 LINE",
"147 166 LINE",
"172 138 OFFCURVE",
"210 119 OFFCURVE",
"262 119 CURVE SMOOTH"
);
},
{
closed = 1;
nodes = (
"218 160 OFFCURVE",
"180 187 OFFCURVE",
"180 243 CURVE SMOOTH",
"180 254 OFFCURVE",
"181 266 OFFCURVE",
"183 279 CURVE SMOOTH",
"187 306 OFFCURVE",
"193 332 OFFCURVE",
"200 357 CURVE SMOOTH",
"203 369 OFFCURVE",
"206 379 OFFCURVE",
"208 388 CURVE",
"219 429 OFFCURVE",
"237 467 OFFCURVE",
"263 494 CURVE SMOOTH",
"289 521 OFFCURVE",
"321 538 OFFCURVE",
"360 538 CURVE SMOOTH",
"408 538 OFFCURVE",
"446 511 OFFCURVE",
"446 455 CURVE SMOOTH",
"446 444 OFFCURVE",
"445 432 OFFCURVE",
"443 419 CURVE SMOOTH",
"438 392 OFFCURVE",
"432 366 OFFCURVE",
"426 342 CURVE SMOOTH",
"423 329 OFFCURVE",
"420 319 OFFCURVE",
"418 310 CURVE",
"407 269 OFFCURVE",
"390 231 OFFCURVE",
"364 204 CURVE SMOOTH",
"338 177 OFFCURVE",
"305 160 OFFCURVE",
"266 160 CURVE SMOOTH"
);
}
);
width = 595;
}
);
note = currency;
unicode = 00A4;
},
{
glyphname = cent;
lastChange = "2019-02-03 18:41:26 +0000";
layers = (
{
layerId = "A1F39B41-468B-47E4-A64F-494FF9F69BAB";
paths = (
{
closed = 1;
nodes = (
"166 -114 LINE",
"192 -12 LINE",
"236 -9 OFFCURVE",
"273 7 OFFCURVE",
"306 38 CURVE SMOOTH",
"339 69 OFFCURVE",
"369 114 OFFCURVE",
"400 174 CURVE",
"369 189 LINE",
"320 101 OFFCURVE",
"268 48 OFFCURVE",
"204 45 CURVE",
"315 488 LINE",
"347 487 OFFCURVE",
"378 480 OFFCURVE",
"393 469 CURVE",
"393 461 LINE",
"344 458 OFFCURVE",
"325 426 OFFCURVE",
"325 398 CURVE SMOOTH",
"325 374 OFFCURVE",
"339 356 OFFCURVE",
"372 356 CURVE SMOOTH",
"413 356 OFFCURVE",
"439 386 OFFCURVE",
"439 429 CURVE SMOOTH",
"439 481 OFFCURVE",
"391 519 OFFCURVE",
"326 526 CURVE",
"352 629 LINE",
"305 629 LINE",
"279 525 LINE",
"195 514 OFFCURVE",
"136 453 OFFCURVE",
"98 378 CURVE SMOOTH",
"60 302 OFFCURVE",
"42 211 OFFCURVE",
"42 140 CURVE SMOOTH",
"42 51 OFFCURVE",
"73 -2 OFFCURVE",
"145 -10 CURVE",
"119 -114 LINE"
);
},
{
closed = 1;
nodes = (
"135 64 OFFCURVE",
"123 94 OFFCURVE",
"123 133 CURVE SMOOTH",
"123 156 OFFCURVE",
"127 184 OFFCURVE",
"132 212 CURVE SMOOTH",
"136 240 OFFCURVE",
"143 268 OFFCURVE",
"148 289 CURVE SMOOTH",
"180 413 OFFCURVE",
"218 465 OFFCURVE",
"270 481 CURVE",
"163 51 LINE"
);
}
);
width = 448;
}
);
note = cent;
unicode = 00A2;
},
{
glyphname = Euro;
lastChange = "2019-02-03 18:41:26 +0000";
layers = (
{
layerId = "A1F39B41-468B-47E4-A64F-494FF9F69BAB";
paths = (
{
closed = 1;
nodes = (
"306 -12 OFFCURVE",
"359 13 OFFCURVE",
"403 47 CURVE SMOOTH",
"446 81 OFFCURVE",
"479 124 OFFCURVE",
"499 160 CURVE",
"467 179 LINE",
"423 103 OFFCURVE",
"358 47 OFFCURVE",
"270 47 CURVE SMOOTH",
"234 47 OFFCURVE",
"201 58 OFFCURVE",
"177 83 CURVE SMOOTH",
"153 107 OFFCURVE",
"137 147 OFFCURVE",
"137 203 CURVE SMOOTH",
"137 216 OFFCURVE",
"138 232 OFFCURVE",
"141 251 CURVE",
"386 251 LINE",
"397 292 LINE",
"149 292 LINE",
"152 304 OFFCURVE",
"154 315 OFFCURVE",
"156 324 CURVE SMOOTH",
"160 342 OFFCURVE",
"164 359 OFFCURVE",
"169 376 CURVE",
"171 385 OFFCURVE",
"173 394 OFFCURVE",
"176 404 CURVE",
"424 404 LINE",
"435 445 LINE",
"188 445 LINE",
"208 505 OFFCURVE",
"237 558 OFFCURVE",
"276 598 CURVE SMOOTH",
"315 637 OFFCURVE",
"365 661 OFFCURVE",
"425 661 CURVE SMOOTH",
"468 661 OFFCURVE",
"502 654 OFFCURVE",
"527 639 CURVE",
"526 634 LINE",
"489 623 OFFCURVE",
"469 596 OFFCURVE",
"469 561 CURVE SMOOTH",
"469 530 OFFCURVE",
"487 510 OFFCURVE",
"522 510 CURVE SMOOTH",
"562 510 OFFCURVE",
"590 547 OFFCURVE",
"590 592 CURVE SMOOTH",
"590 629 OFFCURVE",
"571 659 OFFCURVE",
"539 679 CURVE SMOOTH",
"507 699 OFFCURVE",
"463 710 OFFCURVE",
"415 710 CURVE SMOOTH",
"332 710 OFFCURVE",
"264 675 OFFCURVE",
"211 622 CURVE SMOOTH",
"158 569 OFFCURVE",
"119 496 OFFCURVE",
"93 421 CURVE SMOOTH",
"67 346 OFFCURVE",
"54 269 OFFCURVE",
"54 205 CURVE SMOOTH",
"54 64 OFFCURVE",
"121 -12 OFFCURVE",
"246 -12 CURVE SMOOTH"
);
}
);
width = 562;
}
);
note = Euro;
unicode = 20AC;
},
{
glyphname = florin;
lastChange = "2019-02-03 18:41:26 +0000";
layers = (
{
layerId = "A1F39B41-468B-47E4-A64F-494FF9F69BAB";
paths = (
{
closed = 1;
nodes = (
"53 -146 OFFCURVE",
"127 -72 OFFCURVE",
"164 36 CURVE SMOOTH",
"252 296 LINE",
"437 296 LINE",
"451 338 LINE",
"266 338 LINE",
"331 528 LINE SMOOTH",
"347 572 OFFCURVE",
"363 611 OFFCURVE",
"384 639 CURVE SMOOTH",
"405 667 OFFCURVE",
"430 684 OFFCURVE",
"463 684 CURVE SMOOTH",
"471 684 LINE",
"474 677 LINE",
"453 662 OFFCURVE",
"447 641 OFFCURVE",
"447 629 CURVE SMOOTH",
"447 605 OFFCURVE",
"463 585 OFFCURVE",
"492 585 CURVE SMOOTH",
"527 585 OFFCURVE",
"552 614 OFFCURVE",
"552 649 CURVE SMOOTH",
"552 682 OFFCURVE",
"526 710 OFFCURVE",
"466 710 CURVE SMOOTH",
"362 710 OFFCURVE",
"288 636 OFFCURVE",
"251 528 CURVE SMOOTH",
"186 338 LINE",
"31 338 LINE",
"18 296 LINE",
"172 296 LINE",
"84 36 LINE SMOOTH",
"69 -8 OFFCURVE",
"52 -47 OFFCURVE",
"32 -75 CURVE SMOOTH",
"11 -103 OFFCURVE",
"-15 -120 OFFCURVE",
"-48 -120 CURVE SMOOTH",
"-56 -120 LINE",
"-59 -113 LINE",
"-38 -98 OFFCURVE",
"-32 -77 OFFCURVE",
"-32 -65 CURVE SMOOTH",
"-32 -41 OFFCURVE",
"-48 -21 OFFCURVE",
"-77 -21 CURVE SMOOTH",
"-112 -21 OFFCURVE",
"-137 -50 OFFCURVE",
"-137 -85 CURVE SMOOTH",
"-137 -118 OFFCURVE",
"-111 -146 OFFCURVE",
"-51 -146 CURVE SMOOTH"
);
}
);
width = 433;
}
);
note = florin;
unicode = 0192;
},
{
glyphname = sterling;
lastChange = "2019-02-03 18:41:26 +0000";
layers = (
{
layerId = "A1F39B41-468B-47E4-A64F-494FF9F69BAB";
paths = (
{
closed = 1;
nodes = (
"423 0 LINE",
"466 171 LINE",
"419 171 LINE",
"390 59 LINE",
"70 59 LINE",
"70 65 LINE",
"114 90 OFFCURVE",
"151 125 OFFCURVE",
"179 166 CURVE SMOOTH",
"206 206 OFFCURVE",
"223 254 OFFCURVE",
"224 307 CURVE",
"385 307 LINE",
"396 349 LINE",
"225 349 LINE",
"225 365 OFFCURVE",
"225 380 OFFCURVE",
"224 395 CURVE SMOOTH",
"223 410 OFFCURVE",
"223 423 OFFCURVE",
"223 435 CURVE SMOOTH",
"223 502 OFFCURVE",
"238 558 OFFCURVE",
"267 598 CURVE SMOOTH",
"296 638 OFFCURVE",
"340 661 OFFCURVE",
"399 661 CURVE SMOOTH",
"443 661 OFFCURVE",
"469 654 OFFCURVE",
"496 642 CURVE",
"495 636 LINE",
"458 625 OFFCURVE",
"438 597 OFFCURVE",
"438 564 CURVE SMOOTH",
"438 533 OFFCURVE",
"456 513 OFFCURVE",
"491 513 CURVE SMOOTH",
"531 513 OFFCURVE",
"559 551 OFFCURVE",
"559 595 CURVE SMOOTH",
"559 630 OFFCURVE",
"541 658 OFFCURVE",
"513 678 CURVE SMOOTH",
"484 698 OFFCURVE",
"443 710 OFFCURVE",
"399 710 CURVE SMOOTH",
"339 710 OFFCURVE",
"274 691 OFFCURVE",
"226 647 CURVE SMOOTH",
"177 602 OFFCURVE",
"142 531 OFFCURVE",
"142 430 CURVE SMOOTH",
"142 395 OFFCURVE",
"142 372 OFFCURVE",
"145 349 CURVE",
"73 349 LINE",
"62 307 LINE",
"146 307 LINE",
"146 247 OFFCURVE",
"126 193 OFFCURVE",
"99 150 CURVE SMOOTH",
"72 107 OFFCURVE",
"37 75 OFFCURVE",
"8 62 CURVE",
"-7 0 LINE"
);
}
);
width = 549;
}
);
note = sterling;
unicode = 00A3;
},
{
glyphname = dollar;
lastChange = "2019-02-03 18:41:26 +0000";
layers = (
{
layerId = "A1F39B41-468B-47E4-A64F-494FF9F69BAB";
paths = (
{
closed = 1;
nodes = (
"208 -82 LINE",
"227 -4 LINE",
"302 -1 OFFCURVE",
"363 26 OFFCURVE",
"407 68 CURVE SMOOTH",
"450 110 OFFCURVE",
"475 166 OFFCURVE",
"475 227 CURVE SMOOTH",
"475 304 OFFCURVE",
"439 347 OFFCURVE",
"350 386 CURVE SMOOTH",
"326 396 LINE",
"393 660 LINE",
"436 657 OFFCURVE",
"459 650 OFFCURVE",
"482 638 CURVE",
"481 633 LINE",
"445 622 OFFCURVE",
"425 594 OFFCURVE",
"425 561 CURVE SMOOTH",
"425 530 OFFCURVE",
"445 510 OFFCURVE",
"478 510 CURVE SMOOTH",
"521 510 OFFCURVE",
"545 548 OFFCURVE",
"545 589 CURVE SMOOTH",
"545 654 OFFCURVE",
"488 694 OFFCURVE",
"404 702 CURVE",
"423 780 LINE",
"376 780 LINE",
"356 702 LINE",
"289 699 OFFCURVE",
"231 678 OFFCURVE",
"190 643 CURVE SMOOTH",
"149 607 OFFCURVE",
"124 557 OFFCURVE",
"124 498 CURVE SMOOTH",
"124 415 OFFCURVE",
"167 376 OFFCURVE",
"254 337 CURVE SMOOTH",
"265 332 LINE",
"191 38 LINE",
"131 39 OFFCURVE",
"104 47 OFFCURVE",
"81 60 CURVE",
"81 65 LINE",
"118 76 OFFCURVE",
"138 104 OFFCURVE",
"138 137 CURVE SMOOTH",
"138 168 OFFCURVE",
"118 188 OFFCURVE",
"85 188 CURVE SMOOTH",
"42 188 OFFCURVE",
"18 150 OFFCURVE",
"18 109 CURVE SMOOTH",
"18 41 OFFCURVE",
"76 1 OFFCURVE",
"180 -4 CURVE",
"161 -82 LINE"
);
},
{
closed = 1;
nodes = (
"367 288 OFFCURVE",
"401 262 OFFCURVE",
"401 202 CURVE SMOOTH",
"401 159 OFFCURVE",
"383 122 OFFCURVE",
"355 94 CURVE SMOOTH",
"326 65 OFFCURVE",
"285 45 OFFCURVE",
"238 40 CURVE",
"306 315 LINE"
);
},
{
closed = 1;
nodes = (
"229 438 OFFCURVE",
"198 467 OFFCURVE",
"198 520 CURVE SMOOTH",
"198 553 OFFCURVE",
"211 586 OFFCURVE",
"236 611 CURVE SMOOTH",
"260 636 OFFCURVE",
"298 654 OFFCURVE",
"347 658 CURVE",
"285 413 LINE"
);
}
);
width = 539;
}
);
note = dollar;
unicode = 0024;
},
{
glyphname = yen;
lastChange = "2019-02-03 18:41:26 +0000";
layers = (
{
layerId = "A1F39B41-468B-47E4-A64F-494FF9F69BAB";
paths = (
{
closed = 1;
nodes = (
"346 0 LINE",
"356 41 LINE",
"274 41 LINE",
"302 153 LINE",
"465 153 LINE",
"475 194 LINE",
"312 194 LINE",
"339 305 LINE",
"503 305 LINE",
"513 346 LINE",
"367 346 LINE",
"604 657 LINE",
"656 657 LINE",
"666 698 LINE",
"476 698 LINE",
"466 657 LINE",
"542 657 LINE",
"330 370 LINE",
"324 370 LINE",
"261 657 LINE",
"337 657 LINE",
"347 698 LINE",
"132 698 LINE",
"122 657 LINE",
"174 657 LINE",
"255 346 LINE",
"108 346 LINE",
"97 305 LINE",
"260 305 LINE",
"232 194 LINE",
"70 194 LINE",
"59 153 LINE",
"222 153 LINE",
"195 41 LINE",
"113 41 LINE",
"103 0 LINE"
);
}
);
width = 579;
}
);
note = yen;
unicode = 00A5;
},
{
glyphname = uni0E3F;
lastChange = "2019-02-03 18:41:26 +0000";
layers = (
{
layerId = "A1F39B41-468B-47E4-A64F-494FF9F69BAB";
paths = (
{
closed = 1;
nodes = (
"247 -82 LINE",
"273 21 LINE",
"319 21 LINE SMOOTH",
"378 21 OFFCURVE",
"431 47 OFFCURVE",
"470 87 CURVE SMOOTH",
"509 127 OFFCURVE",
"533 182 OFFCURVE",
"533 239 CURVE SMOOTH",
"533 306 OFFCURVE",
"495 342 OFFCURVE",
"431 361 CURVE",
"433 366 LINE",
"466 374 OFFCURVE",
"507 390 OFFCURVE",
"539 421 CURVE SMOOTH",
"570 452 OFFCURVE",
"593 495 OFFCURVE",
"593 558 CURVE SMOOTH",
"593 638 OFFCURVE",
"545 677 OFFCURVE",
"453 677 CURVE SMOOTH",
"437 677 LINE",
"463 780 LINE",
"416 780 LINE",
"390 677 LINE",
"148 677 LINE",
"138 636 LINE",
"209 636 LINE",
"65 62 LINE",
"-6 62 LINE",
"-16 21 LINE",
"226 21 LINE",
"200 -82 LINE"
);
},
{
closed = 1;
nodes = (
"363 337 LINE SMOOTH",
"419 337 OFFCURVE",
"450 306 OFFCURVE",
"450 249 CURVE SMOOTH",
"450 245 OFFCURVE",
"450 240 OFFCURVE",
"449 235 CURVE SMOOTH",
"448 229 OFFCURVE",
"447 223 OFFCURVE",
"446 217 CURVE SMOOTH",
"444 205 OFFCURVE",
"441 194 OFFCURVE",
"440 190 CURVE SMOOTH",
"421 114 OFFCURVE",
"367 66 OFFCURVE",
"292 66 CURVE SMOOTH",
"283 66 LINE",
"351 337 LINE"
);
},
{
closed = 1;
nodes = (
"434 632 LINE SMOOTH",
"485 632 OFFCURVE",
"510 600 OFFCURVE",
"510 557 CURVE SMOOTH",
"510 538 OFFCURVE",
"502 507 OFFCURVE",
"499 496 CURVE SMOOTH",
"482 428 OFFCURVE",
"430 382 OFFCURVE",
"366 382 CURVE SMOOTH",
"362 382 LINE",
"425 632 LINE"
);
},
{
closed = 1;
nodes = (
"306 337 LINE",
"238 66 LINE",
"148 66 LINE",
"216 337 LINE"
);
},
{
closed = 1;
nodes = (
"380 632 LINE",
"317 382 LINE",
"227 382 LINE",
"290 632 LINE"
);
}
);
width = 584;
}
);
note = uni0E3F;
unicode = 0E3F;
},
{
glyphname = uni20A1;
lastChange = "2019-02-03 18:41:26 +0000";
layers = (
{
layerId = "A1F39B41-468B-47E4-A64F-494FF9F69BAB";
paths = (
{
closed = 1;
nodes = (
"139 -82 LINE",
"168 9 LINE",
"186 2 OFFCURVE",
"204 -1 OFFCURVE",
"223 -2 CURVE",
"197 -82 LINE",
"244 -82 LINE",
"270 -2 LINE",
"325 3 OFFCURVE",
"373 29 OFFCURVE",
"412 62 CURVE SMOOTH",
"451 94 OFFCURVE",
"481 135 OFFCURVE",
"500 168 CURVE",
"468 187 LINE",
"427 116 OFFCURVE",
"367 61 OFFCURVE",
"287 56 CURVE",
"481 649 LINE",
"502 645 OFFCURVE",
"521 639 OFFCURVE",
"538 630 CURVE",
"537 625 LINE",
"500 614 OFFCURVE",
"480 587 OFFCURVE",
"480 552 CURVE SMOOTH",
"480 521 OFFCURVE",
"498 501 OFFCURVE",
"533 501 CURVE SMOOTH",
"573 501 OFFCURVE",
"601 539 OFFCURVE",
"601 583 CURVE SMOOTH",
"601 636 OFFCURVE",
"556 671 OFFCURVE",
"496 690 CURVE",
"525 780 LINE",
"478 780 LINE",
"452 699 LINE",
"445 700 OFFCURVE",
"439 700 OFFCURVE",
"434 700 CURVE SMOOTH",
"428 700 OFFCURVE",
"422 700 OFFCURVE",
"417 700 CURVE SMOOTH",
"415 700 OFFCURVE",
"412 700 OFFCURVE",
"409 700 CURVE SMOOTH",
"405 700 OFFCURVE",
"400 700 OFFCURVE",
"394 699 CURVE",
"420 780 LINE",
"373 780 LINE",
"345 694 LINE",
"278 678 OFFCURVE",
"225 638 OFFCURVE",
"182 586 CURVE SMOOTH",
"138 534 OFFCURVE",
"107 470 OFFCURVE",
"86 404 CURVE SMOOTH",
"65 338 OFFCURVE",
"55 270 OFFCURVE",
"55 213 CURVE SMOOTH",
"55 126 OFFCURVE",
"79 65 OFFCURVE",
"128 30 CURVE",
"92 -82 LINE"
);
},
{
closed = 1;
nodes = (
"145 141 OFFCURVE",
"138 172 OFFCURVE",
"138 211 CURVE SMOOTH",
"138 236 OFFCURVE",
"144 272 OFFCURVE",
"152 306 CURVE SMOOTH",
"159 340 OFFCURVE",
"167 373 OFFCURVE",
"174 398 CURVE",
"198 501 OFFCURVE",
"246 590 OFFCURVE",
"325 630 CURVE",
"158 118 LINE"
);
},
{
closed = 1;
nodes = (
"224 61 OFFCURVE",
"206 69 OFFCURVE",
"190 80 CURVE",
"376 648 LINE",
"391 651 OFFCURVE",
"406 653 OFFCURVE",
"425 653 CURVE SMOOTH",
"437 653 LINE",
"243 58 LINE"
);
}
);
width = 573;
}
);
note = uni20A1;
unicode = 20A1;
},
{
glyphname = uni20A4;
lastChange = "2019-02-03 18:41:26 +0000";
layers = (
{
layerId = "A1F39B41-468B-47E4-A64F-494FF9F69BAB";
paths = (
{
closed = 1;
nodes = (
"423 0 LINE",
"466 171 LINE",
"419 171 LINE",
"390 59 LINE",
"70 59 LINE",
"70 65 LINE",
"142 106 OFFCURVE",
"196 169 OFFCURVE",
"216 250 CURVE",
"371 250 LINE",
"382 291 LINE",
"223 291 LINE",
"224 298 OFFCURVE",
"224 306 OFFCURVE",
"224 314 CURVE SMOOTH",
"224 321 OFFCURVE",
"224 330 OFFCURVE",
"224 339 CURVE SMOOTH",
"224 348 OFFCURVE",
"224 358 OFFCURVE",
"224 368 CURVE SMOOTH",
"224 377 OFFCURVE",
"224 389 OFFCURVE",
"223 402 CURVE",
"410 402 LINE",
"420 443 LINE",
"223 443 LINE",
"224 508 OFFCURVE",
"240 563 OFFCURVE",
"269 601 CURVE SMOOTH",
"298 639 OFFCURVE",
"342 661 OFFCURVE",
"399 661 CURVE SMOOTH",
"443 661 OFFCURVE",
"469 654 OFFCURVE",
"496 642 CURVE",
"495 636 LINE",
"458 625 OFFCURVE",
"438 597 OFFCURVE",
"438 564 CURVE SMOOTH",
"438 533 OFFCURVE",
"456 513 OFFCURVE",
"491 513 CURVE SMOOTH",
"531 513 OFFCURVE",
"559 551 OFFCURVE",
"559 595 CURVE SMOOTH",
"559 630 OFFCURVE",
"541 658 OFFCURVE",
"513 678 CURVE SMOOTH",
"484 698 OFFCURVE",
"443 710 OFFCURVE",
"399 710 CURVE SMOOTH",
"340 710 OFFCURVE",
"278 692 OFFCURVE",
"229 649 CURVE SMOOTH",
"180 606 OFFCURVE",
"145 540 OFFCURVE",
"142 443 CURVE",
"95 443 LINE",
"85 402 LINE",
"142 402 LINE",
"143 389 OFFCURVE",
"143 377 OFFCURVE",
"144 367 CURVE",
"144 356 OFFCURVE",
"144 346 OFFCURVE",
"145 337 CURVE",
"146 320 OFFCURVE",
"146 305 OFFCURVE",
"145 291 CURVE",
"57 291 LINE",
"47 250 LINE",
"139 250 LINE",
"127 198 OFFCURVE",
"106 157 OFFCURVE",
"82 126 CURVE SMOOTH",
"58 94 OFFCURVE",
"31 73 OFFCURVE",
"8 62 CURVE",
"-7 0 LINE"
);
}
);
width = 549;
}
);
note = uni20A4;
unicode = 20A4;
},
{
glyphname = uni20A6;
lastChange = "2019-02-03 18:41:26 +0000";
layers = (
{
layerId = "A1F39B41-468B-47E4-A64F-494FF9F69BAB";
paths = (
{
closed = 1;
nodes = (
"177 0 LINE",
"187 41 LINE",
"116 41 LINE",
"166 244 LINE",
"391 244 LINE",
"478 0 LINE",
"537 0 LINE",
"598 243 LINE",
"670 243 LINE",
"680 284 LINE",
"609 284 LINE",
"641 414 LINE",
"713 414 LINE",
"723 455 LINE",
"651 455 LINE",
"701 657 LINE",
"772 657 LINE",
"782 698 LINE",
"588 698 LINE",
"578 657 LINE",
"649 657 LINE",
"598 454 LINE",
"401 454 LINE",
"315 698 LINE",
"156 698 LINE",
"146 657 LINE",
"217 657 LINE",
"167 455 LINE",
"96 455 LINE",
"86 414 LINE",
"157 414 LINE",
"124 284 LINE",
"53 284 LINE",
"43 243 LINE",
"114 243 LINE",
"64 41 LINE",
"-7 41 LINE",
"-17 0 LINE"
);
},
{
closed = 1;
nodes = (
"263 606 LINE",
"376 283 LINE",
"176 283 LINE",
"257 606 LINE"
);
},
{
closed = 1;
nodes = (
"589 415 LINE",
"518 137 LINE",
"512 137 LINE",
"415 415 LINE"
);
}
);
width = 721;
}
);
note = uni20A6;
unicode = 20A6;
},
{
glyphname = uni20A8;
lastChange = "2019-02-03 18:41:26 +0000";
layers = (
{
layerId = "A1F39B41-468B-47E4-A64F-494FF9F69BAB";
paths = (
{
closed = 1;
nodes = (
"592 -12 OFFCURVE",
"638 3 OFFCURVE",
"669 28 CURVE SMOOTH",
"700 52 OFFCURVE",
"718 87 OFFCURVE",
"718 130 CURVE SMOOTH",
"718 178 OFFCURVE",
"696 207 OFFCURVE",
"671 235 CURVE SMOOTH",
"661 247 OFFCURVE",
"652 258 OFFCURVE",
"643 268 CURVE SMOOTH",
"634 278 OFFCURVE",
"627 288 OFFCURVE",
"620 298 CURVE SMOOTH",
"607 317 OFFCURVE",
"599 337 OFFCURVE",
"599 364 CURVE SMOOTH",
"599 400 OFFCURVE",
"612 421 OFFCURVE",
"632 434 CURVE",
"652 446 OFFCURVE",
"678 451 OFFCURVE",
"703 451 CURVE",
"705 444 LINE",
"694 435 OFFCURVE",
"690 420 OFFCURVE",
"690 405 CURVE SMOOTH",
"690 378 OFFCURVE",
"708 363 OFFCURVE",
"731 363 CURVE SMOOTH",
"763 363 OFFCURVE",
"781 387 OFFCURVE",
"781 414 CURVE SMOOTH",
"781 447 OFFCURVE",
"753 477 OFFCURVE",
"689 477 CURVE SMOOTH",
"641 477 OFFCURVE",
"600 462 OFFCURVE",
"571 437 CURVE SMOOTH",
"542 412 OFFCURVE",
"525 375 OFFCURVE",
"525 334 CURVE SMOOTH",
"525 313 OFFCURVE",
"529 294 OFFCURVE",
"538 278 CURVE SMOOTH",
"555 246 OFFCURVE",
"583 216 OFFCURVE",
"601 196 CURVE SMOOTH",
"610 186 OFFCURVE",
"617 176 OFFCURVE",
"624 167 CURVE",
"636 147 OFFCURVE",
"644 129 OFFCURVE",
"644 106 CURVE SMOOTH",
"644 51 OFFCURVE",
"604 29 OFFCURVE",
"549 29 CURVE SMOOTH",
"481 29 OFFCURVE",
"453 60 OFFCURVE",
"441 103 CURVE SMOOTH",
"377 337 LINE",
"438 353 OFFCURVE",
"479 388 OFFCURVE",
"505 431 CURVE SMOOTH",
"531 474 OFFCURVE",
"541 524 OFFCURVE",
"541 568 CURVE SMOOTH",
"541 651 OFFCURVE",
"484 698 OFFCURVE",
"389 698 CURVE SMOOTH",
"152 698 LINE",
"142 657 LINE",
"213 657 LINE",
"60 41 LINE",
"-11 41 LINE",
"-21 0 LINE",
"206 0 LINE",
"216 41 LINE",
"145 41 LINE",
"216 325 LINE",
"299 325 LINE",
"355 93 LINE SMOOTH",
"374 17 OFFCURVE",
"435 -12 OFFCURVE",
"539 -12 CURVE SMOOTH"
);
},
{
closed = 1;
nodes = (
"377 653 LINE SMOOTH",
"433 653 OFFCURVE",
"458 619 OFFCURVE",
"458 571 CURVE SMOOTH",
"458 564 OFFCURVE",
"457 557 OFFCURVE",
"456 550 CURVE",
"453 534 OFFCURVE",
"450 519 OFFCURVE",
"446 505 CURVE SMOOTH",
"444 498 OFFCURVE",
"443 492 OFFCURVE",
"442 487 CURVE",
"425 420 OFFCURVE",
"373 370 OFFCURVE",
"305 370 CURVE SMOOTH",
"227 370 LINE",
"297 653 LINE"
);
}
);
width = 809;
}
);
note = uni20A8;
unicode = 20A8;
},
{
glyphname = uni20A9;
lastChange = "2019-02-03 18:41:26 +0000";
layers = (
{
layerId = "A1F39B41-468B-47E4-A64F-494FF9F69BAB";
paths = (
{
closed = 1;
nodes = (
"231 0 LINE",
"353 244 LINE",
"530 244 LINE",
"527 0 LINE",
"602 0 LINE",
"722 243 LINE",
"835 243 LINE",
"845 284 LINE",
"743 284 LINE",
"807 414 LINE",
"877 414 LINE",
"887 455 LINE",
"826 455 LINE",
"926 657 LINE",
"978 657 LINE",
"988 698 LINE",
"801 698 LINE",
"791 657 LINE",
"867 657 LINE",
"771 454 LINE",
"606 454 LINE",
"608 698 LINE",
"528 698 LINE",
"408 454 LINE",
"242 454 LINE",
"248 657 LINE",
"324 657 LINE",
"334 698 LINE",
"123 698 LINE",
"113 657 LINE",
"165 657 LINE",
"162 455 LINE",
"101 455 LINE",
"91 414 LINE",
"162 414 LINE",
"160 284 LINE",
"58 284 LINE",
"48 243 LINE",
"160 243 LINE",
"156 0 LINE"
);
},
{
closed = 1;
nodes = (
"388 415 LINE",
"237 107 LINE",
"231 107 LINE",
"241 415 LINE"
);
},
{
closed = 1;
nodes = (
"534 598 LINE",
"530 283 LINE",
"372 283 LINE",
"529 598 LINE"
);
},
{
closed = 1;
nodes = (
"753 415 LINE",
"608 107 LINE",
"602 107 LINE",
"606 415 LINE"
);
}
);
width = 890;
}
);
note = uni20A9;
unicode = 20A9;
},
{
glyphname = uni20AA;
lastChange = "2019-02-03 18:41:26 +0000";
layers = (
{
layerId = "A1F39B41-468B-47E4-A64F-494FF9F69BAB";
paths = (
{
closed = 1;
nodes = (
"69 0 LINE",
"223 619 LINE",
"399 619 LINE SMOOTH",
"442 619 OFFCURVE",
"479 598 OFFCURVE",
"479 539 CURVE SMOOTH",
"479 524 OFFCURVE",
"477 509 OFFCURVE",
"472 492 CURVE",
"390 168 LINE",
"437 168 LINE",
"520 497 LINE SMOOTH",
"527 528 OFFCURVE",
"531 554 OFFCURVE",
"531 575 CURVE SMOOTH",
"531 659 OFFCURVE",
"486 698 OFFCURVE",
"410 698 CURVE SMOOTH",
"196 698 LINE",
"22 0 LINE"
);
},
{
closed = 1;
nodes = (
"401 0 LINE SMOOTH",
"494 0 OFFCURVE",
"574 62 OFFCURVE",
"605 187 CURVE SMOOTH",
"733 698 LINE",
"686 698 LINE",
"567 221 LINE SMOOTH",
"552 162 OFFCURVE",
"527 126 OFFCURVE",
"499 106 CURVE SMOOTH",
"470 85 OFFCURVE",
"437 79 OFFCURVE",
"412 79 CURVE SMOOTH",
"252 79 LINE",
"364 530 LINE",
"317 530 LINE",
"186 0 LINE"
);
}
);
width = 711;
}
);
note = uni20AA;
unicode = 20AA;
},
{
glyphname = uni20AB;
lastChange = "2019-02-03 18:41:26 +0000";
layers = (
{
layerId = "A1F39B41-468B-47E4-A64F-494FF9F69BAB";
paths = (
{
closed = 1;
nodes = (
"181 112 OFFCURVE",
"210 130 OFFCURVE",
"237 160 CURVE SMOOTH",
"264 190 OFFCURVE",
"287 232 OFFCURVE",
"311 284 CURVE",
"316 281 LINE",
"304 234 OFFCURVE",
"299 207 OFFCURVE",
"296 191 CURVE SMOOTH",
"294 182 OFFCURVE",
"293 176 OFFCURVE",
"293 172 CURVE",
"292 167 OFFCURVE",
"292 164 OFFCURVE",
"292 161 CURVE SMOOTH",
"292 134 OFFCURVE",
"305 112 OFFCURVE",
"340 112 CURVE SMOOTH",
"351 112 OFFCURVE",
"363 116 OFFCURVE",
"376 124 CURVE SMOOTH",
"389 132 OFFCURVE",
"405 148 OFFCURVE",
"426 171 CURVE SMOOTH",
"491 244 LINE",
"469 261 LINE",
"370 165 LINE",
"354 172 LINE",
"469 631 LINE",
"541 631 LINE",
"553 677 LINE",
"480 677 LINE",
"501 760 LINE",
"427 745 LINE",
"410 677 LINE",
"279 677 LINE",
"267 631 LINE",
"399 631 LINE",
"366 503 LINE",
"359 503 LINE",
"348 535 OFFCURVE",
"328 562 OFFCURVE",
"275 562 CURVE SMOOTH",
"207 562 OFFCURVE",
"154 513 OFFCURVE",
"117 448 CURVE SMOOTH",
"80 383 OFFCURVE",
"60 300 OFFCURVE",
"60 235 CURVE SMOOTH",
"60 155 OFFCURVE",
"86 112 OFFCURVE",
"146 112 CURVE SMOOTH"
);
},
{
closed = 1;
nodes = (
"143 169 OFFCURVE",
"137 195 OFFCURVE",
"137 239 CURVE SMOOTH",
"137 252 OFFCURVE",
"139 273 OFFCURVE",
"143 294 CURVE",
"146 315 OFFCURVE",
"151 337 OFFCURVE",
"155 354 CURVE SMOOTH",
"180 455 OFFCURVE",
"236 515 OFFCURVE",
"296 515 CURVE SMOOTH",
"348 515 OFFCURVE",
"365 473 OFFCURVE",
"352 420 CURVE SMOOTH",
"347 400 LINE SMOOTH",
"342 381 OFFCURVE",
"330 351 OFFCURVE",
"312 316 CURVE SMOOTH",
"294 281 OFFCURVE",
"271 245 OFFCURVE",
"247 217 CURVE SMOOTH",
"222 189 OFFCURVE",
"196 169 OFFCURVE",
"172 169 CURVE SMOOTH"
);
},
{
closed = 1;
nodes = (
"387 0 LINE",
"399 48 LINE",
"14 48 LINE",
"2 0 LINE"
);
}
);
width = 522;
}
);
note = uni20AB;
unicode = 20AB;
},
{
glyphname = uni20AD;
lastChange = "2019-02-03 18:41:26 +0000";
layers = (
{
layerId = "A1F39B41-468B-47E4-A64F-494FF9F69BAB";
paths = (
{
closed = 1;
nodes = (
"207 0 LINE",
"217 41 LINE",
"146 41 LINE",
"221 341 LINE",
"293 341 LINE",
"414 41 LINE",
"343 41 LINE",
"333 0 LINE",
"562 0 LINE",
"572 41 LINE",
"501 41 LINE",
"409 266 LINE",
"375 341 LINE",
"376 343 LINE",
"444 341 LINE",
"566 341 LINE",
"576 383 LINE",
"361 383 LINE",
"637 657 LINE",
"704 657 LINE",
"714 698 LINE",
"506 698 LINE",
"496 657 LINE",
"577 657 LINE",
"303 383 LINE",
"231 383 LINE",
"299 657 LINE",
"370 657 LINE",
"380 698 LINE",
"153 698 LINE",
"143 657 LINE",
"214 657 LINE",
"146 383 LINE",
"76 383 LINE",
"66 341 LINE",
"136 341 LINE",
"61 41 LINE",
"-10 41 LINE",
"-20 0 LINE"
);
}
);
width = 654;
}
);
note = uni20AD;
unicode = 20AD;
},
{
glyphname = uni20AE;
lastChange = "2019-02-03 18:41:26 +0000";
layers = (
{
layerId = "A1F39B41-468B-47E4-A64F-494FF9F69BAB";
paths = (
{
closed = 1;
nodes = (
"369 0 LINE",
"379 41 LINE",
"288 41 LINE",
"335 230 LINE",
"466 292 LINE",
"479 344 LINE",
"348 282 LINE",
"374 387 LINE",
"506 449 LINE",
"519 501 LINE",
"387 439 LINE",
"440 653 LINE",
"597 653 LINE",
"567 530 LINE",
"635 530 LINE",
"677 698 LINE",
"141 698 LINE",
"99 530 LINE",
"167 530 LINE",
"198 653 LINE",
"355 653 LINE",
"291 394 LINE",
"160 333 LINE",
"147 280 LINE",
"278 341 LINE",
"252 237 LINE",
"120 175 LINE",
"107 123 LINE",
"239 185 LINE",
"203 41 LINE",
"112 41 LINE",
"102 0 LINE"
);
}
);
width = 599;
}
);
note = uni20AE;
unicode = 20AE;
},
{
glyphname = uni20B1;
lastChange = "2019-02-03 18:41:26 +0000";
layers = (
{
layerId = "A1F39B41-468B-47E4-A64F-494FF9F69BAB";
paths = (
{
closed = 1;
nodes = (
"227 0 LINE",
"237 41 LINE",
"146 41 LINE",
"186 201 LINE",
"323 201 LINE SMOOTH",
"380 201 OFFCURVE",
"427 219 OFFCURVE",
"464 247 CURVE SMOOTH",
"500 274 OFFCURVE",
"527 311 OFFCURVE",
"546 350 CURVE",
"618 350 LINE",
"628 391 LINE",
"564 391 LINE",
"579 432 OFFCURVE",
"587 473 OFFCURVE",
"591 508 CURVE",
"657 508 LINE",
"667 549 LINE",
"594 549 LINE",
"595 554 OFFCURVE",
"595 557 OFFCURVE",
"595 560 CURVE SMOOTH",
"595 563 OFFCURVE",
"595 565 OFFCURVE",
"595 566 CURVE SMOOTH",
"595 651 OFFCURVE",
"538 698 OFFCURVE",
"443 698 CURVE SMOOTH",
"153 698 LINE",
"143 657 LINE",
"214 657 LINE",
"188 549 LINE",
"116 549 LINE",
"106 508 LINE",
"177 508 LINE",
"148 391 LINE",
"76 391 LINE",
"66 350 LINE",
"138 350 LINE",
"61 41 LINE",
"-10 41 LINE",
"-20 0 LINE"
);
},
{
closed = 1;
nodes = (
"433 657 LINE SMOOTH",
"488 657 OFFCURVE",
"511 619 OFFCURVE",
"511 570 CURVE SMOOTH",
"511 564 OFFCURVE",
"510 557 OFFCURVE",
"508 548 CURVE",
"272 548 LINE",
"299 657 LINE"
);
},
{
closed = 1;
nodes = (
"459 351 LINE",
"447 322 OFFCURVE",
"427 294 OFFCURVE",
"402 274 CURVE SMOOTH",
"377 254 OFFCURVE",
"348 242 OFFCURVE",
"317 242 CURVE SMOOTH",
"196 242 LINE",
"223 351 LINE"
);
},
{
closed = 1;
nodes = (
"501 509 LINE",
"493 470 OFFCURVE",
"482 421 OFFCURVE",
"470 390 CURVE",
"233 390 LINE",
"262 509 LINE"
);
}
);
width = 640;
}
);
note = uni20B1;
unicode = 20B1;
},
{
glyphname = uni20B2;
lastChange = "2019-02-03 18:41:26 +0000";
layers = (
{
layerId = "A1F39B41-468B-47E4-A64F-494FF9F69BAB";
paths = (
{
closed = 1;
nodes = (
"200 -82 LINE",
"232 0 LINE",
"241 -1 OFFCURVE",
"250 -2 OFFCURVE",
"261 -2 CURVE SMOOTH",
"309 -2 OFFCURVE",
"349 10 OFFCURVE",
"381 30 CURVE SMOOTH",
"413 49 OFFCURVE",
"437 74 OFFCURVE",
"453 99 CURVE",
"459 99 LINE",
"477 0 LINE",
"501 0 LINE",
"571 285 LINE",
"630 285 LINE",
"640 326 LINE",
"360 326 LINE",
"487 650 LINE",
"522 647 OFFCURVE",
"545 638 OFFCURVE",
"564 629 CURVE",
"563 623 LINE",
"527 612 OFFCURVE",
"507 585 OFFCURVE",
"507 550 CURVE SMOOTH",
"507 519 OFFCURVE",
"525 499 OFFCURVE",
"560 499 CURVE SMOOTH",
"600 499 OFFCURVE",
"628 537 OFFCURVE",
"628 581 CURVE SMOOTH",
"628 640 OFFCURVE",
"578 677 OFFCURVE",
"506 692 CURVE",
"541 780 LINE",
"494 780 LINE",
"461 698 LINE",
"449 699 OFFCURVE",
"440 700 OFFCURVE",
"429 700 CURVE SMOOTH",
"342 700 OFFCURVE",
"272 669 OFFCURVE",
"217 621 CURVE SMOOTH",
"161 573 OFFCURVE",
"122 506 OFFCURVE",
"95 437 CURVE SMOOTH",
"68 368 OFFCURVE",
"56 294 OFFCURVE",
"56 230 CURVE SMOOTH",
"56 109 OFFCURVE",
"104 37 OFFCURVE",
"189 8 CURVE",
"153 -82 LINE"
);
},
{
closed = 1;
nodes = (
"165 90 OFFCURVE",
"139 141 OFFCURVE",
"139 213 CURVE SMOOTH",
"139 224 OFFCURVE",
"140 236 OFFCURVE",
"141 247 CURVE",
"144 270 OFFCURVE",
"150 298 OFFCURVE",
"159 336 CURVE SMOOTH",
"164 355 OFFCURVE",
"169 378 OFFCURVE",
"175 405 CURVE SMOOTH",
"191 469 OFFCURVE",
"219 532 OFFCURVE",
"263 577 CURVE SMOOTH",
"307 622 OFFCURVE",
"365 652 OFFCURVE",
"444 652 CURVE",
"214 65 LINE"
);
},
{
closed = 1;
nodes = (
"268 49 OFFCURVE",
"260 50 OFFCURVE",
"252 51 CURVE",
"343 285 LINE",
"496 285 LINE",
"476 205 LINE SMOOTH",
"451 105 OFFCURVE",
"370 49 OFFCURVE",
"277 49 CURVE SMOOTH"
);
}
);
width = 661;
}
);
note = uni20B2;
unicode = 20B2;
},
{
glyphname = uni20B4;
lastChange = "2019-02-03 18:41:26 +0000";
layers = (
{
layerId = "A1F39B41-468B-47E4-A64F-494FF9F69BAB";
paths = (
{
closed = 1;
nodes = (
"307 -12 OFFCURVE",
"364 5 OFFCURVE",
"404 31 CURVE SMOOTH",
"444 57 OFFCURVE",
"467 92 OFFCURVE",
"467 128 CURVE SMOOTH",
"467 159 OFFCURVE",
"448 180 OFFCURVE",
"416 180 CURVE SMOOTH",
"393 180 OFFCURVE",
"377 171 OFFCURVE",
"366 158 CURVE SMOOTH",
"355 145 OFFCURVE",
"350 129 OFFCURVE",
"350 114 CURVE SMOOTH",
"350 87 OFFCURVE",
"361 75 OFFCURVE",
"380 66 CURVE",
"378 59 LINE",
"347 44 OFFCURVE",
"309 37 OFFCURVE",
"264 37 CURVE SMOOTH",
"184 37 OFFCURVE",
"151 73 OFFCURVE",
"151 129 CURVE SMOOTH",
"151 170 OFFCURVE",
"169 216 OFFCURVE",
"216 251 CURVE",
"540 251 LINE",
"550 292 LINE",
"279 292 LINE",
"460 406 LINE",
"578 406 LINE",
"588 447 LINE",
"507 447 LINE",
"538 480 OFFCURVE",
"557 527 OFFCURVE",
"557 572 CURVE SMOOTH",
"557 652 OFFCURVE",
"495 710 OFFCURVE",
"388 710 CURVE SMOOTH",
"323 710 OFFCURVE",
"266 693 OFFCURVE",
"226 667 CURVE SMOOTH",
"186 641 OFFCURVE",
"163 606 OFFCURVE",
"163 570 CURVE SMOOTH",
"163 539 OFFCURVE",
"182 518 OFFCURVE",
"214 518 CURVE SMOOTH",
"237 518 OFFCURVE",
"253 527 OFFCURVE",
"264 540 CURVE SMOOTH",
"275 553 OFFCURVE",
"280 569 OFFCURVE",
"280 584 CURVE SMOOTH",
"280 611 OFFCURVE",
"269 623 OFFCURVE",
"250 632 CURVE",
"252 639 LINE",
"283 654 OFFCURVE",
"321 661 OFFCURVE",
"366 661 CURVE SMOOTH",
"446 661 OFFCURVE",
"479 625 OFFCURVE",
"479 569 CURVE SMOOTH",
"479 528 OFFCURVE",
"461 482 OFFCURVE",
"414 447 CURVE",
"91 447 LINE",
"81 406 LINE",
"351 406 LINE",
"171 292 LINE",
"53 292 LINE",
"43 251 LINE",
"123 251 LINE",
"92 218 OFFCURVE",
"73 171 OFFCURVE",
"73 126 CURVE SMOOTH",
"73 46 OFFCURVE",
"135 -12 OFFCURVE",
"242 -12 CURVE SMOOTH"
);
}
);
width = 585;
}
);
note = uni20B4;
unicode = 20B4;
},
{
glyphname = uni20B5;
lastChange = "2019-02-03 18:41:26 +0000";
layers = (
{
layerId = "A1F39B41-468B-47E4-A64F-494FF9F69BAB";
paths = (
{
closed = 1;
nodes = (
"180 -82 LINE",
"211 1 LINE",
"222 -1 OFFCURVE",
"234 -2 OFFCURVE",
"247 -2 CURVE SMOOTH",
"308 -2 OFFCURVE",
"362 23 OFFCURVE",
"405 57 CURVE SMOOTH",
"448 91 OFFCURVE",
"480 132 OFFCURVE",
"500 168 CURVE",
"468 187 LINE",
"424 111 OFFCURVE",
"360 57 OFFCURVE",
"275 57 CURVE SMOOTH",
"263 57 OFFCURVE",
"246 58 OFFCURVE",
"234 61 CURVE",
"461 651 LINE",
"492 648 OFFCURVE",
"519 641 OFFCURVE",
"538 630 CURVE",
"537 625 LINE",
"500 614 OFFCURVE",
"480 586 OFFCURVE",
"480 551 CURVE SMOOTH",
"480 523 OFFCURVE",
"499 501 OFFCURVE",
"532 501 CURVE SMOOTH",
"575 501 OFFCURVE",
"601 539 OFFCURVE",
"601 583 CURVE SMOOTH",
"601 612 OFFCURVE",
"588 636 OFFCURVE",
"566 655 CURVE SMOOTH",
"544 674 OFFCURVE",
"513 686 OFFCURVE",
"480 694 CURVE",
"513 780 LINE",
"465 780 LINE",
"435 700 LINE",
"410 700 LINE SMOOTH",
"329 700 OFFCURVE",
"262 667 OFFCURVE",
"210 616 CURVE SMOOTH",
"157 565 OFFCURVE",
"118 496 OFFCURVE",
"93 424 CURVE SMOOTH",
"68 352 OFFCURVE",
"55 276 OFFCURVE",
"55 213 CURVE SMOOTH",
"55 105 OFFCURVE",
"93 37 OFFCURVE",
"168 10 CURVE",
"133 -82 LINE"
);
},
{
closed = 1;
nodes = (
"160 101 OFFCURVE",
"138 142 OFFCURVE",
"138 211 CURVE SMOOTH",
"138 236 OFFCURVE",
"144 272 OFFCURVE",
"152 306 CURVE SMOOTH",
"159 340 OFFCURVE",
"167 373 OFFCURVE",
"174 398 CURVE",
"190 467 OFFCURVE",
"218 530 OFFCURVE",
"258 576 CURVE SMOOTH",
"298 622 OFFCURVE",
"351 650 OFFCURVE",
"418 653 CURVE",
"195 78 LINE"
);
}
);
width = 573;
}
);
note = uni20B5;
unicode = 20B5;
},
{
glyphname = uni20B8;
lastChange = "2019-02-03 18:41:26 +0000";
layers = (
{
layerId = "A1F39B41-468B-47E4-A64F-494FF9F69BAB";
paths = (
{
closed = 1;
nodes = (
"374 0 LINE",
"384 41 LINE",
"293 41 LINE",
"418 543 LINE",
"575 543 LINE",
"545 419 LINE",
"613 419 LINE",
"654 584 LINE",
"118 584 LINE",
"77 419 LINE",
"145 419 LINE",
"176 543 LINE",
"333 543 LINE",
"208 41 LINE",
"117 41 LINE",
"107 0 LINE"
);
},
{
closed = 1;
nodes = (
"672 657 LINE",
"682 698 LINE",
"147 698 LINE",
"137 657 LINE"
);
}
);
width = 611;
}
);
note = uni20B8;
unicode = 20B8;
},
{
glyphname = uni20B9;
lastChange = "2019-02-03 18:41:26 +0000";
layers = (
{
layerId = "A1F39B41-468B-47E4-A64F-494FF9F69BAB";
paths = (
{
closed = 1;
nodes = (
"452 0 LINE",
"462 41 LINE",
"452 41 LINE SMOOTH",
"405 41 OFFCURVE",
"390 63 OFFCURVE",
"379 103 CURVE SMOOTH",
"312 329 LINE",
"367 336 OFFCURVE",
"409 359 OFFCURVE",
"439 389 CURVE SMOOTH",
"469 419 OFFCURVE",
"488 455 OFFCURVE",
"497 488 CURVE",
"575 488 LINE",
"585 529 LINE",
"505 529 LINE",
"506 534 OFFCURVE",
"507 537 OFFCURVE",
"507 540 CURVE SMOOTH",
"507 542 OFFCURVE",
"507 544 OFFCURVE",
"507 547 CURVE SMOOTH",
"507 602 OFFCURVE",
"487 639 OFFCURVE",
"456 651 CURVE",
"458 657 LINE",
"617 657 LINE",
"627 698 LINE",
"159 698 LINE",
"149 657 LINE",
"346 657 LINE SMOOTH",
"401 657 OFFCURVE",
"425 619 OFFCURVE",
"425 570 CURVE SMOOTH",
"425 557 OFFCURVE",
"423 544 OFFCURVE",
"419 529 CURVE",
"117 529 LINE",
"107 488 LINE",
"408 488 LINE",
"400 455 OFFCURVE",
"383 424 OFFCURVE",
"359 401 CURVE SMOOTH",
"335 378 OFFCURVE",
"304 364 OFFCURVE",
"271 364 CURVE SMOOTH",
"76 364 LINE",
"66 323 LINE",
"231 323 LINE",
"292 92 LINE SMOOTH",
"301 56 OFFCURVE",
"313 33 OFFCURVE",
"330 19 CURVE SMOOTH",
"346 5 OFFCURVE",
"369 0 OFFCURVE",
"405 0 CURVE SMOOTH"
);
}
);
width = 553;
}
);
note = uni20B9;
unicode = 20B9;
},
{
glyphname = uni20BA;
lastChange = "2019-02-03 18:41:26 +0000";
layers = (
{
layerId = "A1F39B41-468B-47E4-A64F-494FF9F69BAB";
paths = (
{
closed = 1;
nodes = (
"196 0 LINE SMOOTH",
"305 0 OFFCURVE",
"393 42 OFFCURVE",
"453 98 CURVE SMOOTH",
"512 154 OFFCURVE",
"544 225 OFFCURVE",
"544 285 CURVE SMOOTH",
"544 329 OFFCURVE",
"519 355 OFFCURVE",
"482 355 CURVE SMOOTH",
"441 355 OFFCURVE",
"409 320 OFFCURVE",
"409 280 CURVE SMOOTH",
"409 245 OFFCURVE",
"432 231 OFFCURVE",
"455 231 CURVE SMOOTH",
"467 231 OFFCURVE",
"487 239 OFFCURVE",
"494 250 CURVE",
"499 247 LINE",
"484 196 OFFCURVE",
"452 147 OFFCURVE",
"404 109 CURVE SMOOTH",
"355 71 OFFCURVE",
"288 45 OFFCURVE",
"207 45 CURVE SMOOTH",
"147 45 LINE",
"208 289 LINE",
"392 376 LINE",
"405 429 LINE",
"221 342 LINE",
"246 443 LINE",
"431 531 LINE",
"444 583 LINE",
"259 496 LINE",
"299 657 LINE",
"370 657 LINE",
"380 698 LINE",
"153 698 LINE",
"143 657 LINE",
"214 657 LINE",
"163 450 LINE",
"58 401 LINE",
"45 349 LINE",
"150 398 LINE",
"124 296 LINE",
"19 247 LINE",
"6 194 LINE",
"111 244 LINE",
"61 41 LINE",
"-10 41 LINE",
"-20 0 LINE"
);
}
);
width = 562;
}
);
note = uni20BA;
unicode = 20BA;
},
{
glyphname = uni20BD;
lastChange = "2019-02-03 18:41:26 +0000";
layers = (
{
layerId = "A1F39B41-468B-47E4-A64F-494FF9F69BAB";
paths = (
{
closed = 1;
nodes = (
"225 0 LINE",
"235 41 LINE",
"144 41 LINE",
"175 163 LINE",
"395 163 LINE",
"405 204 LINE",
"185 204 LINE",
"215 323 LINE",
"366 323 LINE SMOOTH",
"434 323 OFFCURVE",
"483 343 OFFCURVE",
"519 371 CURVE SMOOTH",
"554 399 OFFCURVE",
"575 437 OFFCURVE",
"588 473 CURVE SMOOTH",
"600 509 OFFCURVE",
"604 543 OFFCURVE",
"604 566 CURVE SMOOTH",
"604 650 OFFCURVE",
"548 698 OFFCURVE",
"452 698 CURVE SMOOTH",
"152 698 LINE",
"142 657 LINE",
"213 657 LINE",
"140 364 LINE",
"69 364 LINE",
"59 323 LINE",
"130 323 LINE",
"100 204 LINE",
"29 204 LINE",
"19 163 LINE",
"90 163 LINE",
"59 41 LINE",
"-12 41 LINE",
"-22 0 LINE"
);
},
{
closed = 1;
nodes = (
"442 657 LINE SMOOTH",
"497 657 OFFCURVE",
"522 619 OFFCURVE",
"522 571 CURVE SMOOTH",
"522 558 OFFCURVE",
"520 543 OFFCURVE",
"515 526 CURVE SMOOTH",
"510 509 OFFCURVE",
"507 496 OFFCURVE",
"505 487 CURVE SMOOTH",
"497 452 OFFCURVE",
"479 423 OFFCURVE",
"455 400 CURVE SMOOTH",
"431 377 OFFCURVE",
"401 364 OFFCURVE",
"368 364 CURVE SMOOTH",
"225 364 LINE",
"298 657 LINE"
);
}
);
width = 583;
}
);
note = uni20BD;
unicode = 20BD;
},
{
glyphname = uni20BF;
lastChange = "2019-02-03 18:41:26 +0000";
layers = (
{
layerId = "A1F39B41-468B-47E4-A64F-494FF9F69BAB";
paths = (
{
closed = 1;
nodes = (
"175 -82 LINE",
"200 21 LINE",
"265 21 LINE",
"239 -82 LINE",
"286 -82 LINE",
"312 21 LINE",
"377 21 OFFCURVE",
"433 49 OFFCURVE",
"472 90 CURVE SMOOTH",
"511 131 OFFCURVE",
"533 186 OFFCURVE",
"533 239 CURVE SMOOTH",
"533 306 OFFCURVE",
"495 342 OFFCURVE",
"431 361 CURVE",
"433 366 LINE",
"466 374 OFFCURVE",
"507 390 OFFCURVE",
"539 421 CURVE SMOOTH",
"570 452 OFFCURVE",
"593 495 OFFCURVE",
"593 558 CURVE SMOOTH",
"593 631 OFFCURVE",
"552 669 OFFCURVE",
"476 676 CURVE",
"502 780 LINE",
"455 780 LINE",
"429 677 LINE",
"364 677 LINE",
"390 780 LINE",
"343 780 LINE",
"317 677 LINE",
"148 677 LINE",
"138 636 LINE",
"209 636 LINE",
"65 62 LINE",
"-6 62 LINE",
"-16 21 LINE",
"153 21 LINE",
"128 -82 LINE"
);
},
{
closed = 1;
nodes = (
"363 337 LINE SMOOTH",
"419 337 OFFCURVE",
"450 306 OFFCURVE",
"450 249 CURVE SMOOTH",
"450 233 OFFCURVE",
"443 201 OFFCURVE",
"440 190 CURVE",
"424 113 OFFCURVE",
"367 66 OFFCURVE",
"292 66 CURVE SMOOTH",
"149 66 LINE",
"216 337 LINE"
);
},
{
closed = 1;
nodes = (
"434 632 LINE SMOOTH",
"485 632 OFFCURVE",
"510 600 OFFCURVE",
"510 557 CURVE SMOOTH",
"510 538 OFFCURVE",
"502 507 OFFCURVE",
"499 496 CURVE SMOOTH",
"482 428 OFFCURVE",
"430 382 OFFCURVE",
"366 382 CURVE SMOOTH",
"227 382 LINE",
"290 632 LINE"
);
}
);
width = 584;
}
);
note = uni20BF;
unicode = 20BF;
},
{
glyphname = fi;
lastChange = "2019-02-03 18:41:26 +0000";
layers = (
{
layerId = "A1F39B41-468B-47E4-A64F-494FF9F69BAB";
paths = (
{
closed = 1;
nodes = (
"-32 -212 OFFCURVE",
"9 -194 OFFCURVE",
"41 -165 CURVE SMOOTH",
"73 -136 OFFCURVE",
"97 -93 OFFCURVE",
"109 -44 CURVE SMOOTH",
"237 471 LINE",
"435 471 LINE",
"341 91 LINE",
"340 84 OFFCURVE",
"338 77 OFFCURVE",
"337 69 CURVE",
"335 61 OFFCURVE",
"334 53 OFFCURVE",
"334 46 CURVE SMOOTH",
"334 15 OFFCURVE",
"354 -12 OFFCURVE",
"393 -12 CURVE SMOOTH",
"422 -12 OFFCURVE",
"450 3 OFFCURVE",
"497 58 CURVE SMOOTH",
"568 141 LINE",
"544 160 LINE",
"429 45 LINE",
"411 53 LINE",
"530 528 LINE",
"441 516 LINE",
"248 516 LINE",
"259 559 LINE SMOOTH",
"274 616 OFFCURVE",
"299 657 OFFCURVE",
"331 684 CURVE SMOOTH",
"363 711 OFFCURVE",
"399 724 OFFCURVE",
"438 724 CURVE SMOOTH",
"462 724 OFFCURVE",
"482 720 OFFCURVE",
"499 713 CURVE",
"499 707 LINE",
"475 699 OFFCURVE",
"462 678 OFFCURVE",
"462 654 CURVE SMOOTH",
"462 631 OFFCURVE",
"477 611 OFFCURVE",
"509 611 CURVE SMOOTH",
"545 611 OFFCURVE",
"567 643 OFFCURVE",
"567 674 CURVE SMOOTH",
"567 695 OFFCURVE",
"556 717 OFFCURVE",
"534 733 CURVE SMOOTH",
"512 749 OFFCURVE",
"480 760 OFFCURVE",
"440 760 CURVE SMOOTH",
"303 760 OFFCURVE",
"207 678 OFFCURVE",
"176 549 CURVE SMOOTH",
"168 516 LINE",
"76 516 LINE",
"65 471 LINE",
"156 471 LINE",
"24 -60 LINE SMOOTH",
"5 -139 OFFCURVE",
"-22 -186 OFFCURVE",
"-85 -186 CURVE",
"-89 -179 LINE",
"-70 -167 OFFCURVE",
"-66 -149 OFFCURVE",
"-66 -137 CURVE SMOOTH",
"-66 -110 OFFCURVE",
"-83 -90 OFFCURVE",
"-114 -90 CURVE SMOOTH",
"-147 -90 OFFCURVE",
"-169 -116 OFFCURVE",
"-169 -149 CURVE SMOOTH",
"-169 -184 OFFCURVE",
"-145 -212 OFFCURVE",
"-80 -212 CURVE SMOOTH"
);
}
);
width = 580;
}
);
leftKerningGroup = f;
note = fi;
rightKerningGroup = i;
unicode = FB01;
},
{
glyphname = fl;
lastChange = "2019-02-03 18:41:26 +0000";
layers = (
{
layerId = "A1F39B41-468B-47E4-A64F-494FF9F69BAB";
paths = (
{
closed = 1;
nodes = (
"-32 -212 OFFCURVE",
"9 -194 OFFCURVE",
"41 -165 CURVE SMOOTH",
"73 -136 OFFCURVE",
"97 -93 OFFCURVE",
"109 -44 CURVE SMOOTH",
"237 471 LINE",
"335 471 LINE",
"346 516 LINE",
"248 516 LINE",
"262 570 LINE SMOOTH",
"291 683 OFFCURVE",
"350 724 OFFCURVE",
"431 724 CURVE SMOOTH",
"452 724 OFFCURVE",
"479 721 OFFCURVE",
"498 714 CURVE",
"342 91 LINE",
"341 84 OFFCURVE",
"339 77 OFFCURVE",
"338 69 CURVE",
"336 61 OFFCURVE",
"335 53 OFFCURVE",
"335 46 CURVE SMOOTH",
"335 15 OFFCURVE",
"355 -12 OFFCURVE",
"394 -12 CURVE SMOOTH",
"423 -12 OFFCURVE",
"451 2 OFFCURVE",
"498 58 CURVE SMOOTH",
"569 141 LINE",
"545 160 LINE",
"430 45 LINE",
"412 53 LINE",
"589 760 LINE",
"523 744 LINE",
"498 753 OFFCURVE",
"463 760 OFFCURVE",
"428 760 CURVE SMOOTH",
"289 760 OFFCURVE",
"211 689 OFFCURVE",
"179 560 CURVE SMOOTH",
"168 516 LINE",
"76 516 LINE",
"65 471 LINE",
"156 471 LINE",
"24 -60 LINE SMOOTH",
"5 -139 OFFCURVE",
"-22 -186 OFFCURVE",
"-85 -186 CURVE",
"-89 -179 LINE",
"-70 -167 OFFCURVE",
"-66 -149 OFFCURVE",
"-66 -137 CURVE SMOOTH",
"-66 -110 OFFCURVE",
"-83 -90 OFFCURVE",
"-114 -90 CURVE SMOOTH",
"-147 -90 OFFCURVE",
"-169 -116 OFFCURVE",
"-169 -149 CURVE SMOOTH",
"-169 -184 OFFCURVE",
"-145 -212 OFFCURVE",
"-80 -212 CURVE SMOOTH"
);
}
);
width = 578;
}
);
leftKerningGroup = f;
note = fl;
rightKerningGroup = d;
unicode = FB02;
},
{
glyphname = aogonek;
lastChange = "2019-02-03 18:41:26 +0000";
layers = (
{
layerId = "A1F39B41-468B-47E4-A64F-494FF9F69BAB";
paths = (
{
closed = 1;
nodes = (
"374 -206 OFFCURVE",
"409 -180 OFFCURVE",
"433 -155 CURVE",
"411 -134 LINE",
"392 -150 OFFCURVE",
"377 -163 OFFCURVE",
"354 -163 CURVE SMOOTH",
"335 -163 OFFCURVE",
"325 -152 OFFCURVE",
"325 -129 CURVE SMOOTH",
"325 -117 OFFCURVE",
"328 -105 OFFCURVE",
"335 -93 CURVE",
"347 -69 OFFCURVE",
"367 -45 OFFCURVE",
"388 -24 CURVE",
"398 -13 OFFCURVE",
"407 -3 OFFCURVE",
"415 6 CURVE SMOOTH",
"534 141 LINE",
"510 160 LINE",
"395 45 LINE",
"377 53 LINE",
"495 516 LINE",
"453 516 LINE",
"413 445 LINE",
"405 445 LINE",
"388 501 OFFCURVE",
"357 528 OFFCURVE",
"297 528 CURVE SMOOTH",
"244 528 OFFCURVE",
"197 502 OFFCURVE",
"159 462 CURVE SMOOTH",
"121 422 OFFCURVE",
"90 367 OFFCURVE",
"70 308 CURVE SMOOTH",
"50 249 OFFCURVE",
"39 188 OFFCURVE",
"39 133 CURVE SMOOTH",
"39 40 OFFCURVE",
"68 -12 OFFCURVE",
"136 -12 CURVE SMOOTH",
"177 -12 OFFCURVE",
"211 9 OFFCURVE",
"243 45 CURVE SMOOTH",
"274 80 OFFCURVE",
"300 131 OFFCURVE",
"328 191 CURVE",
"336 188 LINE",
"312 94 LINE SMOOTH",
"309 82 OFFCURVE",
"305 59 OFFCURVE",
"305 44 CURVE SMOOTH",
"305 13 OFFCURVE",
"318 -12 OFFCURVE",
"350 -12 CURVE SMOOTH",
"359 -12 OFFCURVE",
"367 -10 OFFCURVE",
"374 -7 CURVE",
"377 -12 LINE",
"350 -28 OFFCURVE",
"323 -45 OFFCURVE",
"301 -66 CURVE SMOOTH",
"279 -87 OFFCURVE",
"263 -112 OFFCURVE",
"263 -143 CURVE SMOOTH",
"263 -182 OFFCURVE",
"291 -206 OFFCURVE",
"331 -206 CURVE SMOOTH"
);
},
{
closed = 1;
nodes = (
"131 52 OFFCURVE",
"123 81 OFFCURVE",
"123 133 CURVE SMOOTH",
"123 152 OFFCURVE",
"127 180 OFFCURVE",
"132 209 CURVE SMOOTH",
"137 238 OFFCURVE",
"144 268 OFFCURVE",
"149 289 CURVE SMOOTH",
"182 412 OFFCURVE",
"246 477 OFFCURVE",
"318 477 CURVE SMOOTH",
"377 477 OFFCURVE",
"398 430 OFFCURVE",
"379 366 CURVE SMOOTH",
"375 352 LINE SMOOTH",
"366 320 OFFCURVE",
"349 276 OFFCURVE",
"327 232 CURVE SMOOTH",
"305 187 OFFCURVE",
"278 143 OFFCURVE",
"250 109 CURVE SMOOTH",
"221 75 OFFCURVE",
"191 52 OFFCURVE",
"163 52 CURVE SMOOTH"
);
}
);
width = 544;
}
);
leftKerningGroup = a;
note = aogonek;
rightKerningGroup = a;
unicode = 0105;
},
{
glyphname = aogonek.alt01;
lastChange = "2019-02-03 18:41:26 +0000";
layers = (
{
layerId = "A1F39B41-468B-47E4-A64F-494FF9F69BAB";
paths = (
{
closed = 1;
nodes = (
"336 -206 OFFCURVE",
"371 -180 OFFCURVE",
"395 -155 CURVE",
"373 -134 LINE",
"353 -151 OFFCURVE",
"339 -163 OFFCURVE",
"316 -163 CURVE SMOOTH",
"297 -163 OFFCURVE",
"287 -152 OFFCURVE",
"287 -129 CURVE SMOOTH",
"287 -117 OFFCURVE",
"290 -105 OFFCURVE",
"297 -93 CURVE",
"309 -69 OFFCURVE",
"329 -45 OFFCURVE",
"350 -24 CURVE",
"360 -13 OFFCURVE",
"369 -3 OFFCURVE",
"377 6 CURVE SMOOTH",
"496 141 LINE",
"472 160 LINE",
"357 45 LINE",
"339 53 LINE",
"411 342 LINE SMOOTH",
"416 362 OFFCURVE",
"419 387 OFFCURVE",
"419 406 CURVE SMOOTH",
"419 486 OFFCURVE",
"362 528 OFFCURVE",
"282 528 CURVE SMOOTH",
"233 528 OFFCURVE",
"188 513 OFFCURVE",
"156 491 CURVE SMOOTH",
"123 469 OFFCURVE",
"102 439 OFFCURVE",
"102 410 CURVE SMOOTH",
"102 375 OFFCURVE",
"123 359 OFFCURVE",
"150 359 CURVE SMOOTH",
"185 359 OFFCURVE",
"209 384 OFFCURVE",
"209 423 CURVE SMOOTH",
"209 442 OFFCURVE",
"200 458 OFFCURVE",
"189 465 CURVE",
"191 472 LINE",
"214 484 OFFCURVE",
"237 490 OFFCURVE",
"261 490 CURVE SMOOTH",
"308 490 OFFCURVE",
"339 464 OFFCURVE",
"339 404 CURVE SMOOTH",
"339 388 OFFCURVE",
"335 366 OFFCURVE",
"331 344 CURVE",
"326 322 OFFCURVE",
"321 299 OFFCURVE",
"317 286 CURVE",
"202 279 OFFCURVE",
"127 255 OFFCURVE",
"81 220 CURVE SMOOTH",
"35 185 OFFCURVE",
"17 139 OFFCURVE",
"17 90 CURVE SMOOTH",
"17 33 OFFCURVE",
"56 -12 OFFCURVE",
"116 -12 CURVE SMOOTH",
"176 -12 OFFCURVE",
"231 27 OFFCURVE",
"274 127 CURVE",
"282 124 LINE",
"274 99 OFFCURVE",
"269 81 OFFCURVE",
"268 71 CURVE SMOOTH",
"267 60 OFFCURVE",
"266 51 OFFCURVE",
"266 44 CURVE SMOOTH",
"266 13 OFFCURVE",
"282 -12 OFFCURVE",
"311 -12 CURVE SMOOTH",
"318 -12 OFFCURVE",
"327 -11 OFFCURVE",
"336 -7 CURVE",
"339 -12 LINE",
"312 -28 OFFCURVE",
"285 -45 OFFCURVE",
"263 -66 CURVE SMOOTH",
"241 -87 OFFCURVE",
"225 -112 OFFCURVE",
"225 -143 CURVE SMOOTH",
"225 -182 OFFCURVE",
"253 -206 OFFCURVE",
"293 -206 CURVE SMOOTH"
);
},
{
closed = 1;
nodes = (
"108 42 OFFCURVE",
"96 65 OFFCURVE",
"96 101 CURVE SMOOTH",
"96 114 OFFCURVE",
"97 124 OFFCURVE",
"101 137 CURVE SMOOTH",
"120 200 OFFCURVE",
"179 241 OFFCURVE",
"310 256 CURVE",
"300 216 LINE SMOOTH",
"289 175 OFFCURVE",
"266 131 OFFCURVE",
"237 98 CURVE SMOOTH",
"208 65 OFFCURVE",
"175 42 OFFCURVE",
"147 42 CURVE SMOOTH"
);
}
);
width = 506;
}
);
leftKerningGroup = a.alt01;
note = aogonek.alt01;
rightKerningGroup = a.alt01;
},
{
glyphname = ae;
lastChange = "2019-02-03 18:41:26 +0000";
layers = (
{
layerId = "A1F39B41-468B-47E4-A64F-494FF9F69BAB";
paths = (
{
closed = 1;
nodes = (
"145 -12 OFFCURVE",
"180 -2 OFFCURVE",
"212 19 CURVE SMOOTH",
"244 40 OFFCURVE",
"274 74 OFFCURVE",
"295 125 CURVE",
"302 125 LINE",
"302 97 OFFCURVE",
"304 63 OFFCURVE",
"320 36 CURVE",
"335 8 OFFCURVE",
"364 -12 OFFCURVE",
"417 -12 CURVE SMOOTH",
"465 -12 OFFCURVE",
"504 2 OFFCURVE",
"539 33 CURVE SMOOTH",
"574 64 OFFCURVE",
"606 110 OFFCURVE",
"638 174 CURVE",
"607 189 LINE",
"556 98 OFFCURVE",
"501 45 OFFCURVE",
"441 45 CURVE SMOOTH",
"393 45 OFFCURVE",
"372 78 OFFCURVE",
"372 134 CURVE SMOOTH",
"372 173 OFFCURVE",
"382 221 OFFCURVE",
"390 260 CURVE",
"502 268 OFFCURVE",
"573 290 OFFCURVE",
"617 321 CURVE SMOOTH",
"661 352 OFFCURVE",
"677 390 OFFCURVE",
"677 429 CURVE SMOOTH",
"677 468 OFFCURVE",
"660 492 OFFCURVE",
"636 508 CURVE SMOOTH",
"612 523 OFFCURVE",
"582 528 OFFCURVE",
"554 528 CURVE SMOOTH",
"491 528 OFFCURVE",
"436 497 OFFCURVE",
"403 446 CURVE",
"396 446 LINE",
"385 494 OFFCURVE",
"346 528 OFFCURVE",
"282 528 CURVE SMOOTH",
"233 528 OFFCURVE",
"188 513 OFFCURVE",
"156 491 CURVE SMOOTH",
"123 469 OFFCURVE",
"102 439 OFFCURVE",
"102 410 CURVE SMOOTH",
"102 375 OFFCURVE",
"123 359 OFFCURVE",
"150 359 CURVE SMOOTH",
"185 359 OFFCURVE",
"209 384 OFFCURVE",
"209 423 CURVE SMOOTH",
"209 442 OFFCURVE",
"200 458 OFFCURVE",
"189 465 CURVE",
"191 472 LINE",
"214 484 OFFCURVE",
"237 490 OFFCURVE",
"261 490 CURVE SMOOTH",
"308 490 OFFCURVE",
"339 464 OFFCURVE",
"339 404 CURVE SMOOTH",
"339 396 OFFCURVE",
"338 387 OFFCURVE",
"337 376 CURVE",
"333 354 OFFCURVE",
"328 330 OFFCURVE",
"323 310 CURVE",
"320 300 OFFCURVE",
"318 292 OFFCURVE",
"317 286 CURVE",
"201 279 OFFCURVE",
"127 255 OFFCURVE",
"81 220 CURVE SMOOTH",
"35 185 OFFCURVE",
"17 139 OFFCURVE",
"17 90 CURVE SMOOTH",
"17 33 OFFCURVE",
"56 -12 OFFCURVE",
"116 -12 CURVE SMOOTH"
);
},
{
closed = 1;
nodes = (
"108 42 OFFCURVE",
"96 65 OFFCURVE",
"96 101 CURVE SMOOTH",
"96 114 OFFCURVE",
"97 124 OFFCURVE",
"101 137 CURVE SMOOTH",
"120 200 OFFCURVE",
"179 241 OFFCURVE",
"310 256 CURVE",
"300 216 LINE SMOOTH",
"289 175 OFFCURVE",
"266 131 OFFCURVE",
"237 98 CURVE SMOOTH",
"208 65 OFFCURVE",
"175 42 OFFCURVE",
"147 42 CURVE SMOOTH"
);
},
{
closed = 1;
nodes = (
"416 366 OFFCURVE",
"437 414 OFFCURVE",
"461 445 CURVE SMOOTH",
"485 476 OFFCURVE",
"512 487 OFFCURVE",
"541 487 CURVE SMOOTH",
"586 487 OFFCURVE",
"600 459 OFFCURVE",
"600 422 CURVE SMOOTH",
"600 346 OFFCURVE",
"537 307 OFFCURVE",
"397 291 CURVE"
);
}
);
width = 692;
}
);
leftKerningGroup = a.alt01;
note = ae;
rightKerningGroup = e;
unicode = 00E6;
},
{
glyphname = ccedilla;
lastChange = "2019-02-03 18:41:26 +0000";
layers = (
{
layerId = "A1F39B41-468B-47E4-A64F-494FF9F69BAB";
paths = (
{
closed = 1;
nodes = (
"167 -206 OFFCURVE",
"197 -197 OFFCURVE",
"219 -180 CURVE SMOOTH",
"241 -164 OFFCURVE",
"255 -140 OFFCURVE",
"255 -109 CURVE SMOOTH",
"255 -78 OFFCURVE",
"233 -60 OFFCURVE",
"201 -60 CURVE SMOOTH",
"190 -60 OFFCURVE",
"179 -61 OFFCURVE",
"168 -65 CURVE",
"166 -62 LINE",
"189 -11 LINE",
"272 -4 OFFCURVE",
"329 54 OFFCURVE",
"390 174 CURVE",
"359 189 LINE",
"308 98 OFFCURVE",
"253 45 OFFCURVE",
"193 45 CURVE SMOOTH",
"146 45 OFFCURVE",
"125 78 OFFCURVE",
"125 133 CURVE SMOOTH",
"125 156 OFFCURVE",
"129 184 OFFCURVE",
"134 212 CURVE SMOOTH",
"138 240 OFFCURVE",
"145 268 OFFCURVE",
"150 289 CURVE SMOOTH",
"169 368 OFFCURVE",
"192 418 OFFCURVE",
"218 448 CURVE SMOOTH",
"244 478 OFFCURVE",
"272 488 OFFCURVE",
"304 488 CURVE SMOOTH",
"334 488 OFFCURVE",
"357 482 OFFCURVE",
"372 471 CURVE",
"372 464 LINE",
"323 461 OFFCURVE",
"303 428 OFFCURVE",
"303 399 CURVE SMOOTH",
"303 372 OFFCURVE",
"317 353 OFFCURVE",
"352 353 CURVE SMOOTH",
"395 353 OFFCURVE",
"421 386 OFFCURVE",
"421 430 CURVE SMOOTH",
"421 487 OFFCURVE",
"373 528 OFFCURVE",
"300 528 CURVE SMOOTH",
"240 528 OFFCURVE",
"191 501 OFFCURVE",
"153 461 CURVE SMOOTH",
"115 420 OFFCURVE",
"87 365 OFFCURVE",
"69 308 CURVE SMOOTH",
"51 251 OFFCURVE",
"42 191 OFFCURVE",
"42 140 CURVE SMOOTH",
"42 45 OFFCURVE",
"79 -5 OFFCURVE",
"152 -11 CURVE",
"122 -78 LINE",
"149 -81 LINE SMOOTH",
"184 -84 OFFCURVE",
"194 -98 OFFCURVE",
"194 -117 CURVE SMOOTH",
"194 -121 OFFCURVE",
"193 -134 OFFCURVE",
"185 -146 CURVE SMOOTH",
"177 -158 OFFCURVE",
"162 -170 OFFCURVE",
"135 -170 CURVE SMOOTH",
"112 -170 OFFCURVE",
"95 -162 OFFCURVE",
"84 -146 CURVE",
"64 -165 LINE",
"75 -188 OFFCURVE",
"98 -206 OFFCURVE",
"138 -206 CURVE SMOOTH"
);
}
);
width = 428;
}
);
leftKerningGroup = c;
note = ccedilla;
rightKerningGroup = c;
unicode = 00E7;
},
{
glyphname = dcroat;
lastChange = "2019-02-03 18:41:26 +0000";
layers = (
{
layerId = "A1F39B41-468B-47E4-A64F-494FF9F69BAB";
paths = (
{
closed = 1;
nodes = (
"177 -12 OFFCURVE",
"211 9 OFFCURVE",
"243 45 CURVE SMOOTH",
"274 80 OFFCURVE",
"300 131 OFFCURVE",
"328 191 CURVE",
"336 188 LINE",
"312 94 LINE SMOOTH",
"309 82 OFFCURVE",
"305 59 OFFCURVE",
"305 44 CURVE SMOOTH",
"305 13 OFFCURVE",
"322 -12 OFFCURVE",
"362 -12 CURVE SMOOTH",
"376 -12 OFFCURVE",
"390 -7 OFFCURVE",
"405 2 CURVE SMOOTH",
"420 11 OFFCURVE",
"439 30 OFFCURVE",
"463 58 CURVE SMOOTH",
"534 141 LINE",
"510 160 LINE",
"395 45 LINE",
"377 53 LINE",
"520 620 LINE",
"592 620 LINE",
"603 664 LINE",
"531 664 LINE",
"555 760 LINE",
"468 741 LINE",
"451 664 LINE",
"274 664 LINE",
"263 620 LINE",
"441 620 LINE",
"403 459 LINE",
"395 459 LINE",
"388 479 OFFCURVE",
"379 496 OFFCURVE",
"364 508 CURVE SMOOTH",
"348 520 OFFCURVE",
"326 528 OFFCURVE",
"297 528 CURVE SMOOTH",
"244 528 OFFCURVE",
"197 502 OFFCURVE",
"159 462 CURVE SMOOTH",
"121 422 OFFCURVE",
"90 367 OFFCURVE",
"70 308 CURVE SMOOTH",
"50 249 OFFCURVE",
"39 188 OFFCURVE",
"39 133 CURVE SMOOTH",
"39 40 OFFCURVE",
"68 -12 OFFCURVE",
"136 -12 CURVE SMOOTH"
);
},
{
closed = 1;
nodes = (
"131 52 OFFCURVE",
"123 81 OFFCURVE",
"123 133 CURVE SMOOTH",
"123 152 OFFCURVE",
"127 180 OFFCURVE",
"132 209 CURVE SMOOTH",
"137 238 OFFCURVE",
"144 268 OFFCURVE",
"149 289 CURVE SMOOTH",
"182 412 OFFCURVE",
"246 477 OFFCURVE",
"318 477 CURVE SMOOTH",
"377 477 OFFCURVE",
"398 430 OFFCURVE",
"379 366 CURVE SMOOTH",
"375 352 LINE SMOOTH",
"367 324 OFFCURVE",
"351 281 OFFCURVE",
"329 237 CURVE SMOOTH",
"307 192 OFFCURVE",
"279 146 OFFCURVE",
"251 111 CURVE SMOOTH",
"222 76 OFFCURVE",
"191 52 OFFCURVE",
"163 52 CURVE SMOOTH"
);
}
);
width = 543;
}
);
leftKerningGroup = a;
note = dcroat;
unicode = 0111;
},
{
glyphname = eth;
lastChange = "2019-02-03 18:41:26 +0000";
layers = (
{
layerId = "A1F39B41-468B-47E4-A64F-494FF9F69BAB";
paths = (
{
closed = 1;
nodes = (
"282 -12 OFFCURVE",
"353 40 OFFCURVE",
"402 119 CURVE SMOOTH",
"451 198 OFFCURVE",
"477 304 OFFCURVE",
"477 412 CURVE SMOOTH",
"477 491 OFFCURVE",
"457 584 OFFCURVE",
"397 665 CURVE",
"486 723 LINE",
"464 760 LINE",
"369 698 LINE",
"354 714 OFFCURVE",
"332 733 OFFCURVE",
"311 748 CURVE",
"243 748 LINE",
"278 725 OFFCURVE",
"303 702 OFFCURVE",
"328 671 CURVE",
"236 611 LINE",
"257 575 LINE",
"352 636 LINE",
"387 576 OFFCURVE",
"407 487 OFFCURVE",
"407 411 CURVE",
"400 409 LINE",
"396 469 OFFCURVE",
"362 505 OFFCURVE",
"299 505 CURVE SMOOTH",
"216 505 OFFCURVE",
"150 458 OFFCURVE",
"106 394 CURVE SMOOTH",
"61 329 OFFCURVE",
"37 244 OFFCURVE",
"37 168 CURVE SMOOTH",
"37 59 OFFCURVE",
"87 -12 OFFCURVE",
"190 -12 CURVE SMOOTH"
);
},
{
closed = 1;
nodes = (
"135 29 OFFCURVE",
"115 70 OFFCURVE",
"115 130 CURVE SMOOTH",
"115 146 OFFCURVE",
"116 160 OFFCURVE",
"121 184 CURVE SMOOTH",
"125 207 OFFCURVE",
"133 239 OFFCURVE",
"146 288 CURVE SMOOTH",
"159 336 OFFCURVE",
"178 380 OFFCURVE",
"204 412 CURVE SMOOTH",
"230 444 OFFCURVE",
"261 464 OFFCURVE",
"304 464 CURVE SMOOTH",
"363 464 OFFCURVE",
"383 423 OFFCURVE",
"383 363 CURVE SMOOTH",
"383 347 OFFCURVE",
"382 333 OFFCURVE",
"378 310 CURVE SMOOTH",
"373 286 OFFCURVE",
"365 254 OFFCURVE",
"352 205 CURVE SMOOTH",
"339 157 OFFCURVE",
"321 113 OFFCURVE",
"295 81 CURVE SMOOTH",
"269 49 OFFCURVE",
"235 29 OFFCURVE",
"194 29 CURVE SMOOTH"
);
}
);
width = 507;
}
);
leftKerningGroup = c;
note = eth;
rightKerningGroup = eth;
unicode = 00F0;
},
{
glyphname = eogonek;
lastChange = "2019-02-03 18:41:26 +0000";
layers = (
{
layerId = "A1F39B41-468B-47E4-A64F-494FF9F69BAB";
paths = (
{
closed = 1;
nodes = (
"225 -206 OFFCURVE",
"260 -180 OFFCURVE",
"284 -155 CURVE",
"262 -134 LINE",
"243 -151 OFFCURVE",
"228 -163 OFFCURVE",
"205 -163 CURVE SMOOTH",
"186 -163 OFFCURVE",
"176 -152 OFFCURVE",
"176 -129 CURVE SMOOTH",
"176 -104 OFFCURVE",
"194 -73 OFFCURVE",
"219 -43 CURVE SMOOTH",
"244 -13 OFFCURVE",
"275 17 OFFCURVE",
"303 44 CURVE SMOOTH",
"334 73 OFFCURVE",
"356 107 OFFCURVE",
"391 174 CURVE",
"360 189 LINE",
"309 98 OFFCURVE",
"253 45 OFFCURVE",
"194 45 CURVE SMOOTH",
"146 45 OFFCURVE",
"125 78 OFFCURVE",
"125 134 CURVE SMOOTH",
"125 173 OFFCURVE",
"134 221 OFFCURVE",
"143 260 CURVE",
"254 268 OFFCURVE",
"326 290 OFFCURVE",
"370 321 CURVE SMOOTH",
"414 352 OFFCURVE",
"430 390 OFFCURVE",
"430 429 CURVE SMOOTH",
"430 468 OFFCURVE",
"413 492 OFFCURVE",
"389 508 CURVE SMOOTH",
"365 523 OFFCURVE",
"335 528 OFFCURVE",
"307 528 CURVE SMOOTH",
"244 528 OFFCURVE",
"195 502 OFFCURVE",
"156 462 CURVE SMOOTH",
"116 422 OFFCURVE",
"88 367 OFFCURVE",
"69 311 CURVE SMOOTH",
"50 254 OFFCURVE",
"42 194 OFFCURVE",
"42 145 CURVE SMOOTH",
"42 40 OFFCURVE",
"79 -12 OFFCURVE",
"170 -12 CURVE SMOOTH",
"192 -12 OFFCURVE",
"213 -8 OFFCURVE",
"232 1 CURVE",
"232 -3 LINE",
"205 -19 OFFCURVE",
"176 -39 OFFCURVE",
"153 -62 CURVE SMOOTH",
"130 -85 OFFCURVE",
"114 -112 OFFCURVE",
"114 -143 CURVE SMOOTH",
"114 -182 OFFCURVE",
"142 -206 OFFCURVE",
"182 -206 CURVE SMOOTH"
);
},
{
closed = 1;
nodes = (
"169 366 OFFCURVE",
"190 414 OFFCURVE",
"214 445 CURVE SMOOTH",
"238 476 OFFCURVE",
"265 487 OFFCURVE",
"294 487 CURVE SMOOTH",
"339 487 OFFCURVE",
"353 459 OFFCURVE",
"353 422 CURVE SMOOTH",
"353 346 OFFCURVE",
"291 307 OFFCURVE",
"150 291 CURVE"
);
}
);
width = 445;
}
);
leftKerningGroup = c;
note = eogonek;
rightKerningGroup = e;
unicode = 0119;
},
